<svg width="85" height="77" viewBox="0 0 85 77" fill="none" xmlns="http://www.w3.org/2000/svg">
<path d="M19.5 23.9495C19.679 23.9815 19.8615 23.9976 20.0446 23.9976C20.4064 24.0094 20.7648 23.9349 21.0776 23.783C21.8181 23.4673 22.6381 23.3026 23.4701 23.3026C24.3021 23.3026 25.1222 23.4673 25.8627 23.783C26.173 23.9352 26.5293 24.0101 26.8892 23.9989C27.0953 24.0007 27.3008 23.9792 27.5 23.9349V12H19.5V23.9495Z" fill="#FFEBCD"/>
<path d="M50.5 58L62.0414 77H68.5L56.7632 58H50.5Z" fill="black"/>
<path d="M24.4842 26.2459C24.1703 26.0845 23.819 26 23.462 26C23.105 26 22.7537 26.0845 22.4398 26.2459C21.7035 26.6198 20.8787 26.8087 20.0438 26.7945C19.8518 26.7945 19.7222 26.7844 19.5 26.77V40.2023C19.5 41.2095 19.9214 42.1754 20.6716 42.8877C21.4217 43.5999 22.4391 44 23.5 44C24.5609 44 25.5783 43.5999 26.3284 42.8877C27.0786 42.1754 27.5 41.2095 27.5 40.2023V26.7629C27.2778 26.781 27.1064 26.7939 26.8884 26.7939C26.051 26.8082 25.2236 26.6196 24.4842 26.2459Z" fill="#8850FF"/>
<path d="M16.5 77H22.9586L34.5 58H28.2367L16.5 77Z" fill="black"/>
<path d="M0.5 55H84.5V0H0.5V55ZM3.76214 4.65074C3.76214 4.27534 3.9125 3.91531 4.18015 3.64987C4.4478 3.38442 4.81081 3.23529 5.18932 3.23529H79.8107C80.1892 3.23529 80.5522 3.38442 80.8198 3.64987C81.0875 3.91531 81.2379 4.27534 81.2379 4.65074V50.3493C81.2379 50.7247 81.0875 51.0847 80.8198 51.3501C80.5522 51.6156 80.1892 51.7647 79.8107 51.7647H5.18932C4.81081 51.7647 4.4478 51.6156 4.18015 51.3501C3.9125 51.0847 3.76214 50.7247 3.76214 50.3493V4.65074Z" fill="black"/>
<path d="M77.5 6H7.5V49H77.5V6ZM44.5018 18.5755H54.0995C54.4687 18.5755 54.8228 18.7251 55.0838 18.9913C55.3449 19.2576 55.4916 19.6187 55.4916 19.9953C55.4916 20.3718 55.3449 20.733 55.0838 20.9992C54.8228 21.2655 54.4687 21.4151 54.0995 21.4151H44.5018C44.1326 21.4151 43.7785 21.2655 43.5174 20.9992C43.2564 20.733 43.1097 20.3718 43.1097 19.9953C43.1097 19.6187 43.2564 19.2576 43.5174 18.9913C43.7785 18.7251 44.1326 18.5755 44.5018 18.5755ZM29.7727 40.3619C29.7727 42.0833 29.1023 43.7342 27.9089 44.9514C26.7154 46.1686 25.0968 46.8524 23.4091 46.8524C21.7213 46.8524 20.1027 46.1686 18.9093 44.9514C17.7159 43.7342 17.0455 42.0833 17.0455 40.3619V10.0984C17.0482 9.7153 17.1971 9.34837 17.4607 9.07548C17.7244 8.80259 18.0819 8.64523 18.4574 8.63679H28.3608C28.7361 8.64583 29.0933 8.80339 29.3568 9.07615C29.6203 9.34891 29.7694 9.71549 29.7727 10.0984V40.3619ZM70.0086 37.6415H44.5018C44.1326 37.6415 43.7785 37.4919 43.5174 37.2257C43.2564 36.9594 43.1097 36.5983 43.1097 36.2217C43.1097 35.8451 43.2564 35.484 43.5174 35.2177C43.7785 34.9515 44.1326 34.8019 44.5018 34.8019H70.0086C70.3778 34.8019 70.7319 34.9515 70.9929 35.2177C71.254 35.484 71.4007 35.8451 71.4007 36.2217C71.4007 36.5983 71.254 36.9594 70.9929 37.2257C70.7319 37.4919 70.3778 37.6415 70.0086 37.6415ZM70.0086 29.5283H44.5018C44.1326 29.5283 43.7785 29.3787 43.5174 29.1125C43.2564 28.8462 43.1097 28.4851 43.1097 28.1085C43.1097 27.7319 43.2564 27.3708 43.5174 27.1045C43.7785 26.8383 44.1326 26.6887 44.5018 26.6887H70.0086C70.3778 26.6887 70.7319 26.8383 70.9929 27.1045C71.254 27.3708 71.4007 27.7319 71.4007 28.1085C71.4007 28.4851 71.254 28.8462 70.9929 29.1125C70.7319 29.3787 70.3778 29.5283 70.0086 29.5283Z" fill="#FFC875"/>
</svg>
