<svg width="90" height="110" viewBox="0 0 90 110" fill="none" xmlns="http://www.w3.org/2000/svg">
<path d="M53.0886 9.69387L39.7068 11.8347L31.0978 18.0989L24.4917 27.4637L23.0205 44.2334L26.2906 58.8193L25.1499 72.5632L30.9457 73.9166L45.4481 36.7766L56.5398 25.9205L56.9651 41.8167L43.1552 79.2124L49.1321 82.2065L50.1551 79.4365L57.0169 69.3792L66.8299 61.9857L73.0309 57.98L78.252 48.1038L79.9358 39.2821L78.2318 26.8485L71.0193 18.6763L65.5539 14.2972L53.0886 9.69387Z" fill="#EDFFA5"/>
<path d="M56.3581 24.2797L57.476 40.4316L44.755 36.5208L56.3581 24.2797Z" fill="#C48F69"/>
<path d="M56.2732 41.5609L44.5005 37.2134L30.6906 74.6091L43.1559 79.2124L56.2732 41.5609Z" fill="white"/>
<path d="M48.8641 83.3826L23.6212 74.0606C22.8556 73.7779 22.4649 72.9297 22.7477 72.1641L23.3211 70.6114C25.8739 63.6984 25.8496 56.4639 23.2543 50.2397C20.323 43.2104 20.1635 35.3972 22.8063 28.2408C25.7643 20.2309 32.0209 13.8312 39.9713 10.6821C48.0299 7.48996 56.7765 7.88266 64.5822 11.7766C77.076 18.0089 83.675 32.3624 80.2703 45.9066C78.167 54.2782 72.8504 61.125 65.2969 65.1846C58.7497 68.7043 53.858 74.1218 51.5243 80.441L50.7606 82.509C50.4779 83.2746 49.6297 83.6653 48.8641 83.3826ZM26.0292 71.8021L48.5021 80.1011L48.7543 79.418C51.3377 72.4225 56.7163 66.444 63.8994 62.5843C70.7116 58.9211 75.5091 52.7433 77.4066 45.1872C80.4753 32.9775 74.5271 20.0372 63.2649 14.4195C56.2106 10.8968 48.327 10.5477 41.0586 13.4276C33.8876 16.2681 28.2441 22.0397 25.5764 29.2638C23.1928 35.7182 23.3363 42.7631 25.9795 49.1034C28.8643 56.0171 28.9032 64.0194 26.0911 71.6343L26.0292 71.8021Z" fill="black"/>
<path d="M28.7384 99.0712C21.9783 96.5748 18.5088 89.0425 21.0053 82.2823L24.5032 72.8103C24.7859 72.0448 25.6341 71.6541 26.3997 71.9368L48.1516 79.9695C48.9172 80.2523 49.3079 81.1005 49.0252 81.866L45.5273 91.3381C43.0308 98.0982 35.4985 101.568 28.7384 99.0712ZM26.7617 75.2183L23.7753 83.3053C21.8428 88.5384 24.5283 94.3686 29.7613 96.3011C34.9944 98.2337 40.8247 95.5482 42.7572 90.3151L45.7436 82.2281L26.7617 75.2183Z" fill="black"/>
<path d="M42.3862 80.8133L30.0805 76.2689C29.315 75.9862 28.9243 75.138 29.207 74.3724L43.2346 36.387C43.5173 35.6214 44.3656 35.2307 45.1311 35.5134L57.4368 40.0578C58.2023 40.3405 58.593 41.1887 58.3103 41.9543L44.2827 79.9397C44 80.7053 43.1517 81.096 42.3862 80.8133ZM32.4885 74.0103L42.0241 77.5317L55.0288 42.3164L45.4932 38.795L32.4885 74.0103Z" fill="black"/>
<path d="M56.4128 42.8277L44.1072 38.2834C43.6487 38.114 43.3038 37.7285 43.1858 37.253C43.0674 36.7789 43.1929 36.2765 43.5193 35.9129L55.4033 22.6657C55.8082 22.2143 56.446 22.0564 57.0141 22.2661C57.5822 22.4759 57.9642 23.0105 57.9786 23.6168L58.4003 41.4083C58.412 41.8968 58.1809 42.3601 57.7827 42.6435C57.384 42.9281 56.8714 42.997 56.4128 42.8277ZM47.1698 36.2665L55.3961 39.3044L55.115 27.4086L47.1698 36.2665Z" fill="black"/>
<path d="M36.2329 78.5414C35.4673 78.2587 35.0766 77.4104 35.3593 76.6449L49.387 38.6594C49.6697 37.8939 50.5179 37.5032 51.2835 37.7859C52.049 38.0686 52.4397 38.9168 52.157 39.6824L38.1294 77.6678C37.8467 78.4334 36.9984 78.8241 36.2329 78.5414Z" fill="black"/>
<path d="M50.8322 92.0852L44.5374 89.7605C43.7718 89.4778 43.3811 88.6296 43.6638 87.864C43.9465 87.0985 44.7948 86.7078 45.5603 86.9905L51.8552 89.3151C52.6207 89.5978 53.0114 90.4461 52.7287 91.2116C52.446 91.9772 51.5978 92.3679 50.8322 92.0852Z" fill="black"/>
<path d="M22.7844 81.7268L16.4895 79.4021C15.724 79.1194 15.3333 78.2712 15.616 77.5056C15.8987 76.7401 16.7469 76.3494 17.5125 76.6321L23.8073 78.9567C24.5729 79.2394 24.9636 80.0877 24.6809 80.8532C24.3981 81.6188 23.5499 82.0095 22.7844 81.7268Z" fill="black"/>
</svg>
