<svg width="65" height="92" viewBox="0 0 65 92" fill="none" xmlns="http://www.w3.org/2000/svg">
<rect x="17.3354" y="83.7021" width="30.1859" height="5.65986" fill="#676767"/>
<rect x="17.3354" y="2.57764" width="28.2993" height="60.3719" rx="14.1497" fill="#DC925C"/>
<path d="M58.8407 32.7635C58.6521 32.1975 59.5954 28.9902 56.9541 28.9902C54.5015 28.9902 55.2561 32.1975 55.0675 32.7635H49.4076V17.6705C49.4076 8.2374 41.8611 0.690918 32.428 0.690918C22.9949 0.690918 15.4484 8.2374 15.4484 17.6705V32.7635H9.78857V30.8769C9.78857 28.4242 6.01533 28.4242 6.01533 30.8769V32.7635C4.31737 32.9521 0.355469 31.8202 0.355469 34.6501C0.355469 35.7821 1.11012 36.5367 2.24209 36.5367H6.01533V47.8564C6.01533 61.8174 16.7691 73.1372 30.5414 74.0805V79.929H21.1083C17.901 79.929 15.4484 82.3816 15.4484 85.5889C15.6371 87.2868 14.5051 91.2487 17.3351 91.2487C44.8797 90.4941 49.4076 92.9467 49.4076 89.3621V85.5889C49.4076 82.3816 46.955 79.929 43.7478 79.929H34.3146V74.0805C48.087 73.1372 58.8407 61.6288 58.8407 47.8564V36.5367C60.5387 36.3481 64.5006 37.48 64.5006 34.6501C64.5006 31.8202 60.5387 32.9521 58.8407 32.7635ZM45.6344 87.4755H19.2217C19.4103 86.9095 18.467 83.7022 21.1083 83.7022H43.7478C46.2004 83.7022 45.4457 86.9095 45.6344 87.4755ZM19.2217 17.6705C19.2217 10.3127 25.0702 4.46416 32.428 4.46416C39.7859 4.46416 45.6344 10.3127 45.6344 17.6705V21.4438C40.9178 21.8211 36.2013 20.3118 36.2013 23.3304C36.2013 26.349 40.9178 24.8397 45.6344 25.217V32.7635C40.9178 33.1408 36.2013 31.6315 36.2013 34.6501C36.2013 37.6687 40.9178 36.1594 45.6344 36.5367V44.0832C40.9178 44.4605 36.2013 42.9512 36.2013 45.9698C36.2013 48.9884 40.9178 47.4791 45.6344 47.8564C45.6344 55.2143 39.7859 61.0628 32.428 61.0628C25.0702 61.0628 19.2217 55.2143 19.2217 47.8564V17.6705ZM55.0675 47.8564C55.0675 60.3081 44.8797 70.4959 32.428 70.4959C19.9763 70.4959 9.78857 60.3081 9.78857 47.8564V36.5367H15.4484V47.8564C15.4484 57.2896 22.9949 64.836 32.428 64.836C41.8611 64.836 49.4076 57.2896 49.4076 47.8564V36.5367H55.0675V47.8564Z" fill="black"/>
</svg>
