<svg width="81" height="80" viewBox="0 0 81 80" fill="none" xmlns="http://www.w3.org/2000/svg">
<path d="M54.052 57.3236C59.0808 57.8208 63.5811 53.4509 66.4603 49.7256C69.2319 46.1396 69.3011 37.7439 68.0006 33.4997C65.3414 24.8213 61.685 19.1443 54.0005 14.4992C46.8051 10.1497 36.5019 9.49952 27.1745 14.2344C17.8146 18.0882 12.3004 28.2052 12.1125 38.0607C11.9949 44.2343 13.9782 49.9095 16.8362 55.3102C19.1039 59.5953 21.7367 63.2993 25.8886 65.8908C33.0056 70.333 42.5066 70.9961 50.4109 68.3798C58.3708 65.7451 64.367 58.5824 67.4603 50.9942C68.9061 47.4477 68.2431 43.3326 68.002 39.5C67.7281 35.1459 67.28 32.0941 65.2231 28.3922" stroke="#C9D5FF" stroke-width="3" stroke-linecap="round"/>
<path d="M15.8619 27.1886C15.5132 27.8206 17.1064 26.4471 17.6668 25.9923C19.8666 24.207 21.9873 22.3271 24.173 20.525C27.8021 17.5327 31.5112 14.6351 34.9607 11.432C35.0946 11.3077 35.6414 10.7986 35.8474 10.5925C35.9325 10.5075 35.662 10.746 35.5746 10.8286C34.5175 11.8277 34.4052 11.969 33.1033 13.4468C30.2358 16.7019 27.3264 20.1603 24.5718 23.4842C23.1537 25.1954 21.7318 26.904 20.3532 28.6472C19.8003 29.3464 19.1717 30.0086 18.7792 30.8089C18.2473 31.8934 20.6369 29.263 21.5233 28.4426C24.5076 25.6806 27.5754 23.023 30.7422 20.4725C33.8852 17.9411 37.1698 15.6062 40.3336 13.1058C40.337 13.1031 40.8833 12.6684 40.9632 12.6021C41.0305 12.5462 40.8215 12.7047 40.7533 12.7595C38.7649 14.3586 36.8007 15.9931 34.8872 17.6811C29.733 22.2281 25.2317 27.3114 20.8674 32.6034C19.7864 33.9143 18.6761 35.2126 17.7088 36.6121C17.3488 37.1329 16.9896 37.8176 17.9029 36.9846C22.5906 32.7094 26.8335 27.9344 31.419 23.5472C33.7918 21.2771 36.2004 19.0439 38.6073 16.8101C40.1138 15.412 41.6782 14.053 43.083 12.5496C45.2748 10.2039 38.3002 16.8442 36.094 19.1765C30.8458 24.7247 25.9138 30.6258 21.1718 36.6121C20.2652 37.7565 19.3719 38.9172 18.5693 40.138C18.2806 40.5771 17.9703 41.0675 18.6532 40.2954C23.7174 34.5696 28.5872 28.7216 34.1369 23.4423C36.5039 21.1906 38.9386 19.0072 41.3934 16.8521C42.4962 15.8841 43.5914 14.8102 44.783 13.9453C45.3435 13.5385 43.8194 14.9406 43.3243 15.4249C40.326 18.3583 37.3377 21.3037 34.52 24.4129C29.1377 30.352 24.0021 36.5187 19.3039 43.0133C18.9408 43.5152 17.7773 44.7006 17.6878 45.4164C17.6676 45.5778 17.9713 45.2476 18.0813 45.1278C19.1826 43.9286 20.1685 42.6119 21.2137 41.3658C26.8014 34.7046 32.6682 28.2325 38.8854 22.1515C40.8642 20.2161 46.8327 14.4441 44.8092 16.3327C43.5623 17.4964 42.4089 18.7862 41.2308 20.016C37.8872 23.5062 34.6188 27.0572 31.482 30.7355C26.7863 36.2417 22.0665 41.9368 18.4853 48.2602C18.4199 48.3757 18.2594 48.7253 18.3594 48.638C18.6268 48.4049 19.4025 47.3823 19.4613 47.3053C22.392 43.465 25.1935 39.5346 28.3706 35.888C31.6366 32.1393 35.0935 28.542 38.5549 24.9744C40.8585 22.5999 43.1793 20.185 45.6644 17.9959C45.7914 17.8841 46.2002 17.6041 46.1052 17.7441C45.8639 18.0995 44.7857 19.3092 44.657 19.4546C41.9838 22.4747 39.2915 25.4754 36.6712 28.5423C31.4346 34.6714 26.1324 40.9607 22.0113 47.9192C21.8595 48.1756 21.299 49.0891 22.0637 48.2288C24.8735 45.0677 27.3264 41.5804 30.0496 38.3435C35.717 31.6071 41.923 25.3194 48.1672 19.1188C48.4043 18.8834 48.8236 18.4734 49.1064 18.2163C49.2874 18.0518 49.291 18.0578 49.1117 18.2688C47.6582 19.9788 46.0941 21.6011 44.5993 23.2744C37.989 30.6738 31.6612 38.3547 25.9989 46.5078C25.2861 47.5342 24.3705 48.6013 23.8267 49.7399C23.7606 49.8783 24.0554 49.5336 24.152 49.4146C25.1864 48.1406 26.1393 46.8003 27.1113 45.4794C32.3793 38.3198 38.0227 31.4495 43.2509 24.2608" stroke="#C9D5FF" stroke-linecap="round"/>
<path d="M24.0781 42.8662C24.1079 42.8592 24.144 42.865 24.1673 42.8452C24.5372 42.5323 25.5104 41.4601 25.6365 41.3236C27.1411 39.6941 28.618 38.039 30.0911 36.381C32.7405 33.3993 35.3891 30.4258 38.1714 27.5662C38.8096 26.9102 39.4449 26.2411 40.1128 25.6143C40.343 25.3982 40.623 25.1828 40.2492 25.6773C38.4419 28.0679 36.2867 30.2335 34.3516 32.5193C31.6527 35.7074 28.8258 38.9172 26.5862 42.457C26.1369 43.167 25.7163 43.9208 25.4161 44.7079C25.2247 45.2098 25.2826 45.3552 25.7362 44.923C27.0754 43.647 28.273 42.1725 29.5139 40.8094C32.5293 37.4975 35.5835 34.2197 38.7276 31.0292C39.6243 30.1192 40.5324 29.2203 41.4507 28.3322C42.2142 27.5939 44.4514 25.434 43.9692 26.3804C43.4605 27.3788 42.7498 28.2616 42.0961 29.1717C41.82 29.5562 35.8807 37.4869 35.2751 38.3958C33.8364 40.5552 39.0436 34.8243 40.8263 32.939C42.8271 30.8232 44.8874 28.7665 46.9443 26.7057C47.6432 26.0054 48.3434 25.3065 49.043 24.6069C49.5118 24.1381 48.117 25.5558 47.6578 26.0341C44.262 29.571 40.8904 33.1272 37.6887 36.8428C34.0145 41.1064 30.3164 45.4904 27.4047 50.3274C26.9765 51.0387 26.2404 52.0826 26.1297 52.9561C26.0704 53.4233 27.0262 52.5877 27.3522 52.2478C29.0452 50.4822 30.5312 48.5043 32.0482 46.5916C34.0031 44.1267 35.9562 41.6635 37.9825 39.2563C40.9126 35.7754 43.8816 32.2273 47.2171 29.1193C47.4259 28.9247 48.2663 28.1522 47.5949 29.0983C46.5292 30.5999 45.2684 31.9892 44.0689 33.3798C39.7465 38.3907 35.39 43.3355 31.4343 48.6484C30.2149 50.2862 29.0141 51.9467 27.8926 53.6539C27.6354 54.0456 26.9363 55.2319 27.2892 54.9237C28.3387 54.0072 29.2394 52.7506 30.1226 51.6968C32.1949 49.2243 34.2467 46.7349 36.3559 44.2934C39.992 40.0845 43.7608 35.9953 47.7208 32.089C48.2492 31.5678 49.7433 29.9341 49.3316 30.5517C48.8914 31.212 48.0554 31.9226 47.5424 32.4773C43.4346 36.9196 39.3416 41.4107 35.6948 46.2453C34.0825 48.3828 32.5556 50.5894 31.0985 52.8354C30.6039 53.5978 29.6886 54.7423 29.4405 55.6897C29.3156 56.1667 30.3085 55.1927 30.6473 54.8345C32.1462 53.2494 33.4674 51.4988 34.8343 49.8027C39.0053 44.6274 43.2924 39.5476 47.8677 34.723C48.7802 33.7608 49.7055 32.8006 50.6801 31.9001C51.6203 31.0315 50.5412 32.2163 50.5332 32.2255C47.323 35.9117 44.0688 39.5631 40.9628 43.3385C38.7729 46.0002 36.6597 48.721 34.6245 51.5027C33.5729 52.9399 32.4559 54.4047 31.5603 55.9521C31.4311 56.1752 30.9212 57.1216 31.6862 56.5555C32.9124 55.6481 33.9356 54.2829 34.9183 53.1502C39.4911 47.8797 43.9654 42.5406 48.8227 37.5249C50.8136 35.4689 56.8626 29.3761 54.8252 31.3859C50.5309 35.6222 46.3789 40.0098 42.4319 44.5715C39.1654 48.3467 35.8691 52.2599 33.2917 56.5555C33.1653 56.7663 33.0369 56.9772 32.9349 57.2009C32.8591 57.3673 32.824 57.5918 33.0819 57.3688C34.21 56.3931 35.16 54.9933 36.0779 53.8533C40.1348 48.8144 44.2475 43.8706 48.7335 39.2039C50.3985 37.4717 52.0851 35.7583 53.8177 34.0934C54.2479 33.68 55.4558 32.4013 55.1767 32.9285C54.7445 33.7449 53.7469 34.5958 53.1566 35.2477C51.2385 37.3663 49.3383 39.498 47.4742 41.6647C43.0316 46.8285 38.6023 52.0605 34.8186 57.736C34.2177 58.6373 33.2071 59.8962 32.8615 60.9891C32.6216 61.7477 33.9949 59.8682 34.4985 59.2524C38.402 54.4796 42.0835 49.5407 46.0838 44.8443C48.9696 41.4564 51.8766 38.0191 55.077 34.9171C56.7274 33.3175 51.9372 38.2751 50.402 39.9857C45.8414 45.0672 41.4121 50.3433 37.6205 56.0308C36.8639 57.1656 35.8879 58.4445 35.38 59.7404C35.3455 59.8285 35.2905 59.9583 35.359 60.0237C35.6279 60.2803 36.0035 59.6406 36.272 59.3836C40.031 55.785 43.2184 51.562 46.6504 47.6619C49.7762 44.1099 53.0095 40.6617 56.289 37.252C56.4477 37.0871 56.604 36.9199 56.7665 36.7588C56.7966 36.729 56.8825 36.641 56.8662 36.6801C56.8335 36.7586 56.7681 36.8191 56.7141 36.8847C55.7776 38.0229 54.7798 39.1159 53.8125 40.227C49.7764 44.8634 45.7532 49.5386 42.0541 54.4515C40.9948 55.8584 39.9762 57.2984 39.0319 58.7854C38.7493 59.2305 37.901 60.5101 38.3288 60.2021C39.289 59.5107 40.144 58.2451 40.8998 57.3792C42.8535 55.1412 44.8064 52.9028 46.7764 50.6789C49.7387 47.3347 52.6513 43.8496 55.9165 40.7884C57.6561 39.1576 52.8588 44.4482 51.3097 46.261C47.795 50.374 44.26 54.4948 41.0362 58.8431C40.4642 59.6147 39.9078 60.401 39.3887 61.2095C39.2918 61.3603 38.8159 62.0431 39.4202 61.4456C40.65 60.2296 41.7762 58.8901 42.9356 57.6101C45.1752 55.1375 47.4203 52.6697 49.6989 50.2329C51.5674 48.2347 53.4649 46.2667 55.3918 44.3249C56.0892 43.6221 56.8104 42.7711 57.5903 42.1422C58.0215 41.7944 56.9168 43.0225 56.5566 43.4434C55.0975 45.1487 53.6136 46.8327 52.1545 48.5382C48.7804 52.482 45.279 56.3986 42.2797 60.6428C42.1848 60.7771 40.9269 62.3255 41.0257 62.7206C41.0436 62.792 41.1636 62.6631 41.2199 62.6157C41.5484 62.3384 42.3614 61.4515 42.5368 61.262C46.2847 57.2119 49.898 53.0494 53.7338 49.0786C55.4364 47.316 57.1561 45.5672 58.9073 43.8527C59.1442 43.6207 59.3832 43.391 59.6261 43.1653C59.7141 43.0836 60.1527 42.6555 59.8412 43.0551C57.2792 46.3423 54.3313 49.3628 51.5983 52.5049C49.2163 55.2433 46.869 58.014 44.6461 60.8842C44.1143 61.5709 43.5928 62.2659 43.0878 62.9725C42.7047 63.5085 41.5479 64.9732 42.1538 64.7145C42.5168 64.5595 42.7933 64.2485 43.0825 63.9799C44.1893 62.9521 47.2747 59.758 48.0776 58.9323C52.1907 54.7029 56.3116 50.4814 60.4394 46.2662" stroke="#C9D5FF" stroke-linecap="round"/>
<path d="M57.4166 52.4998C56.588 53.4432 54.6113 55.6492 53.7542 56.7708C53.5785 57.0008 53.2033 57.2461 53.3082 57.5159C53.3925 57.7325 53.7232 57.2982 53.9011 57.1486C54.4165 56.7154 54.8946 56.2395 55.3808 55.7739C57.4076 53.8326 59.331 51.7785 61.4252 49.9078C61.5834 49.7666 61.8487 49.3233 61.929 49.5195C61.9598 49.5948 61.8587 49.6669 61.8135 49.7346C61.5472 50.1342 60.9283 50.9272 60.7012 51.2195C58.4605 54.1044 56.1023 56.896 53.7857 59.7196C52.0784 61.8005 50.3102 63.8516 48.6804 65.9949C48.5729 66.1363 48.2599 66.5589 48.3971 66.4461C49.0715 65.8922 49.6558 65.0171 50.1968 64.3579C52.6767 61.3361 55.1972 58.3614 57.8521 55.4905C59.084 54.1583 60.3348 52.8423 61.6141 51.5553C61.9988 51.1684 63.117 49.9833 62.7999 50.4272C62.5544 50.7711 62.2421 51.062 61.9604 51.3769C60.6804 52.8085 59.3997 54.2398 58.1407 55.6899C55.3933 58.8543 52.6809 62.0615 50.1286 65.3862C49.5935 66.0832 48.9841 66.8905 48.4863 67.6372C48.3369 67.8613 48.019 68.5552 48.245 68.4085C48.5516 68.2093 49.1826 67.5532 49.3678 67.3591C50.6644 66.0002 51.9042 64.5849 53.1823 63.2088C55.9478 60.2312 58.7731 57.3153 61.6666 54.4621C65.5155 50.667 60.4598 55.6588 63.2302 52.9195C63.2675 52.8826 64.0106 52.1086 63.3561 52.8566C61.6064 54.8562 59.857 56.8529 58.1512 58.8905C56.0432 61.4085 53.7975 63.9142 51.9913 66.6665C51.9242 66.7687 51.7441 67.0721 51.8443 67.0023C52.4976 66.5473 53.1605 65.6176 53.6545 65.0609C56.0468 62.3654 58.3656 59.6047 60.8376 56.9807C61.4275 56.3544 62.5508 55.2008 63.1777 54.5566C63.3891 54.3394 63.5998 54.1217 63.8126 53.906C63.8482 53.8698 63.9563 53.763 63.9228 53.801C63.7599 53.9859 63.5906 54.1649 63.4243 54.3467C61.4547 56.4995 59.5291 58.6855 57.6475 60.9159C56.2937 62.5206 54.9045 64.1149 53.644 65.7955C53.5731 65.8901 53.3801 66.1808 53.4709 66.1051C54.1317 65.5544 54.7127 64.7395 55.2549 64.0955C57.5341 61.3878 59.8299 58.6962 62.1283 56.0047C63.2326 54.7116 64.3414 53.4178 65.3919 52.08C65.5591 51.8671 66.5026 50.8835 66.4518 50.4902C66.4229 50.2659 66.0004 50.5837 65.8064 50.7001C64.6681 51.3831 63.6146 52.2366 62.6006 53.0874C60.1915 55.1087 57.9506 57.3322 55.6694 59.4939C55.275 59.8676 54.5455 60.5656 54.09 60.9683C53.9967 61.0509 53.3332 61.642 53.7857 61.0208C55.3728 58.8417 57.1756 56.7853 58.891 54.7087C61.0096 52.1441 63.2349 49.6488 65.224 46.98C65.5731 46.5116 66.771 44.8738 65.308 45.8991C63.2106 47.3691 61.4015 49.3915 59.6308 51.2195C57.6348 53.2802 55.5153 55.3991 53.8067 57.7152C50.673 61.9631 60.3069 49.3963 63.545 45.2275C64.1364 44.4662 65.0777 43.249 65.6753 42.4467C66.1699 41.7825 66.8419 41.0275 67.1706 40.2482C67.2835 39.9806 67.1794 39.9824 66.9555 40.0908C66.1835 40.4647 65.4927 41.2494 64.8987 41.8275C62.4596 44.2013 60.1441 46.7015 57.8626 49.2257C56.6592 50.5571 56.4956 50.749 55.4018 51.9908C55.0199 52.4244 53.9788 53.736 54.1425 53.1819C54.2521 52.811 55.0096 51.6238 55.1079 51.4714C56.081 49.9639 57.1496 48.5149 58.2036 47.064C60.5786 43.7946 63.0336 40.5897 65.5126 37.3991C65.7281 37.1218 65.9852 36.8685 66.1422 36.5544C66.3539 36.1309 65.3756 37.113 65.0246 37.4306C62.5478 39.6719 60.2005 42.0566 57.8731 44.451C55.8427 46.5398 53.8924 48.6921 51.9283 50.8418C51.6647 51.1303 51.4455 51.4811 51.1098 51.6813C50.6153 51.976 51.6891 50.6849 52.0175 50.2121C54.2454 47.0045 56.6996 43.9571 59.2215 40.9775C61.3088 38.5116 63.4308 36.039 65.7277 33.763C65.922 33.5705 67.2247 32.3243 66.2314 33.275C63.6878 35.7099 61.2334 38.2328 58.8228 40.7991C57.1744 42.5539 55.5653 44.352 53.8697 46.0618C53.4044 46.5309 52.3776 47.4231 53.0406 46.0775C54.4042 43.3106 56.5209 40.8511 58.445 38.4695C60.241 36.2465 62.0673 33.9681 64.1956 32.0472C64.258 31.991 64.8077 31.5107 64.9932 31.4386C65.32 31.3115 64.7072 32.0872 64.4895 32.3621C62.3872 35.015 60.0682 37.5143 57.7419 39.9701C56.0179 41.79 54.2854 43.6248 52.4635 45.3482C52.3061 45.4971 52.1546 45.6543 51.9808 45.7837C51.7779 45.9347 51.6728 45.9051 51.7709 45.6263C52.185 44.4497 53.0523 43.3042 53.7437 42.2997C56.8618 37.7698 60.6492 33.8131 64.3163 29.7386C67.5032 26.1976 57.6355 36.5318 54.2737 39.9071C53.7532 40.4297 52.7221 41.4859 52.091 42.0007C50.7248 43.1149 52.2237 40.9463 52.2431 40.9146C52.4919 40.5076 52.7694 40.1179 53.0039 39.7025C53.1374 39.466 53.3704 39.2331 53.345 38.9627C53.3268 38.7691 51.3097 40.5334 51.2619 40.5788C51.2533 40.587 49.5897 42.2264 50.2388 41.1769C51.331 39.4108 52.6374 37.7347 53.8697 36.0716C55.5742 33.7712 57.3006 31.4846 59.1376 29.2874C60.5039 27.6531 62.0726 26.1713 63.3981 24.5074C63.4864 24.3965 63.655 24.1738 63.3981 24.3815C62.673 24.9677 62.0253 25.7144 61.3833 26.3806C58.6476 29.2191 55.9295 32.0766 53.2348 34.954C52.753 35.4685 51.8584 36.4365 51.3354 36.9846C50.8997 37.4412 50.3379 38.1772 49.7561 38.4905C49.6455 38.55 49.7744 38.2303 49.84 38.1232C50.5794 36.9155 51.4938 35.783 52.3481 34.6602C54.3799 31.9898 56.489 29.384 58.7283 26.8843C59.4818 26.0432 61.7362 23.5473 61.1419 24.5074C60.6348 25.3265 59.7926 26.0918 59.1586 26.7898C57.7761 28.3118 56.3893 29.8304 54.9978 31.3441C53.1242 33.3822 51.2098 35.3787 49.2524 37.3361C48.9935 37.595 48.7713 37.9011 48.4653 38.1022C47.9602 38.4342 49.2126 37.1515 49.6039 36.6908C53.6027 31.9834 57.8708 27.5221 62.0234 22.9543C65.0657 19.6078 55.6369 29.3609 52.3795 32.4985C50.733 34.0845 49.101 35.7878 47.2795 37.1787C46.8183 37.5309 46.9247 37.2469 47.1274 36.8849C47.7565 35.7615 48.585 34.7301 49.3678 33.7158C52.9616 29.059 56.8365 24.7278 60.8166 20.4095C63.5392 17.4556 54.6602 25.5765 51.7079 28.3009C50.8333 29.1081 49.6398 30.1959 48.7277 30.9874C48.0753 31.5534 47.383 32.1996 46.6079 32.6087C46.4668 32.6831 46.1754 32.8419 46.1357 32.6874C46.0039 32.175 47.2108 30.7835 47.374 30.5676C49.0111 28.4013 50.8503 26.37 52.8098 24.4917C53.5293 23.8019 54.2637 23.1202 55.0345 22.4873C55.1588 22.3852 55.2852 22.2851 55.4175 22.1935C55.7212 21.9833 55.5336 22.1945 55.3913 22.3509C53.6314 24.2843 51.62 26.0224 49.7141 27.8077C47.9138 29.4941 46.1351 31.2383 44.1943 32.7661C44.0333 32.8928 43.6526 33.2903 43.6696 33.0861C43.7119 32.5785 45.1346 31.1715 45.3277 30.9454C47.7733 28.0819 50.3696 25.3499 53.0879 22.7444C54.4706 21.4191 53.8758 22.0121 55.0817 20.866C55.4225 20.5422 56.4782 19.6436 56.0524 19.8429C55.7189 19.999 55.4689 20.2929 55.1919 20.5355C54.0631 21.5237 52.9711 22.5546 51.8653 23.5682C49.3909 25.8365 46.9228 28.1174 44.4042 30.3367C43.6323 31.0169 42.8517 31.706 42.0326 32.3306C41.8081 32.5018 41.4652 32.7184 41.7807 32.2466C43.0858 30.2951 44.8439 28.549 46.419 26.8213C48.5531 24.4804 50.7768 22.2258 53.0092 19.9793C53.5811 19.4038 55.3818 17.8577 54.6305 18.1639C54.4268 18.2468 53.8125 18.7773 53.8119 18.7777C52.3594 19.9785 50.9423 21.2243 49.5252 22.4663C47.015 24.6664 44.5528 26.9238 41.9276 28.9883C41.9271 28.9887 39.1266 31.2675 39.7974 30.0849C41.2339 27.5523 43.5353 25.3522 45.59 23.3321C47.8844 21.0763 50.3586 19.0272 52.7206 16.8469C53.7059 15.9374 50.6365 18.5346 49.5882 19.3706C47.0878 21.3646 44.6267 23.4187 42.0588 25.3259C41.6319 25.643 40.9799 26.1203 40.4952 26.4225C40.0484 26.7012 39.9547 26.638 40.3011 26.1917C41.7781 24.2884 43.6518 22.6412 45.3696 20.9657C46.3612 19.9986 47.3375 19.0514 48.3342 18.0904C48.9532 17.4935 50.8292 15.7525 50.1024 16.212C49.3483 16.6887 46.8342 18.6503 46.524 18.8774C45.6755 19.4987 44.8472 20.1535 43.9477 20.6981C42.7857 21.4017 42.3057 22.0157 41.9224 20.7978C41.6995 20.0893 42.199 19.4584 40.9622 20.0527C39.445 20.7818 38.3214 22.1283 36.9431 23.054C36.9128 23.0743 36.832 23.0201 36.8539 22.991C37.421 22.2348 40.2176 19.2301 40.2958 19.145C42.0014 17.2903 43.8461 15.4834 45.4536 13.5361C45.5287 13.4451 45.6924 13.2083 45.4116 13.3262C44.5164 13.702 43.6407 14.36 42.8406 14.8845C40.4397 16.4586 38.1153 18.1464 35.7258 19.7379C35.3506 19.9878 33.8973 20.9493 33.4276 21.2281C32.6311 21.7008 32.2953 21.7729 33.2545 20.7663C34.4247 19.5384 36.4448 17.6499 37.5674 16.5898C38.3924 15.8108 39.2231 15.0378 40.0492 14.2601C40.5914 13.7498 42.315 12.3626 41.6548 12.707C41.2179 12.935 40.8902 13.329 40.5005 13.6305C39.3395 14.5288 38.138 15.3727 36.9378 16.2172C36.2738 16.6845 35.1661 17.4654 34.4508 17.9382C34.0592 18.197 33.1347 18.951 33.7214 18.0064C33.952 17.6353 34.5156 16.9436 34.1202 16.7577C33.8493 16.6303 33.5194 16.7575 33.223 16.7997C32.8244 16.8563 31.8018 17.1876 32.0162 16.8469C32.2072 16.5433 32.5205 16.3361 32.7875 16.0966C33.5997 15.3679 34.4499 14.6824 35.264 13.9558C35.8704 13.4147 36.6201 12.8361 37.1267 12.1823C37.7029 11.4389 35.5242 13.1723 34.7708 13.7354C33.0844 14.9959 31.4226 16.2891 29.7285 17.5395C29.5183 17.6946 28.2938 18.4956 28.3066 18.4787C29.0549 17.4855 30.0459 16.6666 30.8776 15.745C30.8941 15.7267 32.3495 14.0355 31.8116 14.2391C30.2972 14.8125 28.9045 16.247 27.698 17.2614C27.0257 17.8266 26.2801 18.4706 25.6202 19.0611C25.3166 19.3327 24.543 19.8822 24.3819 20.3361C24.1093 21.1042 25.747 19.432 26.3443 18.8774" stroke="#C9D5FF" stroke-linecap="round"/>
<path d="M17.7503 25.4885C16.8026 26.1012 16.8704 25.8343 17.5929 24.8693C18.5183 23.6335 19.5746 22.4836 20.7096 21.4378C20.7488 21.4018 21.8321 20.3299 22.0738 20.399C22.3025 20.4643 21.8104 20.7968 21.654 20.9761C21.2834 21.4012 20.2172 22.5762 19.933 22.8912C18.7658 24.1851 17.5944 25.4763 16.4491 26.7897C15.7492 27.5923 14.9493 28.4176 14.4133 29.3502C13.7344 30.5315 16.5422 27.6442 17.53 26.7058C19.3288 24.9969 21.105 23.2371 22.9658 21.5953C23.3518 21.2547 22.2609 22.3457 21.9111 22.7233C19.9181 24.8754 17.9095 27.0208 16.0031 29.2505C15.9728 29.2859 15.0929 30.1833 15.1164 30.5045C15.1484 30.9429 15.8907 30.0735 16.2182 29.7805C18.529 27.7134 20.6637 25.457 23.013 23.4317C23.1738 23.2931 23.3362 23.1563 23.501 23.0224C23.6237 22.9227 23.7943 22.623 23.8892 22.7496C23.9193 22.7897 23.844 22.8394 23.8158 22.8807C23.6568 23.1136 23.3278 23.5206 23.1809 23.6993C21.369 25.9035 19.3607 27.9343 17.5824 30.1687C17.2125 30.6335 16.7979 31.1124 16.4858 31.6221C16.4429 31.6923 16.3956 31.8892 16.4753 31.8687C16.736 31.8017 17.1574 31.4244 17.2886 31.3126C19.281 29.6141 21.0435 27.6523 22.9973 25.9082C23.3232 25.6173 23.5983 25.3769 23.1442 25.9764C22.0647 27.4014 20.9291 28.7878 19.7756 30.153C18.8367 31.2643 17.8676 32.3499 16.9318 33.4638C16.5665 33.8986 15.8162 34.6002 15.6725 35.1953C15.5745 35.6015 16.3849 34.7505 16.6957 34.4712C18.285 33.0428 19.7873 31.5217 21.3287 30.0428C22.2437 29.165 23.1776 28.3068 24.1411 27.4823C24.5458 27.136 25.7212 26.1291 25.4738 26.6008C25.1232 27.2693 24.4215 27.9417 23.9522 28.5002C22.8959 29.7574 21.8051 30.9815 20.7096 32.2045C19.5683 33.4787 18.4295 34.7538 17.3201 36.0558C16.8308 36.63 16.2512 37.2132 15.8299 37.845C15.7255 38.0016 16.1589 37.6575 16.3022 37.5354C17.3751 36.6219 18.3963 35.65 19.4188 34.6811C20.446 33.7079 21.4686 32.7305 22.5355 31.8005C22.9321 31.4549 24.0893 30.396 23.7633 30.8089C22.3258 32.6297 20.5838 34.2603 19.0096 35.9614C18.1797 36.8581 17.3574 37.7614 16.575 38.7003C16.2887 39.0438 15.4012 39.9076 15.8404 39.8231C16.2693 39.7406 16.8867 39.0555 17.1522 38.8157C18.5539 37.5495 19.8994 36.2226 21.3182 34.9749C22.054 34.328 22.8082 33.6978 23.6059 33.128C24.61 32.4108 23.7892 33.2954 23.5324 33.6002C21.9521 35.4769 20.303 37.2903 18.6633 39.1148C18.0972 39.7446 17.5138 40.3665 16.9738 41.0194C16.2963 41.8384 17.0826 41.2164 17.3935 40.9564C18.3413 40.1639 19.2657 39.3406 20.1954 38.5271C21.2407 37.6125 22.2538 36.5338 23.4118 35.7567C23.9076 35.424 23.7446 35.8084 23.5744 36.0978C22.9666 37.131 22.1414 38.0538 21.3812 38.9731C20.5998 39.9181 19.8041 40.8516 19.0411 41.8117C18.5733 42.4003 17.8346 43.1387 17.5562 43.858C17.4383 44.1625 18.1328 43.5414 18.38 43.328C19.9586 41.9652 21.4341 40.4815 22.9763 39.078C23.8489 38.2839 24.7245 37.467 25.6627 36.7484C26.4016 36.1824 26.0816 36.6852 25.7676 37.0737C23.85 39.4468 21.8959 41.7836 20.017 44.1885" stroke="#C9D5FF" stroke-linecap="round"/>
<path d="M18.6947 50.233C18.5846 50.4532 18.6872 50.246 19.146 49.7083C19.8898 48.8366 20.5868 48.0172 21.3392 47.1478C21.918 46.4789 23.6898 44.5033 23.1022 45.1644C21.5265 46.9371 20.0834 48.8571 18.6108 50.7157C18.5844 50.749 17.1387 52.4395 17.7608 52.2583C18.7576 51.968 18.0179 53.0466 18.2435 53.57C18.4332 54.0103 20.9416 51.2453 21.0873 51.0935C22.2077 49.9267 23.345 48.7755 24.5083 47.6515C24.6509 47.5137 25.1692 47.0209 25.3688 46.8435C25.4515 46.77 25.5726 46.5682 25.6417 46.6546C25.7975 46.8494 24.4039 48.3392 24.3824 48.3651C22.437 50.7039 21.386 51.9973 19.5688 54.4379C19.3838 54.6864 18.9784 55.4087 19.275 55.3194C20.2912 55.0136 20.3222 55.0116 21.1083 54.3676C22.7214 53.0461 24.2392 51.6095 25.7361 50.1595C26.6095 49.3135 27.4318 48.3195 28.3963 47.5728C28.7631 47.2888 27.8655 48.3351 27.5673 48.6904C26.4172 50.0609 25.2366 51.4054 24.0886 52.7777C23.0337 54.0387 21.9749 55.2987 20.9404 56.5765C20.6634 56.9187 20.4204 57.2204 20.1744 57.5787C20.1 57.687 19.8768 57.9571 20.0065 57.9355C20.2539 57.8942 20.4166 57.6449 20.6046 57.479C21.1718 56.9785 21.6152 56.5458 22.1682 56.0046C23.7367 54.4695 25.2807 52.9119 26.88 51.4083C27.9101 50.4398 28.9868 49.2123 30.2065 48.4648C31.4911 47.6774 28.7975 51.1393 27.9189 52.3632C26.7384 54.0077 25.072 56.2738 23.8787 57.9355C23.4747 58.4981 22.156 60.067 22.7139 59.6565C23.1454 59.339 23.4162 58.8473 23.7633 58.4392C24.3966 57.6947 24.8974 57.1015 25.5472 56.3614C26.7578 54.9826 28.0108 53.6426 29.2726 52.3108C29.5116 52.0584 30.1307 51.4028 30.4269 51.125C30.5373 51.0214 30.8126 50.722 30.8047 50.8731C30.7908 51.1367 30.5392 51.3305 30.3849 51.5447C30.063 51.9917 29.5387 52.6735 29.2096 53.0873C28.0026 54.6048 26.7316 56.07 25.5263 57.5892C24.6716 58.6663 23.8397 59.7633 23.0287 60.8738C22.3499 61.8033 23.2246 61.1262 23.6216 60.7741C26.4597 58.2565 28.9568 55.3552 31.7176 52.7515C32.1435 52.3498 33.302 51.0791 33.0504 51.6077C32.6448 52.4593 31.6549 53.3288 31.067 54.0265C28.6327 56.9156 26.9352 58.7617 24.9049 61.962C24.5437 62.5315 24.5244 62.812 25.2145 62.3031C26.9338 61.0353 27.3649 60.3095 28.8318 58.775C30.3769 57.1587 31.9098 55.5291 33.4911 53.9478C33.6936 53.7453 34.1884 53.2566 34.4355 53.0453C34.5332 52.9619 34.7805 52.7283 34.7713 52.8564C34.7524 53.1222 34.5184 53.3261 34.3726 53.549C34.0231 54.0836 33.5205 54.8091 33.1658 55.312C32.0377 56.9114 30.8856 58.491 29.7973 60.1182C28.9518 61.3822 28.0826 62.6502 27.3417 63.9799C27.191 64.2505 26.8622 64.9945 27.4886 64.4732C28.7235 63.4455 29.7454 62.0576 30.8047 60.8633C32.4082 59.0554 33.9832 57.2044 35.7368 55.5376C35.9935 55.2936 36.6889 54.6224 36.1408 55.4694C35.3688 56.6626 34.4763 57.7824 33.6433 58.9324C32.3352 60.7381 31.048 62.5605 29.8182 64.4207C29.5374 64.8455 28.7055 66.0405 29.1519 65.7954C30.3358 65.1454 31.3615 63.866 32.2895 62.9253C33.8409 61.353 35.3683 59.7566 36.9121 58.1768C37.547 57.5272 38.2197 56.8869 38.7852 56.1725C39.4065 55.3878 37.5156 57.72 36.8911 58.5021C35.0445 60.8149 33.1524 63.1379 31.5287 65.617C31.4029 65.8091 31.0838 66.362 31.6127 66.0053C32.6645 65.2959 33.5535 64.2674 34.4355 63.3713C35.6622 62.125 36.8667 60.8565 38.1084 59.625C38.4477 59.2885 39.3676 58.3088 39.2627 58.775C39.0737 59.6152 38.2189 60.5545 37.7516 61.2306C36.5415 62.981 35.328 64.7264 34.1417 66.4932C33.9721 66.7458 33.0512 67.7942 33.1605 68.188C33.198 68.3227 33.417 68.065 33.5173 67.9676C33.8436 67.6509 34.4206 67.0064 34.6769 66.7241C37.0316 64.131 39.3267 61.4992 41.6081 58.8432C42.2257 58.1242 41.751 58.8127 41.5609 59.0793C40.7323 60.2416 39.883 61.39 39.0266 62.5318C37.9702 63.9404 36.8974 65.336 35.8627 66.7608C35.5327 67.2153 34.7292 68.0236 34.6139 68.6287C34.5156 69.1452 35.3943 67.9225 35.7578 67.5426C37.0831 66.1575 38.377 64.7466 39.6562 63.3188C40.9132 61.9159 42.1771 60.5194 43.4393 59.1213C43.7237 58.8062 44.1058 58.3756 44.4152 58.0562C44.5291 57.9386 44.6489 57.6493 44.7877 57.7361C44.9141 57.815 40.5159 63.7995 40.2124 64.2161C39.415 65.3106 38.5529 66.3885 37.8408 67.5426C36.9987 68.9074 38.7432 67.3247 38.9689 67.1071C42.035 64.1501 44.7759 60.8695 47.9516 58.0194C48.3068 57.7007 49.2889 56.8859 49.2214 57.3583C49.0903 58.2759 48.2793 59.2785 47.8047 60.0238C46.765 61.6564 45.6508 63.2357 44.5097 64.7985C43.8932 65.6428 43.1692 66.4839 42.6732 67.4114C42.3495 68.017 43.7932 66.6063 44.2788 66.1207C45.3576 65.0419 46.8368 63.5068 47.8782 62.4164C48.3703 61.901 48.8587 61.382 49.3473 60.8633C49.701 60.4877 50.6219 59.3051 50.4702 59.7981C50.187 60.7186 49.5433 61.4878 49.1322 62.3586C48.9255 62.7966 48.6434 63.2256 48.5918 63.7071C48.5771 63.8441 48.8431 63.9299 48.9695 63.875C49.4614 63.6616 50.8886 62.2975 51.1995 62.0176C51.6894 61.5765 52.2733 61.0484 52.7946 60.6219C52.8139 60.6061 53.9663 59.6223 53.6393 60.3963C53.1308 61.5998 52.0664 62.689 51.2362 63.6651C50.1094 64.99 48.9235 66.2656 47.7208 67.5216C47.5664 67.6829 46.7979 68.6812 46.4773 68.6812C46.3355 68.6812 46.6315 68.4424 46.7239 68.3349C47.0872 67.9119 47.6439 67.3052 47.9884 66.9287C49.732 65.0229 51.4927 63.1326 53.2406 61.2306C53.7935 60.6288 54.3989 59.7039 55.0875 59.2367C55.2611 59.1189 54.8443 59.5794 54.7097 59.7404C54.2903 60.2422 53.6469 60.9724 53.2406 61.4404C50.6737 64.3972 49.2201 66.4344 46.8214 69.5281C46.7069 69.6758 46.5927 69.8237 46.4751 69.9689C46.4283 70.0266 46.3901 70.178 46.3282 70.1368C46.2668 70.0958 46.4027 70.0093 46.4436 69.9479C46.5566 69.7783 46.6714 69.6099 46.7899 69.4442C48.0731 67.649 48.477 66.9474 49.872 65.2392C51.5587 63.1739 53.2289 61.0971 54.8566 58.9849C55.4717 58.1866 56.4803 56.863 57.0918 56.0256C57.5593 55.3855 58.1661 54.6582 58.4717 53.9058C58.534 53.7527 58.622 53.5363 58.3458 53.6645C58.0028 53.8237 57.4614 54.3333 57.2492 54.525C55.4127 56.1838 53.7002 57.9868 52.0338 59.8139C48.5491 63.6344 46.3254 66.7111 42.755 70.4516C40.1777 73.1516 46.604 65.7752 49.0692 62.9725C51.3659 60.3615 53.701 57.7813 55.9375 55.1179C56.5916 54.3389 57.0744 53.7499 57.669 52.9509C57.9626 52.5562 58.6979 51.7462 58.7393 51.1774C58.75 51.0309 58.4264 51.0944 58.2986 51.1669C57.8753 51.4072 57.0483 52.0816 56.7455 52.3422C54.5146 54.263 52.5299 56.451 50.5331 58.6071C48.3264 60.9899 46.1102 63.3659 43.943 65.7849C43.2455 66.5634 42.5385 67.6417 41.6973 68.2929C41.1206 68.7394 42.5958 67.1437 43.0615 66.5824C45.1465 64.0696 47.2739 61.5946 49.4418 59.1528C51.6202 56.6991 53.8254 54.2694 56.0634 51.87C56.6719 51.2177 58.5608 49.3444 57.8369 49.8657C56.6155 50.7451 55.5092 52.1085 54.4578 53.1503C51.7287 55.8546 49.042 58.599 46.3776 61.367C44.6097 63.2036 42.8249 65.0289 41.1359 66.9392C40.7926 67.3275 40.4647 67.7293 40.118 68.1145C40.084 68.1522 39.9806 68.2623 40.0078 68.2195C40.0921 68.0866 40.1937 67.9653 40.2911 67.8417C44.4412 62.576 49.0157 57.6547 53.1881 52.4052C54.3384 50.958 55.4094 49.5943 56.4517 48.0765C56.9116 47.4068 57.7815 46.251 57.8421 45.3166C57.906 44.3312 57.3903 43.9559 56.5881 43.5379C56.2006 43.336 55.7748 43.2092 55.3498 43.1076C53.1083 42.572 55.3319 43.2375 53.6393 43.0552" stroke="#C9D5FF" stroke-linecap="round"/>
<path d="M57.2283 33.4218C57.3673 33.2631 59.1819 31.212 59.5579 30.7249C60.2884 29.7785 57.9108 32.4587 57.1181 33.3536C55.4375 35.2506 53.7335 37.1282 52.0653 39.036C51.9746 39.1397 51.1136 40.2463 51.1995 40.2113C51.6474 40.0289 52.1468 39.5192 52.485 39.2249C53.7674 38.1089 54.9815 36.9204 56.1894 35.7252C58.4219 33.516 60.6438 31.2982 62.9264 29.1403C63.3913 28.7008 63.8542 28.2538 64.3326 27.8286C64.3698 27.7955 64.4373 27.6856 64.4481 27.7341C64.4971 27.9549 64.1675 28.0892 64.0178 28.2588C60.0222 32.7858 55.5766 36.9238 51.4147 41.2974C51.3457 41.37 50.8749 41.8673 50.7011 42.0163C50.4896 42.1975 51.0072 41.5496 51.1838 41.3342C53.1047 38.9907 55.1669 36.7405 57.2912 34.5814C59.5108 32.3254 61.8548 30.1378 64.3746 28.2168C64.6831 27.9816 65.5156 27.3178 65.4135 27.6921C65.2368 28.3398 64.3705 29.1156 63.9548 29.56C61.547 32.1349 58.8449 34.4577 56.1894 36.7693C54.8499 37.9353 53.4918 39.0782 52.1073 40.1903C51.5486 40.6391 50.915 41.2676 50.2498 41.5755C49.9845 41.6984 50.0605 41.5242 50.1344 41.3499C50.4565 40.5908 50.9994 39.8719 51.4357 39.1829C53.1257 36.5134 54.7371 33.8146 56.2838 31.0607" stroke="#C9D5FF" stroke-linecap="round"/>
<path d="M53.6385 23.8831C52.7656 24.6032 51.9288 25.5418 51.1567 26.3387C50.2367 27.288 47.4576 30.0844 48.528 29.3084C49.2215 28.8056 49.806 28.0738 50.3906 27.4562C51.6187 26.1588 52.8605 24.8759 54.1107 23.5998C54.9088 22.7851 55.7046 21.9684 56.4928 21.1442C56.7083 20.9188 56.9415 20.7082 57.1329 20.4621C57.1857 20.3942 56.9716 20.5268 56.9021 20.5775C54.5094 22.3225 52.4015 24.4101 50.144 26.3177C49.6176 26.7625 49.0916 27.2134 48.5542 27.6451C48.1825 27.9437 48.0588 27.9187 48.4283 27.4982C50.6074 25.0185 53.0959 22.8096 55.4277 20.4778C55.943 19.9625 56.4808 19.4425 56.944 18.8775C56.9796 18.8341 57.0035 18.6823 56.9545 18.7096C56.6822 18.8618 56.0092 19.3781 55.8422 19.5071C53.2593 21.503 50.7682 23.6132 48.2236 25.6566C47.8554 25.9522 47.4411 26.3607 47.0168 26.5905C46.3877 26.9313 47.959 25.5119 48.465 25.0059C50.4652 23.0057 52.6096 21.1397 54.5567 19.0874C55.3648 18.2356 52.6329 20.4351 51.6971 21.1442C50.3441 22.1694 49.0487 23.2634 47.7409 24.3448C47.4829 24.5582 46.8802 25.0583 46.5656 25.2893C46.4407 25.381 46.2068 25.6561 46.1563 25.5096C46.1334 25.443 46.2037 25.3758 46.2403 25.3155C46.4616 24.9507 46.9259 24.3661 47.148 24.0877C48.4209 22.492 49.788 20.9744 51.0832 19.397C52.1412 18.1084 53.187 16.8022 54.1789 15.4618C54.4812 15.0532 55.2815 13.9265 54.7928 14.0661C53.9553 14.3054 53.0784 15.08 52.4212 15.5824C50.3124 17.1948 48.3178 18.9607 46.3452 20.7349C44.6297 22.2779 39.6137 27.0467 41.2452 25.4152C43.2131 23.4473 45.3039 21.5867 47.3684 19.7223C48.7903 18.4382 50.2356 17.1812 51.6761 15.9182C51.8506 15.7653 52.573 15.1333 52.8147 14.9108C52.8884 14.843 52.9801 14.7879 53.0298 14.701C53.0539 14.6588 52.9392 14.7373 52.8986 14.7639C50.3321 16.4454 47.9417 18.5397 45.6002 20.5146C44.1461 21.7409 42.7388 23.0161 41.3292 24.2923C41.2323 24.38 40.1903 25.3353 40.9199 24.5127C43.2088 21.9323 45.5841 19.4255 47.998 16.9624C48.7951 16.149 49.7456 15.34 50.4273 14.4176C50.6828 14.0721 49.5881 14.6536 49.2258 14.8846C46.3604 16.7118 43.7716 19.0936 41.2662 21.3751C40.1936 22.3518 39.1359 23.3527 38.118 24.3868C38.0615 24.4442 37.9136 24.6292 37.9816 24.5862C38.1843 24.458 38.6606 24.0667 38.7896 23.9565C41.637 21.5264 44.3317 18.9145 47.169 16.4692C48.4863 15.3339 49.8334 14.2286 51.1252 13.0639C51.1941 13.0018 51.397 12.8139 51.3193 12.8645C51.0705 13.0268 50.8372 13.2117 50.5952 13.384C46.9961 15.9461 43.5224 18.6554 40.0909 21.438C38.5517 22.6861 37.0284 23.9556 35.4736 25.1843C35.3795 25.2587 33.9369 26.4113 34.7915 25.3942C37.605 22.0455 40.9661 19.0664 44.2202 16.1596C44.6308 15.7928 45.645 14.8878 46.1721 14.4648C46.3145 14.3506 47.0661 14.0008 45.8205 14.7482C45.0276 15.2239 43.8859 15.7338 43.8162 14.4439C43.7801 13.7765 42.9869 14.5944 42.7458 14.7744C40.7899 16.2354 38.9234 17.8267 37.0162 19.3497C33.8828 21.8519 30.7558 24.3592 27.3828 26.5275" stroke="#C9D5FF" stroke-linecap="round"/>
<path d="M34.0889 15.6663C34.1 15.656 34.7648 15.0198 34.3827 15.5718C33.3913 17.0038 32.0375 18.2327 30.8095 19.4545C30.0535 20.2068 29.2929 20.9581 28.5166 21.6897C28.3452 21.8513 28.1911 22.044 27.9814 22.1515C27.9074 22.1894 28.0283 21.9888 28.0759 21.9206C29.708 19.5832 31.9836 17.6117 34.0469 15.6715C34.9114 14.8585 35.8701 13.7595 36.9379 13.1845C37.754 12.7451 35.7402 14.6009 35.0963 15.2675C31.5193 18.9702 27.8155 22.5465 24.3086 26.3175C22.9019 27.8301 18.7945 32.4525 20.3209 31.0608C21.0348 30.4098 21.6623 29.5781 22.3042 28.8675C24.3494 26.6036 26.4251 24.3641 28.5586 22.1829C30.7222 19.971 32.9457 17.8195 35.2747 15.7817C36.1936 14.9776 36.1025 15.0856 36.9012 14.3965C36.9903 14.3196 37.0857 14.2486 37.1636 14.1604C37.19 14.1305 37.0904 14.1939 37.0586 14.2181C32.9359 17.3592 29.0366 20.9021 25.2058 24.3867C23.483 25.9537 21.7859 27.5478 20.0481 29.0984C19.322 29.7462 17.8699 31.0219 17.0888 31.6904C16.6692 32.0495 16.3114 32.5255 15.798 32.7293C15.7404 32.7522 15.8309 32.6071 15.8663 32.5561C16.1631 32.1287 17.0073 31.1739 17.2357 30.9138C19.1586 28.7244 21.1747 26.6251 23.3221 24.6543C26.0021 22.1947 28.792 19.7958 31.7435 17.6653C32.1282 17.3877 33.0259 16.7185 33.6166 16.5372C34.0827 16.3942 33.8491 16.7587 33.7268 16.9727C32.9858 18.2695 31.8753 19.4609 30.9197 20.5879C28.172 23.8284 25.2831 26.9491 22.4407 30.1058C20.8827 31.836 19.3269 33.5674 17.8076 35.3318C17.7633 35.3832 16.0046 37.1545 16.1443 37.4515C16.1638 37.4928 16.2402 37.483 16.2808 37.462C16.6765 37.2576 17.4628 36.5538 17.6764 36.3602C20.0374 34.2202 22.2304 31.8877 24.403 29.5601C28.5935 25.0708 32.708 20.5111 36.9222 16.044" stroke="#C9D5FF" stroke-linecap="round"/>
<path d="M33.2385 25.8662C32.5931 28.9287 30.5495 31.7414 28.957 34.3453C26.8089 37.8574 24.4812 41.2649 22.3668 44.7971C22.129 45.1946 21.3097 46.4839 22.5033 45.7941C24.123 44.858 25.4993 43.3842 26.8372 42.1107C30.6972 38.4366 34.4069 34.6104 38.2441 30.9138C39.3835 29.8161 40.5373 28.6978 41.833 27.7813C42.5315 27.2873 43.6611 26.7049 42.7459 28.1171C41.6902 29.7463 40.3647 31.2231 39.136 32.7187C37.3178 34.932 35.4944 37.1398 33.7317 39.3981C30.8386 43.1046 27.9533 46.903 25.5465 50.9518C25.3093 51.3508 24.622 52.4901 25.0113 52.2373C25.8012 51.7242 26.5468 50.5317 27.0786 49.8394C31.3364 44.2966 35.4148 38.6159 40.2274 33.5267C41.3741 32.3141 42.5619 31.1212 43.7953 29.9955C43.8861 29.9127 44.1291 29.6473 44.0787 29.7594C43.8152 30.3449 43.2363 30.7286 42.8089 31.2076C39.2503 35.1955 35.6328 39.1314 32.1681 43.2021C30.6857 44.9438 29.2155 46.7004 27.7922 48.491C27.1323 49.3211 26.412 50.1817 25.8928 51.1145C25.6658 51.5222 25.5799 51.9621 26.2286 51.6601C27 51.301 27.6361 50.7043 28.2434 50.128C29.5078 48.9283 30.7771 47.4962 31.9425 46.2243C35.6411 42.1879 39.357 38.1159 43.7061 34.7598C44.031 34.5091 44.356 34.2575 44.6978 34.0304C44.9051 33.8927 45.4381 33.5626 45.4114 33.8101C45.3339 34.5282 44.0834 35.7666 43.7219 36.1974C40.3259 40.2441 36.5923 44.1909 32.5984 47.6515C31.3257 48.7542 29.9573 49.8612 28.3903 50.5268C27.8073 50.7744 27.0039 50.9801 26.3545 50.9885C25.0519 51.0054 26.2285 50.8569 25.1162 50.7052" stroke="#C9D5FF" stroke-linecap="round"/>
<path d="M20.2052 40.1274C18.5968 42.014 17.0782 43.9739 15.5564 45.9305C14.1876 47.6905 15.9677 45.3252 16.1965 45.0071C17.0752 43.7855 17.9799 42.5848 18.904 41.3972C19.4194 40.7348 19.5538 40.5704 20.0373 39.9595C20.2051 39.7475 20.7738 39.226 20.5148 39.3037C20.072 39.4365 19.448 40.3524 19.1663 40.6574C18.061 41.8539 16.9819 43.0747 15.9132 44.304C15.6353 44.6236 14.8604 45.6203 15.0632 45.2484C15.7399 44.0079 16.6889 42.8339 17.4873 41.67C18.4297 40.2962 19.4272 38.9612 20.3626 37.5827C20.369 37.5732 21.1781 36.1635 21.1549 36.1712C20.4755 36.3977 19.6239 37.5907 19.1716 38.0654C17.6147 39.6991 16.1452 41.4103 14.6959 43.1392C14.6409 43.2048 13.8464 44.2481 13.9509 44.1676C15.1748 43.2233 16.1868 41.8251 17.1935 40.6731C18.3381 39.3633 19.5297 38.0605 20.5567 36.654C20.6799 36.4853 20.9642 35.96 20.7876 36.0715C19.4776 36.8989 18.3819 38.3226 17.2774 39.3719" stroke="#C9D5FF" stroke-linecap="round"/>
<path d="M16.0506 31.4385C15.8829 31.5965 14.2782 33.1743 15.4262 32.4459C15.5381 32.3749 17.4131 31.1344 17.4306 31.2916C17.4551 31.5122 17.1488 31.9302 17.058 32.0786C16.6307 32.7779 16.1473 33.4415 15.6519 34.0934C14.8562 35.1403 13.8277 36.1216 13.1596 37.2574C12.8651 37.758 14.4958 36.4322 14.5133 36.4178C15.0889 35.9455 15.6499 35.4584 16.1975 34.9539C16.4743 34.699 16.7756 34.3291 17.121 34.1564C17.2814 34.0762 17.0295 34.5096 16.9321 34.6601C16.5149 35.3049 16.0549 35.9222 15.5836 36.528C14.64 37.7412 13.4367 37.9067 12.7031 39.2691C12.2913 40.0339 13.7716 40.0203 13.8469 39.97C14.8655 39.2894 15.8507 38.3161 16.9636 37.7978C17.0835 37.7419 16.9762 38.0761 16.9111 38.1913C16.6582 38.6393 16.3782 39.0738 16.1031 39.5083C15.4303 40.5708 14.5267 41.6858 14.1197 42.8873C13.815 43.7869 15.8758 42.068 15.9457 42.0058C16.8783 41.1768 18.1145 40.214 18.758 39.12C19.6459 37.6107 16.5114 41.9325 16.0506 43.6219" stroke="#C9D5FF" stroke-linecap="round"/>
<path d="M16.0493 48.4385C14.4022 49.994 18.7994 44.8356 20.2521 43.0971C21.1936 41.9703 22.1332 40.8394 23.1117 39.7443C23.6521 39.1394 24.0849 38.6539 24.4549 37.9551" stroke="#C9D5FF" stroke-linecap="round"/>
<path d="M16.4282 47.2107C15.9001 47.5164 17.0008 46.1308 17.3359 45.6208C18.1168 44.4325 18.9166 43.2484 19.8387 42.1631C20.3519 41.559 20.9484 41.0347 21.4337 40.4106" stroke="#C9D5FF" stroke-linecap="round"/>
<path d="M16.6172 48.911C17.2359 48.8316 18.2099 47.7342 18.5271 47.4313C19.6816 46.329 20.7588 45.1688 21.7592 43.9264C21.9069 43.7429 22.4957 43.1956 22.3783 42.9609" stroke="#C9D5FF" stroke-linecap="round"/>
<path d="M16.6172 50.6108C18.6862 48.4887 20.4529 46.0648 22.4518 43.8737C23.0521 43.2156 23.6839 42.5949 24.2672 41.9219" stroke="#C9D5FF" stroke-linecap="round"/>
<path d="M22.2827 57.4107C21.5368 57.5883 22.5119 56.7019 22.6185 56.5712C23.8741 55.0325 25.1947 53.557 26.4907 52.0536C27.9867 50.3184 29.5333 48.5663 30.7827 46.644" stroke="#C9D5FF" stroke-linecap="round"/>
<path d="M23.6055 58.4499C28.0711 54.049 31.975 49.1001 35.9777 44.2832" stroke="#C9D5FF" stroke-linecap="round"/>
<path d="M58.6446 18.6885C56.0026 20.6808 53.2861 22.5739 50.6273 24.5441C49.874 25.1022 49.0874 25.6247 48.4026 26.265C48.3084 26.3532 48.6125 26.1129 48.7279 26.0552" stroke="#C9D5FF" stroke-linecap="round"/>
<path d="M58.8341 18.4053C57.2614 20.0463 55.1251 21.2167 53.8285 23.1275C53.4565 23.6757 54.7084 22.852 54.8674 22.7497" stroke="#C9D5FF" stroke-linecap="round"/>
<path d="M60.0613 19.0664C57.5885 21.3035 54.9855 23.4779 52.7366 25.9504C52.6528 26.0425 52.4177 26.3323 52.5058 26.2442" stroke="#C9D5FF" stroke-linecap="round"/>
<path d="M55.5277 16.7996C53.3535 19.545 51.237 22.3322 49.1055 25.1107" stroke="#C9D5FF" stroke-linecap="round"/>
<path d="M55.3402 16.4219C52.6045 19.2337 49.6164 21.7895 46.9189 24.6438C45.8755 25.7479 46.3074 25.3009 45.7593 26.008C45.6863 26.1022 45.8424 25.7841 45.8958 25.6775" stroke="#C9D5FF" stroke-linecap="round"/>
<path d="M52.1273 15.2886C51.7532 16.3487 50.529 17.4376 49.8187 18.2478C48.7751 19.4383 47.6628 20.5506 46.5446 21.6688C46.2059 22.0075 46.0465 22.2095 46.4396 21.7108C47.1687 20.7861 47.8439 19.8278 48.5384 18.8775" stroke="#C9D5FF" stroke-linecap="round"/>
<path d="M51.7509 15.2886C49.8005 17.304 47.621 19.1068 45.5176 20.9553" stroke="#C9D5FF" stroke-linecap="round"/>
<path d="M50.9957 12.4551C48.9588 13.9178 47.064 15.5934 45.1244 17.1773C44.1083 18.0071 43.0989 18.8457 42.0655 19.6539C2.67684 50.4556 50.5014 13.252 39.7568 21.144" stroke="#C9D5FF" stroke-linecap="round"/>
<path d="M46.462 10.9441C43.9661 13.577 41.2665 16.0194 38.623 18.4997" stroke="#C9D5FF" stroke-linecap="round"/>
<path d="M43.8171 10.3774C40.4351 13.7595 37.213 17.3199 33.9004 20.7664" stroke="#C9D5FF" stroke-linecap="round"/>
<path d="M41.5503 9.99951C37.9907 12.8811 34.6836 16.1284 31.2559 19.1607" stroke="#C9D5FF" stroke-linecap="round"/>
<path d="M40.3221 10.3774C36.394 15.7157 31.1548 20.1248 26.5332 24.8275" stroke="#C9D5FF" stroke-linecap="round"/>
<path d="M23.7168 37.8144C25.0888 37.093 24.0803 37.6488 26.335 36.1949C26.751 35.9266 31.3876 32.8699 32.1517 32.6725C33.5346 32.3152 31.5183 35.5069 30.7886 36.7347C28.8448 40.0059 26.7443 43.0044 25.0664 46.4248C24.9463 46.6696 23.2154 49.9265 25.3228 48.3007C26.2966 47.5494 29.0574 44.5035 29.8034 43.6581C32.4286 40.6832 34.7023 37.4508 37.1452 34.3324C38.0473 33.181 40.6694 29.6866 39.9591 30.9652C39.704 31.4243 39.3051 31.7871 38.9806 32.2001C37.4459 34.1534 35.9466 36.1351 34.4595 38.1248C31.6845 41.8377 28.8313 45.5424 26.389 49.4883C26.1848 49.8183 25.3773 51.195 25.2013 51.7421C25.1729 51.8306 25.1429 52.0073 25.2351 52.0188C25.8347 52.0937 26.1879 51.2685 26.6049 50.8312C32.0081 45.1651 36.8897 39.0524 42.638 33.7116C42.8935 33.4742 44.5557 31.9264 43.4208 33.4417C41.2738 36.3082 38.8201 38.955 36.5716 41.7417C34.8799 43.8384 33.1739 45.9559 31.7064 48.2197C31.6938 48.2391 30.9569 49.3163 30.9708 49.6098C30.9745 49.6861 31.1279 49.7029 31.1935 49.6638C31.7733 49.3181 33.1702 47.8829 33.4473 47.5989C37.7888 43.1494 41.833 38.4229 46.0727 33.8803C46.5296 33.3908 45.3222 34.9907 44.9121 35.5201C42.2009 39.0194 39.4601 42.4936 36.828 46.0536C35.0281 48.4881 33.0472 50.9666 31.6794 53.6855C31.5197 54.003 31.1725 54.8476 31.5107 54.7382C31.7843 54.6497 32.0117 54.45 32.2327 54.2659C33.1931 53.4655 34.8945 51.7189 35.6472 50.9324C39.1154 47.3079 42.4369 43.5475 45.931 39.9467C46.904 38.944 48.494 37.3419 49.5479 36.3298C49.9107 35.9815 50.2797 35.6395 50.6546 35.3042C50.9122 35.0736 51.5765 34.3722 51.5048 34.7103C51.3814 35.2919 50.8645 35.7138 50.5061 36.1881C49.5766 37.4184 48.8094 38.3513 47.8137 39.5823C44.2905 43.9382 40.6318 48.2589 37.5636 52.9568C37.085 53.6894 36.1061 55.2988 37.6985 53.9015C41.0299 50.9783 44.1147 47.7031 47.1524 44.4813C48.6214 42.9233 52.8561 38.091 51.4171 39.6768C48.9295 42.4182 42.1138 51.0919 44.9323 48.6921C45.8828 47.8828 49.4842 44.1306 50.3307 43.3207C51.9232 41.7969 51.3362 42.6232 50.4656 43.8066C47.9915 47.1696 45.3232 50.36 43.0361 53.861C42.7848 54.2458 42.1668 55.1896 41.9025 55.7032C41.6775 56.1403 41.8871 55.9165 42.0509 55.6897C43.3081 53.949 44.0109 51.9116 44.8513 49.9607" stroke="#C9D5FF" stroke-linecap="round"/>
<path d="M48.1327 35.5213C47.1494 35.5213 46.2589 35.9217 45.6152 36.5683L45.5786 36.6028C44.9567 37.2443 44.573 38.1244 44.573 39.0969C44.573 40.0847 44.9716 40.9793 45.6152 41.6259C46.2589 42.2725 47.1494 42.673 48.1327 42.673C49.116 42.673 50.0065 42.2725 50.6502 41.6259C51.2938 40.9793 51.6924 40.0847 51.6924 39.0969C51.6924 38.1072 51.2947 37.2126 50.6529 36.5683C50.0065 35.9217 49.116 35.5213 48.1327 35.5213ZM34.3026 39.6614L38.3946 39.661V36.4597C38.3946 36.2951 38.4447 36.1422 38.5311 36.0154C38.893 35.3926 39.1775 34.7222 39.3682 34.0197C39.5566 33.3279 39.6573 32.5899 39.6573 31.8188C39.6573 29.5177 38.7287 27.4344 37.2289 25.9277L37.1946 25.8908C35.6971 24.4056 33.6377 23.4881 31.3643 23.4881C29.0742 23.4881 27.0004 24.421 25.5006 25.9277L25.4639 25.9622C23.9854 27.4665 23.0722 29.5355 23.0722 31.8188C23.0722 34.1195 24.0008 36.2028 25.5006 37.7095C27.0004 39.2162 29.0742 40.1491 31.3643 40.1491C31.839 40.1491 32.2961 40.1113 32.7318 40.0391C33.1806 39.9645 33.6223 39.8517 34.0511 39.7043C34.1347 39.6759 34.2191 39.6624 34.3026 39.6614ZM39.1807 41.2404H34.4247C33.9625 41.3919 33.4803 41.5113 32.9834 41.5933C32.4478 41.6819 31.9063 41.7285 31.3643 41.7285C28.6417 41.7285 26.1744 40.6185 24.3896 38.8256C22.6049 37.0326 21.5 34.5539 21.5 31.8188C21.5 29.1066 22.5877 26.6465 24.3483 24.8564L24.3896 24.8116C26.1744 23.0187 28.6417 21.9087 31.3643 21.9087C34.0646 21.9087 36.5134 23.0014 38.2953 24.7701L38.3399 24.8116C40.1246 26.6046 41.2295 29.0828 41.2295 31.8188C41.2295 32.7144 41.107 33.5917 40.8782 34.4327C40.6624 35.2248 40.3543 35.9744 39.9668 36.6676V40.4507C39.9668 40.8866 39.6146 41.2404 39.1807 41.2404ZM35.711 29.1103C36.1449 29.1103 36.4971 29.4641 36.4971 29.9C36.4971 30.3359 36.1449 30.6897 35.711 30.6897H27.0194C26.5855 30.6897 26.2333 30.3359 26.2333 29.9C26.2333 29.4641 26.5855 29.1103 27.0194 29.1103H35.711ZM35.711 32.9479C36.1449 32.9479 36.4971 33.3018 36.4971 33.7376C36.4971 34.1735 36.1449 34.5274 35.711 34.5274H27.0194C26.5855 34.5274 26.2333 34.1735 26.2333 33.7376C26.2333 33.3018 26.5855 32.9479 27.0194 32.9479H35.711ZM43.3915 47.2947C42.6365 47.9698 42.0221 48.8005 41.6031 49.7329C41.2012 50.6275 40.9766 51.6219 40.9766 52.668V53.6237H55.2888V52.668C55.2888 51.6214 55.0642 50.627 54.6623 49.7329C54.2433 48.8001 53.6294 47.9693 52.8739 47.2952L52.8382 47.2612C52.4859 46.9591 52.0776 46.7731 51.6544 46.7115C51.2135 46.6472 50.7513 46.7153 50.3123 46.9204C49.6241 47.2421 48.878 47.4038 48.1332 47.4038C47.3888 47.4038 46.6422 47.2421 45.9535 46.9204C45.5145 46.7153 45.0523 46.6472 44.6147 46.7115L44.5911 46.7148C44.16 46.7815 43.7456 46.9773 43.3915 47.2947ZM40.1729 49.0849C40.6847 47.9465 41.4314 46.9344 42.3479 46.1167C42.9386 45.5927 43.6319 45.2678 44.3586 45.1554L44.3874 45.1508C45.1257 45.0421 45.8951 45.1517 46.6162 45.4892C47.0937 45.7121 47.613 45.8244 48.1332 45.8244C48.6534 45.8244 49.1731 45.7121 49.6497 45.4892C50.3708 45.1517 51.1402 45.0421 51.8785 45.1508C52.5959 45.2566 53.2827 45.5689 53.8674 46.0752L53.918 46.1167C54.8345 46.9344 55.5811 47.946 56.0925 49.0849C56.5858 50.1823 56.861 51.3962 56.861 52.668V54.4134C56.861 54.8493 56.5088 55.2031 56.0749 55.2031H40.1905C39.7566 55.2031 39.4044 54.8493 39.4044 54.4134V52.668C39.4044 51.3967 39.6796 50.1828 40.1729 49.0849ZM44.5043 35.4523C45.4329 34.5194 46.7164 33.9418 48.1327 33.9418C49.549 33.9418 50.8325 34.5194 51.7611 35.4523C52.6892 36.3879 53.2646 37.6774 53.2646 39.0969C53.2646 40.5197 52.6897 41.8092 51.7611 42.742C50.8325 43.6748 49.549 44.2524 48.1327 44.2524C46.7164 44.2524 45.4329 43.6748 44.5043 42.742C43.5757 41.8092 43.0008 40.5197 43.0008 39.0969C43.0008 37.6993 43.5586 36.4275 44.463 35.4975L44.5043 35.4523Z" fill="#141C3A" stroke="#141C3A" stroke-width="0.8"/>
</svg>
