<svg width="80" height="80" viewBox="0 0 80 80" fill="none" xmlns="http://www.w3.org/2000/svg">
<path d="M36.6753 18.1452C32.6528 15.0864 26.5299 16.45 22.1256 18.114C17.8858 19.7159 15.3597 22.479 14.2432 26.7753C11.9603 35.5601 13.435 44.9317 17.5457 52.9149C21.3948 60.3899 28.3671 67.5291 36.9868 68.9289C46.9782 70.5514 56.9763 64.8244 62.3008 56.5289C65.6362 51.3325 66.9209 45.4596 67.3169 39.3622C67.631 34.5241 67.3297 29.9898 65.1515 25.6069C61.4178 18.094 53.6733 12.5505 45.5702 10.6367C37.4101 8.70938 28.5497 11.6676 21.9387 16.5095C18.8488 18.7725 16.2332 21.6867 14.4301 25.0773C12.3817 28.9292 12.188 32.7013 12 36.932" stroke="#FFA7BC" stroke-width="3" stroke-linecap="round"/>
<path d="M15.3619 26.1888C15.0132 26.8208 16.6064 25.4474 17.1668 24.9925C19.3666 23.2073 21.4873 21.3274 23.673 19.5252C27.3021 16.5329 31.0112 13.6353 34.4607 10.4323C34.5946 10.3079 35.1414 9.79881 35.3474 9.59276C35.4325 9.50771 35.162 9.74626 35.0746 9.82887C34.0175 10.8279 33.9052 10.9692 32.6033 12.4471C29.7358 15.7021 26.8264 19.1606 24.0718 22.4845C22.6537 24.1956 21.2318 25.9043 19.8532 27.6475C19.3003 28.3466 18.6717 29.0089 18.2792 29.8092C17.7473 30.8936 20.1369 28.2633 21.0233 27.4428C24.0076 24.6808 27.0754 22.0233 30.2422 19.4727C33.3852 16.9414 36.6698 14.6064 39.8336 12.106C39.837 12.1034 40.3833 11.6686 40.4632 11.6023C40.5305 11.5465 40.3215 11.7049 40.2533 11.7597C38.2649 13.3588 36.3007 14.9934 34.3872 16.6814C29.233 21.2283 24.7317 26.3116 20.3674 31.6036C19.2864 32.9145 18.1761 34.2128 17.2088 35.6123C16.8488 36.1331 16.4896 36.8178 17.4029 35.9848C22.0906 31.7097 26.3335 26.9346 30.919 22.5474C33.2918 20.2773 35.7004 18.0441 38.1073 15.8104C39.6138 14.4123 41.1782 13.0532 42.583 11.5499C44.7748 9.20416 37.8002 15.8445 35.594 18.1767C30.3458 23.7249 25.4138 29.6261 20.6718 35.6123C19.7652 36.7568 18.8719 37.9174 18.0693 39.1382C17.7806 39.5773 17.4703 40.0678 18.1532 39.2956C23.2174 33.5699 28.0872 27.7218 33.6369 22.4425C36.0039 20.1909 38.4386 18.0074 40.8934 15.8523C41.9962 14.8843 43.0914 13.8104 44.283 12.9455C44.8435 12.5387 43.3194 13.9409 42.8243 14.4252C39.826 17.3585 36.8377 20.3039 34.02 23.4132C28.6377 29.3522 23.5021 35.519 18.8039 42.0136C18.4408 42.5155 17.2773 43.7009 17.1878 44.4167C17.1676 44.5781 17.4713 44.2479 17.5813 44.1281C18.6826 42.9289 19.6685 41.6121 20.7137 40.366C26.3014 33.7048 32.1682 27.2327 38.3854 21.1518C40.3642 19.2164 46.3327 13.4443 44.3092 15.3329C43.0623 16.4967 41.9089 17.7865 40.7308 19.0162C37.3872 22.5064 34.1188 26.0575 30.982 29.7357C26.2863 35.242 21.5665 40.937 17.9853 47.2605C17.9199 47.376 17.7594 47.7255 17.8594 47.6383C18.1268 47.4051 18.9025 46.3825 18.9613 46.3055C21.892 42.4653 24.6935 38.5348 27.8706 34.8882C31.1366 31.1395 34.5935 27.5423 38.0549 23.9746C40.3585 21.6001 42.6793 19.1852 45.1644 16.9962C45.2914 16.8843 45.7002 16.6043 45.6052 16.7443C45.3639 17.0998 44.2857 18.3095 44.157 18.4548C41.4838 21.475 38.7915 24.4756 36.1712 27.5425C30.9346 33.6716 25.6324 39.9609 21.5113 46.9194C21.3595 47.1758 20.799 48.0894 21.5637 47.229C24.3735 44.068 26.8264 40.5807 29.5496 37.3438C35.217 30.6073 41.423 24.3196 47.6672 18.119C47.9043 17.8836 48.3236 17.4737 48.6064 17.2166C48.7874 17.052 48.791 17.058 48.6117 17.269C47.1582 18.979 45.5941 20.6014 44.0993 22.2746C37.489 29.674 31.1612 37.3549 25.4989 45.508C24.7861 46.5344 23.8705 47.6016 23.3267 48.7401C23.2606 48.8785 23.5554 48.5339 23.652 48.4148C24.6864 47.1409 25.6393 45.8006 26.6113 44.4796C31.8793 37.3201 37.5227 30.4497 42.7509 23.261" stroke="#FFA7BC" stroke-linecap="round"/>
<path d="M23.5781 41.8667C23.6079 41.8597 23.644 41.8655 23.6673 41.8457C24.0372 41.5328 25.0104 40.4606 25.1365 40.3241C26.6411 38.6946 28.118 37.0395 29.5911 35.3815C32.2405 32.3998 34.8891 29.4262 37.6714 26.5667C38.3096 25.9107 38.9449 25.2416 39.6128 24.6148C39.843 24.3987 40.123 24.1833 39.7492 24.6778C37.9419 27.0684 35.7867 29.234 33.8516 31.5198C31.1527 34.7079 28.3258 37.9177 26.0862 41.4575C25.6369 42.1675 25.2163 42.9213 24.9161 43.7084C24.7247 44.2103 24.7826 44.3557 25.2362 43.9235C26.5754 42.6475 27.773 41.173 29.0139 39.8099C32.0293 36.498 35.0835 33.2202 38.2276 30.0296C39.1243 29.1197 40.0324 28.2208 40.9507 27.3327C41.7142 26.5944 43.9514 24.4345 43.4692 25.3809C42.9605 26.3793 42.2498 27.2621 41.5961 28.1722C41.32 28.5567 35.3807 36.4874 34.7751 37.3963C33.3364 39.5557 38.5436 33.8248 40.3263 31.9395C42.3271 29.8237 44.3874 27.767 46.4443 25.7062C47.1432 25.0059 47.8434 24.307 48.543 23.6074C49.0118 23.1386 47.617 24.5563 47.1578 25.0346C43.762 28.5715 40.3904 32.1277 37.1887 35.8432C33.5145 40.1069 29.8164 44.4909 26.9047 49.3279C26.4765 50.0392 25.7404 51.0831 25.6297 51.9566C25.5704 52.4238 26.5262 51.5882 26.8522 51.2482C28.5452 49.4826 30.0312 47.5048 31.5482 45.592C33.5031 43.1271 35.4562 40.664 37.4825 38.2568C40.4126 34.7759 43.3816 31.2278 46.7171 28.1198C46.9259 27.9252 47.7663 27.1527 47.0949 28.0988C46.0292 29.6004 44.7684 30.9897 43.5689 32.3803C39.2465 37.3912 34.89 42.336 30.9343 47.6488C29.7149 49.2867 28.5141 50.9472 27.3926 52.6544C27.1354 53.0461 26.4363 54.2324 26.7892 53.9242C27.8387 53.0077 28.7394 51.751 29.6226 50.6973C31.6949 48.2248 33.7467 45.7354 35.8559 43.2939C39.492 39.085 43.2608 34.9958 47.2208 31.0895C47.7492 30.5683 49.2433 28.9346 48.8316 29.5522C48.3914 30.2125 47.5554 30.9231 47.0424 31.4778C42.9346 35.9201 38.8416 40.4112 35.1948 45.2457C33.5825 47.3833 32.0556 49.5899 30.5985 51.8359C30.1039 52.5983 29.1886 53.7428 28.9405 54.6902C28.8156 55.1672 29.8085 54.1932 30.1473 53.835C31.6462 52.2499 32.9674 50.4993 34.3343 48.8032C38.5053 43.6279 42.7924 38.5481 47.3677 33.7235C48.2802 32.7613 49.2055 31.8011 50.1801 30.9006C51.1203 30.032 50.0412 31.2167 50.0332 31.2259C46.823 34.9122 43.5688 38.5636 40.4628 42.3389C38.2729 45.0007 36.1597 47.7215 34.1245 50.5032C33.0729 51.9404 31.9559 53.4051 31.0603 54.9526C30.9311 55.1757 30.4212 56.1221 31.1862 55.556C32.4124 54.6486 33.4356 53.2834 34.4183 52.1507C38.9911 46.8802 43.4654 41.5411 48.3227 36.5253C50.3136 34.4694 56.3626 28.3766 54.3252 30.3864C50.0309 34.6227 45.8789 39.0102 41.9319 43.572C38.6654 47.3472 35.3691 51.2604 32.7917 55.556C32.6653 55.7668 32.5369 55.9777 32.4349 56.2013C32.3591 56.3677 32.324 56.5923 32.5819 56.3692C33.71 55.3936 34.66 53.9938 35.5779 52.8538C39.6348 47.8149 43.7475 42.8711 48.2335 38.2044C49.8985 36.4722 51.5851 34.7587 53.3177 33.0939C53.7479 32.6805 54.9558 31.4017 54.6767 31.929C54.2445 32.7453 53.2469 33.5963 52.6566 34.2482C50.7385 36.3668 48.8383 38.4985 46.9742 40.6652C42.5316 45.829 38.1023 51.061 34.3186 56.7365C33.7177 57.6378 32.7071 58.8967 32.3615 59.9896C32.1216 60.7482 33.4949 58.8687 33.9985 58.2529C37.902 53.4801 41.5835 48.5412 45.5838 43.8448C48.4696 40.4569 51.3766 37.0196 54.577 33.9176C56.2274 32.318 51.4372 37.2756 49.902 38.9862C45.3414 44.0677 40.9121 49.3438 37.1205 55.0313C36.3639 56.1661 35.3879 57.445 34.88 58.7409C34.8455 58.829 34.7905 58.9588 34.859 59.0242C35.1279 59.2808 35.5035 58.6411 35.772 58.3841C39.531 54.7855 42.7184 50.5625 46.1504 46.6624C49.2762 43.1104 52.5095 39.6621 55.789 36.2525C55.9477 36.0876 56.104 35.9204 56.2665 35.7593C56.2966 35.7295 56.3825 35.6415 56.3662 35.6806C56.3335 35.7591 56.2681 35.8196 56.2141 35.8852C55.2776 37.0234 54.2798 38.1164 53.3125 39.2275C49.2764 43.8639 45.2532 48.5391 41.5541 53.452C40.4948 54.8588 39.4762 56.2989 38.5319 57.7859C38.2493 58.231 37.401 59.5106 37.8288 59.2026C38.789 58.5112 39.644 57.2456 40.3998 56.3797C42.3535 54.1417 44.3064 51.9033 46.2764 49.6794C49.2387 46.3352 52.1513 42.8501 55.4165 39.7889C57.1561 38.1581 52.3588 43.4487 50.8097 45.2615C47.295 49.3745 43.76 53.4953 40.5362 57.8436C39.9642 58.6151 39.4078 59.4015 38.8887 60.21C38.7918 60.3608 38.3159 61.0436 38.9202 60.4461C40.15 59.2301 41.2762 57.8906 42.4356 56.6106C44.6752 54.138 46.9203 51.6702 49.1989 49.2334C51.0674 47.2352 52.9649 45.2672 54.8918 43.3254C55.5892 42.6226 56.3104 41.7716 57.0903 41.1426C57.5215 40.7949 56.4168 42.023 56.0566 42.4439C54.5975 44.1492 53.1136 45.8332 51.6545 47.5387C48.2804 51.4825 44.779 55.3991 41.7797 59.6433C41.6848 59.7776 40.4269 61.326 40.5257 61.7211C40.5436 61.7925 40.6636 61.6636 40.7199 61.6162C41.0484 61.3389 41.8614 60.452 42.0368 60.2625C45.7847 56.2123 49.398 52.0499 53.2338 48.0791C54.9364 46.3165 56.6561 44.5677 58.4073 42.8531C58.6442 42.6212 58.8832 42.3915 59.1261 42.1658C59.2141 42.084 59.6527 41.656 59.3412 42.0556C56.7792 45.3428 53.8313 48.3633 51.0983 51.5053C48.7163 54.2438 46.369 57.0145 44.1461 59.8847C43.6143 60.5714 43.0928 61.2663 42.5878 61.973C42.2047 62.509 41.0479 63.9737 41.6538 63.715C42.0168 63.56 42.2933 63.249 42.5825 62.9804C43.6893 61.9525 46.7747 58.7585 47.5776 57.9328C51.6907 53.7033 55.8116 49.4819 59.9394 45.2667" stroke="#FFA7BC" stroke-linecap="round"/>
<path d="M56.9166 51.5003C56.088 52.4437 54.1113 54.6497 53.2542 55.7713C53.0785 56.0013 52.7033 56.2466 52.8082 56.5163C52.8925 56.733 53.2232 56.2986 53.4011 56.1491C53.9165 55.7159 54.3946 55.24 54.8808 54.7744C56.9076 52.8331 58.831 50.779 60.9252 48.9083C61.0834 48.7671 61.3487 48.3238 61.429 48.52C61.4598 48.5953 61.3587 48.6674 61.3135 48.7351C61.0472 49.1347 60.4283 49.9276 60.2012 50.22C57.9605 53.1049 55.6023 55.8965 53.2857 58.7201C51.5784 60.801 49.8102 62.8521 48.1804 64.9954C48.0729 65.1368 47.7599 65.5594 47.8971 65.4466C48.5715 64.8927 49.1558 64.0176 49.6968 63.3583C52.1767 60.3366 54.6972 57.3619 57.3521 54.491C58.584 53.1588 59.8348 51.8428 61.1141 50.5558C61.4988 50.1689 62.617 48.9838 62.2999 49.4277C62.0544 49.7716 61.7421 50.0625 61.4604 50.3774C60.1804 51.809 58.8997 53.2402 57.6407 54.6904C54.8933 57.8547 52.1809 61.062 49.6286 64.3867C49.0935 65.0837 48.4841 65.8909 47.9863 66.6377C47.8369 66.8618 47.519 67.5557 47.745 67.409C48.0516 67.2098 48.6826 66.5537 48.8678 66.3596C50.1644 65.0007 51.4042 63.5854 52.6823 62.2093C55.4478 59.2317 58.2731 56.3158 61.1666 53.4626C65.0155 49.6674 59.9598 54.6593 62.7302 51.92C62.7675 51.8831 63.5106 51.1091 62.8561 51.8571C61.1064 53.8567 59.357 55.8534 57.6512 57.891C55.5432 60.409 53.2975 62.9147 51.4913 65.667C51.4242 65.7691 51.2441 66.0726 51.3443 66.0028C51.9976 65.5478 52.6605 64.6181 53.1545 64.0614C55.5468 61.3659 57.8656 58.6052 60.3376 55.9812C60.9275 55.3549 62.0508 54.2013 62.6777 53.5571C62.8891 53.3399 63.0998 53.1222 63.3126 52.9064C63.3482 52.8703 63.4563 52.7635 63.4228 52.8015C63.2599 52.9864 63.0906 53.1654 62.9243 53.3472C60.9547 55.5 59.0291 57.686 57.1475 59.9164C55.7937 61.5211 54.4045 63.1154 53.144 64.796C53.0731 64.8906 52.8801 65.1813 52.9709 65.1056C53.6317 64.5549 54.2127 63.74 54.7549 63.096C57.0341 60.3883 59.3299 57.6967 61.6283 55.0052C62.7326 53.7121 63.8414 52.4183 64.8919 51.0805C65.0591 50.8676 66.0026 49.884 65.9518 49.4907C65.9229 49.2663 65.5004 49.5842 65.3064 49.7006C64.1681 50.3835 63.1146 51.2371 62.1006 52.0879C59.6915 54.1092 57.4506 56.3327 55.1694 58.4944C54.775 58.8681 54.0455 59.5661 53.59 59.9688C53.4967 60.0514 52.8332 60.6425 53.2857 60.0213C54.8728 57.8421 56.6756 55.7858 58.391 53.7092C60.5096 51.1446 62.7349 48.6492 64.724 45.9805C65.0731 45.5121 66.271 43.8743 64.808 44.8996C62.7106 46.3696 60.9015 48.392 59.1308 50.22C57.1348 52.2807 55.0153 54.3996 53.3067 56.7157C50.173 60.9636 59.8069 48.3968 63.045 44.228C63.6364 43.4666 64.5777 42.2495 65.1753 41.4471C65.6699 40.783 66.3419 40.0279 66.6706 39.2487C66.7835 38.9811 66.6794 38.9829 66.4555 39.0913C65.6835 39.4652 64.9927 40.2499 64.3987 40.828C61.9596 43.2018 59.6441 45.702 57.3626 48.2262C56.1592 49.5576 55.9956 49.7494 54.9018 50.9913C54.5199 51.4249 53.4788 52.7365 53.6425 52.1824C53.7521 51.8115 54.5096 50.6243 54.6079 50.4719C55.581 48.9644 56.6496 47.5154 57.7036 46.0644C60.0786 42.7951 62.5336 39.5902 65.0126 36.3996C65.2281 36.1223 65.4852 35.869 65.6422 35.5548C65.8539 35.1314 64.8756 36.1135 64.5246 36.4311C62.0478 38.6724 59.7005 41.0571 57.3731 43.4515C55.3427 45.5403 53.3924 47.6925 51.4283 49.8422C51.1647 50.1308 50.9455 50.4816 50.6098 50.6818C50.1153 50.9765 51.1891 49.6854 51.5175 49.2126C53.7454 46.005 56.1996 42.9576 58.7215 39.978C60.8088 37.5121 62.9308 35.0395 65.2277 32.7635C65.422 32.571 66.7247 31.3248 65.7314 32.2755C63.1878 34.7104 60.7334 37.2333 58.3228 39.7996C56.6744 41.5544 55.0653 43.3524 53.3697 45.0623C52.9044 45.5314 51.8776 46.4236 52.5406 45.078C53.9042 42.3111 56.0209 39.8516 57.945 37.47C59.741 35.2469 61.5673 32.9686 63.6956 31.0477C63.758 30.9914 64.3077 30.5112 64.4932 30.4391C64.82 30.312 64.2072 31.0877 63.9895 31.3625C61.8872 34.0154 59.5682 36.5148 57.2419 38.9706C55.5179 40.7905 53.7854 42.6253 51.9635 44.3487C51.8061 44.4976 51.6546 44.6548 51.4808 44.7842C51.2779 44.9352 51.1728 44.9056 51.2709 44.6268C51.685 43.4502 52.5523 42.3047 53.2437 41.3002C56.3618 36.7703 60.1492 32.8136 63.8163 28.7391C67.0032 25.1981 57.1355 35.5323 53.7737 38.9076C53.2532 39.4302 52.2221 40.4864 51.591 41.0012C50.2248 42.1154 51.7237 39.9468 51.7431 39.915C51.9919 39.508 52.2694 39.1184 52.5039 38.703C52.6374 38.4665 52.8704 38.2335 52.845 37.9632C52.8268 37.7696 50.8097 39.5339 50.7619 39.5792C50.7533 39.5875 49.0897 41.2269 49.7388 40.1774C50.831 38.4112 52.1374 36.7352 53.3697 35.0721C55.0742 32.7717 56.8006 30.4851 58.6376 28.2878C60.0039 26.6535 61.5726 25.1718 62.8981 23.5079C62.9864 23.397 63.155 23.1743 62.8981 23.382C62.173 23.9682 61.5253 24.7148 60.8833 25.381C58.1476 28.2196 55.4295 31.0771 52.7348 33.9545C52.253 34.469 51.3584 35.437 50.8354 35.9851C50.3997 36.4417 49.8379 37.1777 49.2561 37.491C49.1455 37.5505 49.2744 37.2308 49.34 37.1237C50.0794 35.916 50.9938 34.7835 51.8481 33.6607C53.8799 30.9903 55.989 28.3845 58.2283 25.8847C58.9818 25.0437 61.2362 22.5478 60.6419 23.5079C60.1348 24.327 59.2926 25.0923 58.6586 25.7903C57.2761 27.3123 55.8893 28.8309 54.4978 30.3446C52.6242 32.3827 50.7098 34.3791 48.7524 36.3366C48.4935 36.5955 48.2713 36.9016 47.9653 37.1027C47.4602 37.4347 48.7126 36.152 49.1039 35.6913C53.1027 30.9839 57.3708 26.5226 61.5234 21.9548C64.5657 18.6082 55.1369 28.3614 51.8795 31.499C50.233 33.0849 48.601 34.7883 46.7795 36.1792C46.3183 36.5314 46.4247 36.2474 46.6274 35.8854C47.2565 34.762 48.085 33.7306 48.8678 32.7163C52.4616 28.0595 56.3365 23.7283 60.3166 19.41C63.0392 16.4561 54.1602 24.577 51.2079 27.3014C50.3333 28.1086 49.1398 29.1964 48.2277 29.9878C47.5753 30.5539 46.883 31.2001 46.1079 31.6091C45.9668 31.6836 45.6754 31.8424 45.6357 31.6879C45.5039 31.1755 46.7108 29.784 46.874 29.5681C48.5111 27.4018 50.3503 25.3705 52.3098 23.4921C53.0293 22.8024 53.7637 22.1207 54.5345 21.4878C54.6588 21.3857 54.7852 21.2856 54.9175 21.194C55.2212 20.9837 55.0336 21.195 54.8913 21.3514C53.1314 23.2848 51.12 25.0229 49.2141 26.8082C47.4138 28.4946 45.6351 30.2387 43.6943 31.7666C43.5333 31.8933 43.1526 32.2908 43.1696 32.0866C43.2119 31.579 44.6346 30.1719 44.8277 29.9459C47.2733 27.0824 49.8696 24.3504 52.5879 21.7449C53.9706 20.4196 53.3758 21.0126 54.5817 19.8665C54.9225 19.5427 55.9782 18.6441 55.5524 18.8434C55.2189 18.9995 54.9689 19.2934 54.6919 19.536C53.5631 20.5242 52.4711 21.5551 51.3653 22.5687C48.8909 24.8369 46.4228 27.1179 43.9042 29.3372C43.1323 30.0174 42.3517 30.7065 41.5326 31.3311C41.3081 31.5023 40.9652 31.7189 41.2807 31.2471C42.5858 29.2956 44.3439 27.5495 45.919 25.8218C48.0531 23.4809 50.2768 21.2263 52.5092 18.9798C53.0811 18.4043 54.8818 16.8582 54.1305 17.1643C53.9268 17.2473 53.3125 17.7778 53.3119 17.7782C51.8594 18.979 50.4423 20.2248 49.0252 21.4668C46.515 23.6669 44.0528 25.9243 41.4276 27.9888C41.4271 27.9892 38.6266 30.268 39.2974 29.0854C40.7339 26.5528 43.0353 24.3527 45.09 22.3326C47.3844 20.0768 49.8586 18.0277 52.2206 15.8474C53.2059 14.9379 50.1365 17.5351 49.0882 18.3711C46.5878 20.3651 44.1267 22.4192 41.5588 24.3264C41.1319 24.6435 40.4799 25.1208 39.9952 25.423C39.5484 25.7017 39.4547 25.6385 39.8011 25.1921C41.2781 23.2889 43.1518 21.6417 44.8696 19.9662C45.8612 18.9991 46.8375 18.0519 47.8342 17.0909C48.4532 16.494 50.3292 14.753 49.6024 15.2125C48.8483 15.6892 46.3342 17.6507 46.024 17.8779C45.1755 18.4992 44.3472 19.154 43.4477 19.6986C42.2857 20.4022 41.8057 21.0162 41.4224 19.7983C41.1995 19.0898 41.699 18.4589 40.4622 19.0532C38.945 19.7823 37.8214 21.1288 36.4431 22.0545C36.4128 22.0748 36.332 22.0206 36.3539 21.9915C36.921 21.2353 39.7176 18.2306 39.7958 18.1455C41.5014 16.2908 43.3461 14.4839 44.9536 12.5365C45.0287 12.4456 45.1924 12.2088 44.9116 12.3267C44.0164 12.7025 43.1407 13.3605 42.3406 13.885C39.9397 15.4591 37.6153 17.1469 35.2258 18.7384C34.8506 18.9883 33.3973 19.9498 32.9276 20.2285C32.1311 20.7013 31.7953 20.7733 32.7545 19.7668C33.9247 18.5389 35.9448 16.6504 37.0674 15.5903C37.8924 14.8112 38.7231 14.0383 39.5492 13.2606C40.0914 12.7503 41.815 11.3631 41.1548 11.7075C40.7179 11.9355 40.3902 12.3294 40.0005 12.631C38.8395 13.5293 37.638 14.3731 36.4378 15.2177C35.7738 15.685 34.6661 16.4659 33.9508 16.9387C33.5592 17.1975 32.6347 17.9515 33.2214 17.0069C33.452 16.6357 34.0156 15.9441 33.6202 15.7582C33.3493 15.6307 33.0194 15.758 32.723 15.8001C32.3244 15.8568 31.3018 16.1881 31.5162 15.8474C31.7072 15.5438 32.0205 15.3366 32.2875 15.097C33.0997 14.3684 33.9499 13.6828 34.764 12.9563C35.3704 12.4152 36.1201 11.8366 36.6267 11.1828C37.2029 10.4394 35.0242 12.1728 34.2708 12.7359C32.5844 13.9964 30.9226 15.2896 29.2285 16.54C29.0183 16.6951 27.7938 17.4961 27.8066 17.4792C28.5549 16.486 29.5459 15.6671 30.3776 14.7455C30.3941 14.7272 31.8495 13.0359 31.3116 13.2396C29.7972 13.813 28.4045 15.2475 27.198 16.2619C26.5257 16.8271 25.7801 17.4711 25.1202 18.0616C24.8166 18.3332 24.043 18.8827 23.8819 19.3366C23.6093 20.1047 25.247 18.4325 25.8443 17.8779" stroke="#FFA7BC" stroke-linecap="round"/>
<path d="M17.2503 24.4887C16.3026 25.1015 16.3704 24.8346 17.0929 23.8696C18.0183 22.6337 19.0746 21.4839 20.2096 20.4381C20.2488 20.402 21.3321 19.3301 21.5738 19.3992C21.8025 19.4645 21.3104 19.797 21.154 19.9764C20.7834 20.4015 19.7172 21.5765 19.433 21.8915C18.2658 23.1854 17.0944 24.4765 15.9491 25.79C15.2492 26.5925 14.4493 27.4179 13.9133 28.3505C13.2344 29.5317 16.0422 26.6444 17.03 25.706C18.8288 23.9971 20.605 22.2373 22.4658 20.5955C22.8518 20.2549 21.7609 21.3459 21.4111 21.7236C19.4181 23.8756 17.4095 26.021 15.5031 28.2508C15.4728 28.2862 14.5929 29.1835 14.6164 29.5048C14.6484 29.9431 15.3907 29.0737 15.7182 28.7807C18.029 26.7136 20.1637 24.4572 22.513 22.4319C22.6738 22.2933 22.8362 22.1565 23.001 22.0227C23.1237 21.9229 23.2943 21.6233 23.3892 21.7498C23.4193 21.7899 23.344 21.8396 23.3158 21.881C23.1568 22.1138 22.8278 22.5208 22.6809 22.6995C20.869 24.9037 18.8607 26.9345 17.0824 29.169C16.7125 29.6338 16.2979 30.1127 15.9858 30.6224C15.9429 30.6926 15.8956 30.8895 15.9753 30.869C16.236 30.802 16.6574 30.4246 16.7886 30.3128C18.781 28.6144 20.5435 26.6525 22.4973 24.9085C22.8232 24.6176 23.0983 24.3772 22.6442 24.9767C21.5647 26.4016 20.4291 27.788 19.2756 29.1532C18.3367 30.2646 17.3676 31.3502 16.4318 32.4641C16.0665 32.8988 15.3162 33.6005 15.1725 34.1955C15.0745 34.6017 15.8849 33.7508 16.1957 33.4715C17.785 32.0431 19.2873 30.5219 20.8287 29.0431C21.7437 28.1653 22.6776 27.307 23.6411 26.4826C24.0458 26.1363 25.2212 25.1294 24.9738 25.6011C24.6232 26.2696 23.9215 26.9419 23.4522 27.5005C22.3959 28.7577 21.3051 29.9817 20.2096 31.2048C19.0683 32.4789 17.9295 33.754 16.8201 35.056C16.3308 35.6303 15.7512 36.2134 15.3299 36.8452C15.2255 37.0019 15.6589 36.6577 15.8022 36.5357C16.8751 35.6221 17.8963 34.6502 18.9188 33.6813C19.946 32.7081 20.9686 31.7308 22.0355 30.8008C22.4321 30.4551 23.5893 29.3962 23.2633 29.8091C21.8258 31.63 20.0838 33.2605 18.5096 34.9616C17.6797 35.8584 16.8574 36.7616 16.075 37.7005C15.7887 38.0441 14.9012 38.9078 15.3404 38.8233C15.7693 38.7409 16.3867 38.0558 16.6522 37.8159C18.0539 36.5497 19.3994 35.2229 20.8182 33.9752C21.554 33.3282 22.3082 32.6981 23.1059 32.1283C24.11 31.411 23.2892 32.2956 23.0324 32.6005C21.4521 34.4771 19.803 36.2906 18.1633 38.115C17.5972 38.7449 17.0138 39.3668 16.4738 40.0196C15.7963 40.8386 16.5826 40.2166 16.8935 39.9567C17.8413 39.1642 18.7657 38.3408 19.6954 37.5273C20.7407 36.6127 21.7538 35.534 22.9118 34.757C23.4076 34.4243 23.2446 34.8087 23.0744 35.098C22.4666 36.1312 21.6414 37.0541 20.8812 37.9733C20.0998 38.9183 19.3041 39.8518 18.5411 40.8119C18.0733 41.4006 17.3346 42.1389 17.0562 42.8582C16.9383 43.1627 17.6328 42.5417 17.88 42.3283C19.4586 40.9655 20.9341 39.4817 22.4763 38.0783C23.3489 37.2842 24.2245 36.4673 25.1627 35.7486C25.9016 35.1827 25.5816 35.6854 25.2676 36.0739C23.35 38.4471 21.3959 40.7838 19.517 43.1888" stroke="#FFA7BC" stroke-linecap="round"/>
<path d="M18.1947 49.2335C18.0846 49.4537 18.1872 49.2465 18.646 48.7088C19.3898 47.837 20.0868 47.0177 20.8392 46.1483C21.418 45.4794 23.1898 43.5038 22.6022 44.1649C21.0265 45.9376 19.5834 47.8576 18.1108 49.7162C18.0844 49.7495 16.6387 51.44 17.2608 51.2588C18.2576 50.9685 17.5179 52.047 17.7435 52.5705C17.9332 53.0108 20.4416 50.2457 20.5873 50.094C21.7077 48.9272 22.845 47.776 24.0083 46.652C24.1509 46.5142 24.6692 46.0214 24.8688 45.844C24.9515 45.7705 25.0726 45.5687 25.1417 45.6551C25.2975 45.8499 23.9039 47.3397 23.8824 47.3656C21.937 49.7044 20.886 50.9978 19.0688 53.4384C18.8838 53.6869 18.4784 54.4092 18.775 54.3199C19.7912 54.014 19.8222 54.0121 20.6083 53.3681C22.2214 52.0466 23.7392 50.61 25.2361 49.16C26.1095 48.314 26.9318 47.32 27.8963 46.5733C28.2631 46.2893 27.3655 47.3356 27.0673 47.6909C25.9172 49.0614 24.7366 50.4059 23.5886 51.7782C22.5337 53.0392 21.4749 54.2992 20.4404 55.577C20.1634 55.9192 19.9204 56.2209 19.6744 56.5792C19.6 56.6875 19.3768 56.9576 19.5065 56.936C19.7539 56.8947 19.9166 56.6454 20.1046 56.4795C20.6718 55.979 21.1152 55.5463 21.6682 55.0051C23.2367 53.47 24.7807 51.9124 26.38 50.4088C27.4101 49.4403 28.4868 48.2128 29.7065 47.4653C30.9911 46.6779 28.2975 50.1397 27.4189 51.3637C26.2384 53.0082 24.572 55.2743 23.3787 56.936C22.9747 57.4986 21.656 59.0675 22.2139 58.657C22.6454 58.3395 22.9162 57.8477 23.2633 57.4397C23.8966 56.6952 24.3974 56.102 25.0472 55.3619C26.2578 53.9831 27.5108 52.6431 28.7726 51.3113C29.0116 51.0589 29.6307 50.4033 29.9269 50.1254C30.0373 50.0219 30.3126 49.7225 30.3047 49.8736C30.2908 50.1372 30.0392 50.331 29.8849 50.5452C29.563 50.9922 29.0387 51.674 28.7096 52.0878C27.5026 53.6053 26.2316 55.0705 25.0263 56.5897C24.1716 57.6668 23.3397 58.7638 22.5287 59.8743C21.8499 60.8038 22.7246 60.1267 23.1216 59.7746C25.9597 57.2569 28.4568 54.3557 31.2176 51.752C31.6435 51.3503 32.802 50.0796 32.5504 50.6082C32.1448 51.4598 31.1549 52.3293 30.567 53.027C28.1327 55.9161 26.4352 57.7622 24.4049 60.9625C24.0437 61.532 24.0244 61.8125 24.7145 61.3036C26.4338 60.0358 26.8649 59.31 28.3318 57.7755C29.8769 56.1592 31.4098 54.5295 32.9911 52.9483C33.1936 52.7458 33.6884 52.2571 33.9355 52.0458C34.0332 51.9624 34.2805 51.7288 34.2713 51.8569C34.2524 52.1227 34.0184 52.3266 33.8726 52.5495C33.5231 53.0841 33.0205 53.8096 32.6658 54.3125C31.5377 55.9119 30.3856 57.4915 29.2973 59.1187C28.4518 60.3827 27.5826 61.6506 26.8417 62.9804C26.691 63.251 26.3622 63.995 26.9886 63.4736C28.2235 62.446 29.2454 61.0581 30.3047 59.8638C31.9082 58.0559 33.4832 56.2049 35.2368 54.5381C35.4935 54.2941 36.1889 53.6228 35.6408 54.4699C34.8688 55.663 33.9763 56.7829 33.1433 57.9329C31.8352 59.7386 30.548 61.561 29.3182 63.4212C29.0374 63.846 28.2055 65.0409 28.6519 64.7959C29.8358 64.1459 30.8615 62.8665 31.7895 61.9258C33.3409 60.3534 34.8683 58.7571 36.4121 57.1773C37.047 56.5277 37.7197 55.8874 38.2852 55.173C38.9065 54.3883 37.0156 56.7205 36.3911 57.5026C34.5445 59.8154 32.6524 62.1384 31.0287 64.6175C30.9029 64.8096 30.5838 65.3625 31.1127 65.0058C32.1645 64.2964 33.0535 63.2679 33.9355 62.3718C35.1622 61.1255 36.3667 59.857 37.6084 58.6255C37.9477 58.289 38.8676 57.3093 38.7627 57.7755C38.5737 58.6156 37.7189 59.555 37.2516 60.231C36.0415 61.9815 34.828 63.7269 33.6417 65.4937C33.4721 65.7463 32.5512 66.7947 32.6605 67.1885C32.698 67.3232 32.917 67.0655 33.0173 66.9681C33.3436 66.6514 33.9206 66.0068 34.1769 65.7246C36.5316 63.1315 38.8267 60.4997 41.1081 57.8437C41.7257 57.1247 41.251 57.8132 41.0609 58.0798C40.2323 59.242 39.383 60.3905 38.5266 61.5323C37.4702 62.9409 36.3974 64.3365 35.3627 65.7613C35.0327 66.2158 34.2292 67.0241 34.1139 67.6292C34.0156 68.1457 34.8943 66.923 35.2578 66.5431C36.5831 65.158 37.877 63.7471 39.1562 62.3193C40.4132 60.9164 41.6771 59.5199 42.9393 58.1218C43.2237 57.8067 43.6058 57.3761 43.9152 57.0566C44.0291 56.9391 44.1489 56.6498 44.2877 56.7366C44.4141 56.8155 40.0159 62.8 39.7124 63.2165C38.915 64.3111 38.0529 65.3889 37.3408 66.5431C36.4987 67.9079 38.2432 66.3252 38.4689 66.1076C41.535 63.1506 44.2759 59.87 47.4516 57.0199C47.8068 56.7012 48.7889 55.8864 48.7214 56.3588C48.5903 57.2763 47.7793 58.279 47.3047 59.0242C46.265 60.6568 45.1508 62.2362 44.0097 63.799C43.3932 64.6432 42.6692 65.4843 42.1732 66.4119C41.8495 67.0175 43.2932 65.6067 43.7788 65.1212C44.8576 64.0424 46.3368 62.5073 47.3782 61.4168C47.8703 60.9015 48.3587 60.3825 48.8473 59.8638C49.201 59.4882 50.1219 58.3056 49.9702 58.7986C49.687 59.719 49.0433 60.4883 48.6322 61.3591C48.4255 61.797 48.1434 62.2261 48.0918 62.7076C48.0771 62.8446 48.3431 62.9303 48.4695 62.8755C48.9614 62.6621 50.3886 61.298 50.6995 61.0181C51.1894 60.577 51.7733 60.0489 52.2946 59.6224C52.3139 59.6065 53.4663 58.6228 53.1393 59.3968C52.6308 60.6003 51.5664 61.6895 50.7362 62.6656C49.6094 63.9905 48.4235 65.2661 47.2208 66.5221C47.0664 66.6834 46.2979 67.6817 45.9773 67.6817C45.8355 67.6817 46.1315 67.4429 46.2239 67.3354C46.5872 66.9123 47.1439 66.3057 47.4884 65.9292C49.232 64.0234 50.9927 62.1331 52.7406 60.231C53.2935 59.6293 53.8989 58.7044 54.5875 58.2372C54.7611 58.1194 54.3443 58.5799 54.2097 58.7409C53.7903 59.2427 53.1469 59.9729 52.7406 60.4409C50.1737 63.3977 48.7201 65.4349 46.3214 68.5286C46.2069 68.6763 46.0927 68.8242 45.9751 68.9694C45.9283 69.0271 45.8901 69.1785 45.8282 69.1373C45.7668 69.0963 45.9027 69.0098 45.9436 68.9484C46.0566 68.7788 46.1714 68.6104 46.2899 68.4447C47.5731 66.6495 47.977 65.9479 49.372 64.2397C51.0587 62.1744 52.7289 60.0976 54.3566 57.9854C54.9717 57.1871 55.9803 55.8635 56.5918 55.0261C57.0593 54.3859 57.6661 53.6587 57.9717 52.9063C58.034 52.7532 58.122 52.5367 57.8458 52.665C57.5028 52.8242 56.9614 53.3338 56.7492 53.5255C54.9127 55.1843 53.2002 56.9873 51.5338 58.8144C48.0491 62.6349 45.8254 65.7116 42.255 69.4521C39.6777 72.1521 46.104 64.7757 48.5692 61.973C50.8659 59.362 53.201 56.7818 55.4375 54.1184C56.0916 53.3394 56.5744 52.7504 57.169 51.9514C57.4626 51.5567 58.1979 50.7467 58.2393 50.1779C58.25 50.0314 57.9264 50.0949 57.7986 50.1674C57.3753 50.4076 56.5483 51.0821 56.2455 51.3427C54.0146 53.2635 52.0299 55.4515 50.0331 57.6076C47.8264 59.9904 45.6102 62.3664 43.443 64.7854C42.7455 65.5639 42.0385 66.6422 41.1973 67.2934C40.6206 67.7399 42.0958 66.1442 42.5615 65.5829C44.6465 63.0701 46.7739 60.5951 48.9418 58.1533C51.1202 55.6996 53.3254 53.2699 55.5634 50.8705C56.1719 50.2182 58.0608 48.3449 57.3369 48.8662C56.1155 49.7456 55.0092 51.109 53.9578 52.1508C51.2287 54.855 48.542 57.5994 45.8776 60.3675C44.1097 62.2041 42.3249 64.0294 40.6359 65.9397C40.2926 66.328 39.9647 66.7298 39.618 67.115C39.584 67.1527 39.4806 67.2628 39.5078 67.22C39.5921 67.0871 39.6937 66.9658 39.7911 66.8422C43.9412 61.5764 48.5157 56.6552 52.6881 51.4057C53.8384 49.9585 54.9094 48.5947 55.9517 47.077C56.4116 46.4073 57.2815 45.2515 57.3421 44.3171C57.406 43.3316 56.8903 42.9564 56.0881 42.5384C55.7006 42.3364 55.2748 42.2097 54.8498 42.1081C52.6083 41.5725 54.8319 42.2379 53.1393 42.0557" stroke="#FFA7BC" stroke-linecap="round"/>
<path d="M56.7283 32.4223C56.8673 32.2636 58.6819 30.2125 59.0579 29.7254C59.7884 28.779 57.4108 31.4592 56.6181 32.3541C54.9375 34.2511 53.2335 36.1287 51.5653 38.0365C51.4746 38.1402 50.6136 39.2468 50.6995 39.2118C51.1474 39.0293 51.6468 38.5197 51.985 38.2254C53.2674 37.1094 54.4815 35.9209 55.6894 34.7257C57.9219 32.5165 60.1438 30.2987 62.4264 28.1408C62.8913 27.7013 63.3542 27.2543 63.8326 26.829C63.8698 26.796 63.9373 26.6861 63.9481 26.7346C63.9971 26.9554 63.6675 27.0897 63.5178 27.2593C59.5222 31.7863 55.0766 35.9243 50.9147 40.2979C50.8457 40.3704 50.3749 40.8677 50.2011 41.0168C49.9896 41.198 50.5072 40.5501 50.6838 40.3347C52.6047 37.9912 54.6669 35.741 56.7912 33.5818C59.0108 31.3259 61.3548 29.1383 63.8746 27.2173C64.1831 26.9821 65.0156 26.3183 64.9135 26.6926C64.7368 27.3403 63.8705 28.116 63.4548 28.5605C61.047 31.1354 58.3449 33.4582 55.6894 35.7698C54.3499 36.9358 52.9918 38.0787 51.6073 39.1908C51.0486 39.6396 50.415 40.2681 49.7498 40.576C49.4845 40.6989 49.5605 40.5247 49.6344 40.3504C49.9565 39.5913 50.4994 38.8724 50.9357 38.1834C52.6257 35.5139 54.2371 32.8151 55.7838 30.0612" stroke="#FFA7BC" stroke-linecap="round"/>
<path d="M53.1385 22.8833C52.2656 23.6034 51.4288 24.5421 50.6567 25.3389C49.7367 26.2883 46.9576 29.0846 48.028 28.3087C48.7215 27.8058 49.306 27.0741 49.8906 26.4565C51.1187 25.1591 52.3605 23.8761 53.6107 22.6C54.4088 21.7853 55.2046 20.9687 55.9928 20.1444C56.2083 19.9191 56.4415 19.7085 56.6329 19.4623C56.6857 19.3944 56.4716 19.5271 56.4021 19.5778C54.0094 21.3228 51.9015 23.4103 49.644 25.3179C49.1176 25.7628 48.5916 26.2137 48.0542 26.6454C47.6825 26.9439 47.5588 26.9189 47.9283 26.4985C50.1074 24.0188 52.5959 21.8099 54.9277 19.4781C55.443 18.9627 55.9808 18.4428 56.444 17.8778C56.4796 17.8344 56.5035 17.6825 56.4545 17.7099C56.1822 17.862 55.5092 18.3783 55.3422 18.5074C52.7593 20.5033 50.2682 22.6134 47.7236 24.6568C47.3554 24.9525 46.9411 25.361 46.5168 25.5907C45.8877 25.9316 47.459 24.5121 47.965 24.0062C49.9652 22.006 52.1096 20.1399 54.0567 18.0876C54.8648 17.2358 52.1329 19.4353 51.1971 20.1444C49.8441 21.1697 48.5487 22.2636 47.2409 23.3451C46.9829 23.5584 46.3802 24.0585 46.0656 24.2895C45.9407 24.3812 45.7068 24.6564 45.6563 24.5099C45.6334 24.4432 45.7037 24.376 45.7403 24.3157C45.9616 23.9509 46.4259 23.3664 46.648 23.088C47.9209 21.4923 49.288 19.9746 50.5832 18.3972C51.6412 17.1086 52.687 15.8024 53.6789 14.462C53.9812 14.0535 54.7815 12.9267 54.2928 13.0663C53.4553 13.3056 52.5784 14.0802 51.9212 14.5827C49.8124 16.1951 47.8178 17.961 45.8452 19.7352C44.1297 21.2782 39.1137 26.047 40.7452 24.4154C42.7131 22.4475 44.8039 20.587 46.8684 18.7225C48.2903 17.4384 49.7356 16.1814 51.1761 14.9185C51.3506 14.7656 52.073 14.1336 52.3147 13.9111C52.3884 13.8432 52.4801 13.7882 52.5298 13.7012C52.5539 13.6591 52.4392 13.7376 52.3986 13.7642C49.8321 15.4457 47.4417 17.54 45.1002 19.5148C43.6461 20.7411 42.2388 22.0163 40.8292 23.2926C40.7323 23.3803 39.6903 24.3356 40.4199 23.513C42.7088 20.9325 45.0841 18.4258 47.498 15.9626C48.2951 15.1492 49.2456 14.3403 49.9273 13.4179C50.1828 13.0723 49.0881 13.6538 48.7258 13.8848C45.8604 15.712 43.2716 18.0938 40.7662 20.3753C39.6936 21.352 38.6359 22.353 37.618 23.387C37.5615 23.4444 37.4136 23.6295 37.4816 23.5864C37.6843 23.4583 38.1606 23.067 38.2896 22.9568C41.137 20.5267 43.8317 17.9147 46.669 15.4694C47.9863 14.3341 49.3334 13.2289 50.6252 12.0642C50.6941 12.002 50.897 11.8141 50.8193 11.8648C50.5705 12.027 50.3372 12.212 50.0952 12.3842C46.4961 14.9463 43.0224 17.6557 39.5909 20.4383C38.0517 21.6864 36.5284 22.9559 34.9736 24.1846C34.8795 24.259 33.4369 25.4115 34.2915 24.3944C37.105 21.0458 40.4661 18.0667 43.7202 15.1598C44.1308 14.7931 45.145 13.888 45.6721 13.4651C45.8145 13.3508 46.5661 13.0011 45.3205 13.7484C44.5276 14.2242 43.3859 14.7341 43.3162 13.4441C43.2801 12.7768 42.4869 13.5946 42.2458 13.7747C40.2899 15.2357 38.4234 16.8269 36.5162 18.35C33.3828 20.8522 30.2558 23.3594 26.8828 25.5278" stroke="#FFA7BC" stroke-linecap="round"/>
<path d="M33.5889 14.6665C33.6 14.6563 34.2648 14.0201 33.8827 14.5721C32.8913 16.004 31.5375 17.233 30.3095 18.4548C29.5535 19.207 28.7929 19.9583 28.0166 20.69C27.8452 20.8516 27.6911 21.0442 27.4814 21.1517C27.4074 21.1896 27.5283 20.989 27.5759 20.9208C29.208 18.5835 31.4836 16.612 33.5469 14.6717C34.4114 13.8588 35.3701 12.7597 36.4379 12.1847C37.254 11.7453 35.2402 13.6012 34.5963 14.2677C31.0193 17.9705 27.3155 21.5467 23.8086 25.3178C22.4019 26.8304 18.2945 31.4527 19.8209 30.061C20.5348 29.4101 21.1623 28.5784 21.8042 27.8678C23.8494 25.6038 25.9251 23.3644 28.0586 21.1832C30.2222 18.9712 32.4457 16.8198 34.7747 14.7819C35.6936 13.9779 35.6025 14.0859 36.4012 13.3967C36.4903 13.3199 36.5857 13.2488 36.6636 13.1606C36.69 13.1307 36.5904 13.1942 36.5586 13.2183C32.4359 16.3594 28.5366 19.9023 24.7058 23.3869C22.983 24.954 21.2859 26.5481 19.5481 28.0986C18.822 28.7465 17.3699 30.0222 16.5888 30.6906C16.1692 31.0497 15.8114 31.5257 15.298 31.7295C15.2404 31.7524 15.3309 31.6073 15.3663 31.5564C15.6631 31.129 16.5073 30.1741 16.7357 29.9141C18.6586 27.7247 20.6747 25.6254 22.8221 23.6545C25.5021 21.195 28.292 18.7961 31.2435 16.6656C31.6282 16.3879 32.5259 15.7187 33.1166 15.5375C33.5827 15.3945 33.3491 15.7589 33.2268 15.973C32.4858 17.2697 31.3753 18.4611 30.4197 19.5881C27.672 22.8286 24.7831 25.9494 21.9407 29.1061C20.3827 30.8362 18.8269 32.5677 17.3076 34.332C17.2633 34.3834 15.5046 36.1548 15.6443 36.4518C15.6638 36.493 15.7402 36.4832 15.7808 36.4623C16.1765 36.2578 16.9628 35.554 17.1764 35.3604C19.5374 33.2205 21.7304 30.8879 23.903 28.5604C28.0935 24.071 32.208 19.5113 36.4222 15.0443" stroke="#FFA7BC" stroke-linecap="round"/>
<path d="M32.7385 24.8667C32.0931 27.9292 30.0495 30.7419 28.457 33.3457C26.3089 36.8579 23.9812 40.2654 21.8668 43.7976C21.629 44.1951 20.8097 45.4844 22.0033 44.7946C23.623 43.8585 24.9993 42.3847 26.3372 41.1112C30.1972 37.4371 33.9069 33.6109 37.7441 29.9142C38.8835 28.8166 40.0373 27.6983 41.333 26.7818C42.0315 26.2878 43.1611 25.7054 42.2459 27.1176C41.1902 28.7468 39.8647 30.2236 38.636 31.7192C36.8178 33.9325 34.9944 36.1403 33.2317 38.3985C30.3386 42.105 27.4533 45.9035 25.0465 49.9523C24.8093 50.3513 24.122 51.4906 24.5113 51.2378C25.3012 50.7247 26.0468 49.5322 26.5786 48.8399C30.8364 43.2971 34.9148 37.6164 39.7274 32.5272C40.8741 31.3146 42.0619 30.1217 43.2953 28.996C43.3861 28.9132 43.6291 28.6478 43.5787 28.7599C43.3152 29.3454 42.7363 29.7291 42.3089 30.2081C38.7503 34.196 35.1328 38.1318 31.6681 42.2026C30.1857 43.9443 28.7155 45.7008 27.2922 47.4915C26.6323 48.3216 25.912 49.1822 25.3928 50.1149C25.1658 50.5227 25.0799 50.9626 25.7286 50.6606C26.5 50.3015 27.1361 49.7048 27.7434 49.1285C29.0078 47.9288 30.2771 46.4967 31.4425 45.2248C35.1411 41.1884 38.857 37.1164 43.2061 33.7603C43.531 33.5096 43.856 33.258 44.1978 33.0309C44.4051 32.8932 44.9381 32.563 44.9114 32.8106C44.8339 33.5287 43.5834 34.767 43.2219 35.1979C39.8259 39.2446 36.0923 43.1914 32.0984 46.652C30.8257 47.7547 29.4573 48.8617 27.8903 49.5273C27.3073 49.7749 26.5039 49.9806 25.8545 49.989C24.5519 50.0059 25.7285 49.8574 24.6162 49.7057" stroke="#FFA7BC" stroke-linecap="round"/>
<path d="M19.7052 39.1279C18.0968 41.0145 16.5782 42.9744 15.0564 44.931C13.6876 46.691 15.4677 44.3257 15.6965 44.0076C16.5752 42.786 17.4799 41.5853 18.404 40.3977C18.9194 39.7352 19.0538 39.5709 19.5373 38.96C19.7051 38.748 20.2738 38.2264 20.0148 38.3041C19.572 38.437 18.948 39.3529 18.6663 39.6579C17.561 40.8544 16.4819 42.0752 15.4132 43.3045C15.1353 43.6241 14.3604 44.6207 14.5632 44.2489C15.2399 43.0084 16.1889 41.8344 16.9873 40.6705C17.9297 39.2967 18.9272 37.9616 19.8626 36.5832C19.869 36.5737 20.6781 35.164 20.6549 35.1717C19.9755 35.3982 19.1239 36.5912 18.6716 37.0659C17.1147 38.6996 15.6452 40.4108 14.1959 42.1397C14.1409 42.2053 13.3464 43.2486 13.4509 43.1681C14.6748 42.2238 15.6868 40.8256 16.6935 39.6736C17.8381 38.3638 19.0297 37.061 20.0567 35.6544C20.1799 35.4858 20.4642 34.9605 20.2876 35.072C18.9776 35.8994 17.8819 37.3231 16.7774 38.3724" stroke="#FFA7BC" stroke-linecap="round"/>
<path d="M15.5506 30.439C15.3829 30.597 13.7782 32.1748 14.9262 31.4464C15.0381 31.3754 16.9131 30.1349 16.9306 30.2921C16.9551 30.5127 16.6488 30.9306 16.558 31.0791C16.1307 31.7784 15.6473 32.442 15.1519 33.0939C14.3562 34.1408 13.3277 35.1221 12.6596 36.2578C12.3651 36.7585 13.9958 35.4327 14.0133 35.4183C14.5889 34.946 15.1499 34.4589 15.6975 33.9544C15.9743 33.6994 16.2756 33.3296 16.621 33.1569C16.7814 33.0767 16.5295 33.5101 16.4321 33.6606C16.0149 34.3054 15.5549 34.9226 15.0836 35.5285C14.14 36.7417 12.9367 36.9071 12.2031 38.2696C11.7913 39.0343 13.2716 39.0208 13.3469 38.9705C14.3655 38.2899 15.3507 37.3166 16.4636 36.7983C16.5835 36.7424 16.4762 37.0766 16.4111 37.1918C16.1582 37.6398 15.8782 38.0743 15.6031 38.5088C14.9303 39.5713 14.0267 40.6863 13.6197 41.8878C13.315 42.7874 15.3758 41.0684 15.4457 41.0063C16.3783 40.1773 17.6145 39.2145 18.258 38.1205C19.1459 36.6112 16.0114 40.933 15.5506 42.6224" stroke="#FFA7BC" stroke-linecap="round"/>
<path d="M15.5493 47.4389C13.9022 48.9945 18.2994 43.836 19.7521 42.0976C20.6936 40.9708 21.6332 39.8399 22.6117 38.7448C23.1521 38.1399 23.5849 37.6544 23.9549 36.9556" stroke="#FFA7BC" stroke-linecap="round"/>
<path d="M15.9282 46.2112C15.4001 46.5169 16.5008 45.1313 16.8359 44.6213C17.6168 43.4329 18.4166 42.2489 19.3387 41.1636C19.8519 40.5595 20.4484 40.0352 20.9337 39.4111" stroke="#FFA7BC" stroke-linecap="round"/>
<path d="M16.1172 47.9112C16.7359 47.8319 17.7099 46.7344 18.0271 46.4316C19.1816 45.3292 20.2588 44.169 21.2592 42.9266C21.4069 42.7432 21.9957 42.1959 21.8783 41.9612" stroke="#FFA7BC" stroke-linecap="round"/>
<path d="M16.1172 49.6113C18.1862 47.4892 19.9529 45.0652 21.9518 42.8742C22.5521 42.2161 23.1839 41.5954 23.7672 40.9224" stroke="#FFA7BC" stroke-linecap="round"/>
<path d="M21.7827 56.4112C21.0368 56.5888 22.0119 55.7024 22.1185 55.5717C23.3741 54.033 24.6947 52.5575 25.9907 51.0541C27.4867 49.3188 29.0333 47.5668 30.2827 45.6445" stroke="#FFA7BC" stroke-linecap="round"/>
<path d="M23.1055 57.4502C27.5711 53.0492 31.475 48.1003 35.4777 43.2834" stroke="#FFA7BC" stroke-linecap="round"/>
<path d="M58.1446 17.689C55.5026 19.6813 52.7861 21.5744 50.1273 23.5445C49.374 24.1027 48.5874 24.6252 47.9026 25.2655C47.8084 25.3537 48.1125 25.1134 48.2279 25.0557" stroke="#FFA7BC" stroke-linecap="round"/>
<path d="M58.3341 17.4055C56.7614 19.0465 54.6251 20.217 53.3285 22.1278C52.9565 22.676 54.2084 21.8522 54.3674 21.75" stroke="#FFA7BC" stroke-linecap="round"/>
<path d="M59.5613 18.0667C57.0885 20.3038 54.4855 22.4782 52.2366 24.9506C52.1528 25.0428 51.9177 25.3325 52.0058 25.2445" stroke="#FFA7BC" stroke-linecap="round"/>
<path d="M55.0277 15.7998C52.8535 18.5452 50.737 21.3324 48.6055 24.1109" stroke="#FFA7BC" stroke-linecap="round"/>
<path d="M54.8402 15.4224C52.1045 18.2341 49.1164 20.79 46.4189 23.6443C45.3755 24.7483 45.8074 24.3014 45.2593 25.0085C45.1863 25.1027 45.3424 24.7846 45.3958 24.678" stroke="#FFA7BC" stroke-linecap="round"/>
<path d="M51.6273 14.2888C51.2532 15.3489 50.029 16.4378 49.3187 17.2481C48.2751 18.4386 47.1628 19.5508 46.0446 20.6691C45.7059 21.0078 45.5465 21.2098 45.9396 20.7111C46.6687 19.7863 47.3439 18.8281 48.0384 17.8777" stroke="#FFA7BC" stroke-linecap="round"/>
<path d="M51.2509 14.2888C49.3005 16.3042 47.121 18.107 45.0176 19.9555" stroke="#FFA7BC" stroke-linecap="round"/>
<path d="M50.4957 11.4556C48.4588 12.9183 46.564 14.5939 44.6244 16.1778C43.6083 17.0076 42.5989 17.8462 41.5655 18.6544C2.17684 49.4561 50.0014 12.2525 39.2568 20.1445" stroke="#FFA7BC" stroke-linecap="round"/>
<path d="M45.962 9.94434C43.4661 12.5773 40.7665 15.0196 38.123 17.4999" stroke="#FFA7BC" stroke-linecap="round"/>
<path d="M43.3171 9.37769C39.9351 12.7597 36.713 16.3202 33.4004 19.7666" stroke="#FFA7BC" stroke-linecap="round"/>
<path d="M41.0503 9C37.4907 11.8816 34.1836 15.1289 30.7559 18.1611" stroke="#FFA7BC" stroke-linecap="round"/>
<path d="M39.8221 9.37769C35.894 14.716 30.6548 19.1251 26.0332 23.8277" stroke="#FFA7BC" stroke-linecap="round"/>
<path d="M23.2168 36.8149C24.5888 36.0935 23.5803 36.6493 25.835 35.1954C26.251 34.9271 30.8876 31.8703 31.6517 31.6729C33.0346 31.3157 31.0183 34.5074 30.2886 35.7352C28.3448 39.0063 26.2443 42.0049 24.5664 45.4252C24.4463 45.6701 22.7154 48.927 24.8228 47.3012C25.7966 46.5499 28.5574 43.504 29.3034 42.6586C31.9286 39.6837 34.2023 36.4513 36.6452 33.3329C37.5473 32.1815 40.1694 28.6871 39.4591 29.9657C39.204 30.4248 38.8051 30.7876 38.4806 31.2006C36.9459 33.1539 35.4466 35.1356 33.9595 37.1253C31.1845 40.8382 28.3313 44.5429 25.889 48.4888C25.6848 48.8187 24.8773 50.1955 24.7013 50.7426C24.6729 50.8311 24.6429 51.0078 24.7351 51.0193C25.3347 51.0942 25.6879 50.269 26.1049 49.8316C31.5081 44.1656 36.3897 38.0529 42.138 32.7121C42.3935 32.4747 44.0557 30.9269 42.9208 32.4422C40.7738 35.3087 38.3201 37.9555 36.0716 40.7422C34.3799 42.8389 32.6739 44.9564 31.2064 47.2202C31.1938 47.2396 30.4569 48.3168 30.4708 48.6103C30.4745 48.6866 30.6279 48.7034 30.6935 48.6642C31.2733 48.3185 32.6702 46.8834 32.9473 46.5994C37.2888 42.1499 41.333 37.4234 45.5727 32.8808C46.0296 32.3913 44.8222 33.9912 44.4121 34.5206C41.7009 38.0199 38.9601 41.4941 36.328 45.0541C34.5281 47.4886 32.5472 49.9671 31.1794 52.686C31.0197 53.0035 30.6725 53.8481 31.0107 53.7387C31.2843 53.6502 31.5117 53.4505 31.7327 53.2663C32.6931 52.466 34.3945 50.7194 35.1472 49.9329C38.6154 46.3084 41.9369 42.548 45.431 38.9472C46.404 37.9445 47.994 36.3424 49.0479 35.3303C49.4107 34.982 49.7797 34.64 50.1546 34.3046C50.4122 34.0741 51.0765 33.3727 51.0048 33.7108C50.8814 34.2924 50.3645 34.7143 50.0061 35.1886C49.0766 36.4189 48.3094 37.3518 47.3137 38.5828C43.7905 42.9387 40.1318 47.2594 37.0636 51.9572C36.585 52.6899 35.6061 54.2993 37.1985 52.902C40.5299 49.9788 43.6147 46.7036 46.6524 43.4818C48.1214 41.9238 52.3561 37.0914 50.9171 38.6773C48.4295 41.4187 41.6138 50.0924 44.4323 47.6925C45.3828 46.8833 48.9842 43.1311 49.8307 42.3212C51.4232 40.7974 50.8362 41.6237 49.9656 42.807C47.4915 46.1701 44.8232 49.3605 42.5361 52.8615C42.2848 53.2462 41.6668 54.1901 41.4025 54.7037C41.1775 55.1408 41.3871 54.917 41.5509 54.6902C42.8081 52.9495 43.5109 50.9121 44.3513 48.9612" stroke="#FFA7BC" stroke-linecap="round"/>
<path d="M49.7836 33.7987C51.2707 32.7349 52.2517 30.8967 52.2517 28.8202C52.2517 25.5352 49.8069 22.863 46.8016 22.863C43.7963 22.863 41.3516 25.5352 41.3516 28.8202C41.3516 30.9052 42.3404 32.7434 43.8274 33.8072C43.0956 34.0795 42.3871 34.4539 41.7253 34.922C41.3671 35.1773 41.2659 35.7049 41.4995 36.0964C41.7331 36.4879 42.2158 36.5985 42.5817 36.3432C43.843 35.4411 45.3068 34.956 46.8094 34.956C51.0994 34.956 54.5952 38.8282 54.5952 43.5939C54.5952 44.0449 54.5563 44.513 54.4784 45.0321C54.4084 45.4917 54.6964 45.9342 55.1169 46.0108C55.1636 46.0108 55.2025 46.0193 55.2492 46.0193C55.6229 46.0193 55.95 45.7214 56.02 45.3044C56.1135 44.6917 56.1602 44.13 56.1602 43.5854C56.1602 39.0324 53.4818 35.1688 49.7836 33.7901V33.7987ZM46.8016 33.0753C44.6527 33.0753 42.9087 31.169 42.9087 28.8202C42.9087 26.4714 44.6527 24.5651 46.8016 24.5651C48.9505 24.5651 50.6945 26.4714 50.6945 28.8202C50.6945 31.169 48.9505 33.0753 46.8016 33.0753Z" fill="#7A182F" stroke="#7A182F"/>
<path d="M34.3508 34.956C35.8612 34.956 37.3249 35.4326 38.5784 36.3432C38.9366 36.5985 39.4193 36.4964 39.6607 36.0964C39.8942 35.7049 39.8008 35.1773 39.4349 34.922C38.7731 34.4454 38.0724 34.0795 37.3327 33.8072C38.8198 32.7434 39.8086 30.9052 39.8086 28.8202C39.8086 25.5352 37.3639 22.863 34.3585 22.863C31.3532 22.863 28.9085 25.5352 28.9085 28.8202C28.9085 30.9052 29.8973 32.7349 31.3766 33.7987C27.6783 35.1773 25 39.0409 25 43.5939C25 44.1385 25.0467 44.7002 25.1401 45.313C25.2024 45.73 25.5294 46.0278 25.9109 46.0278C25.9499 46.0278 25.9966 46.0278 26.0433 46.0193C26.4637 45.9427 26.7518 45.5002 26.6817 45.0406C26.6039 44.5215 26.5649 44.0449 26.5649 43.6024C26.5649 38.8452 30.0608 34.9645 34.3508 34.9645V34.956ZM30.4656 28.8202C30.4656 26.4714 32.2097 24.5651 34.3585 24.5651C36.5074 24.5651 38.2514 26.4714 38.2514 28.8202C38.2514 31.169 36.5074 33.0753 34.3585 33.0753C32.2097 33.0753 30.4656 31.169 30.4656 28.8202Z" fill="#7A182F" stroke="#7A182F"/>
<path d="M47.3296 39.6538H33.829C33.3385 39.6538 32.8792 39.9006 32.5833 40.3346C32.2874 40.7686 32.194 41.3048 32.3264 41.8239L33.4397 46.079C33.6266 46.8024 34.2417 47.313 34.9346 47.313H46.2163C46.9092 47.313 47.5243 46.8024 47.7111 46.079L48.8245 41.8239C48.9569 41.3048 48.8712 40.7601 48.5676 40.3346C48.2639 39.9091 47.8201 39.6538 47.3218 39.6538H47.3296ZM46.2163 45.611H34.9346L33.8212 41.3558H47.3296L46.2163 45.611Z" fill="#7A182F" stroke="#7A182F"/>
<path d="M46.8098 49.0149C46.3816 49.0149 46.0312 49.3979 46.0312 49.8659V52.3424C46.0312 52.8104 46.3816 53.1934 46.8098 53.1934C47.238 53.1934 47.5884 52.8104 47.5884 52.3424V49.8659C47.5884 49.3979 47.238 49.0149 46.8098 49.0149Z" fill="#7A182F" stroke="#7A182F"/>
<path d="M34.3508 49.0149C33.9226 49.0149 33.5723 49.3979 33.5723 49.8659V52.3424C33.5723 52.8104 33.9226 53.1934 34.3508 53.1934C34.7791 53.1934 35.1294 52.8104 35.1294 52.3424V49.8659C35.1294 49.3979 34.7791 49.0149 34.3508 49.0149Z" fill="#7A182F" stroke="#7A182F"/>
</svg>
