<svg width="81" height="80" viewBox="0 0 81 80" fill="none" xmlns="http://www.w3.org/2000/svg">
<path d="M26.1753 10.1452C22.1528 7.08644 16.0299 8.44998 11.6256 10.114C7.38583 11.7159 4.85968 14.479 3.74321 18.7753C1.4603 27.5601 2.93497 36.9317 7.04571 44.9149C10.8948 52.3899 17.8671 59.5291 26.4868 60.9289C36.4782 62.5514 46.4763 56.8244 51.8008 48.5289C55.1362 43.3325 56.4209 37.4596 56.8169 31.3622C57.131 26.5241 56.8297 21.9898 54.6515 17.6069C50.9178 10.094 43.1733 4.55045 35.0702 2.63665C26.9101 0.709384 18.0497 3.66763 11.4387 8.50949C8.34879 10.7725 5.73321 13.6867 3.93014 17.0773C1.88171 20.9292 1.68803 24.7013 1.5 28.932" stroke="#79EFEF" stroke-width="3" stroke-linecap="round"/>
<path d="M4.86187 18.1888C4.51318 18.8208 6.10636 17.4474 6.66681 16.9925C8.86656 15.2073 10.9873 13.3274 13.173 11.5252C16.8021 8.53293 20.5112 5.63534 23.9607 2.43227C24.0946 2.30792 24.6414 1.79881 24.8474 1.59276C24.9325 1.50771 24.662 1.74626 24.5746 1.82887C23.5175 2.82792 23.4052 2.9692 22.1033 4.44709C19.2358 7.70213 16.3264 11.1606 13.5718 14.4845C12.1537 16.1956 10.7318 17.9043 9.35324 19.6475C8.80033 20.3466 8.17167 21.0089 7.77916 21.8092C7.2473 22.8936 9.63687 20.2633 10.5233 19.4428C13.5076 16.6808 16.5754 14.0233 19.7422 11.4727C22.8852 8.94135 26.1698 6.6064 29.3336 4.10604C29.337 4.10335 29.8833 3.66864 29.9632 3.60233C30.0305 3.54649 29.8215 3.70494 29.7533 3.75974C27.7649 5.35883 25.8007 6.99336 23.8872 8.68137C18.733 13.2283 14.2317 18.3116 9.86744 23.6036C8.78639 24.9145 7.67608 26.2128 6.70879 27.6123C6.34882 28.1331 5.98957 28.8178 6.90293 27.9848C11.5906 23.7097 15.8335 18.9346 20.419 14.5474C22.7918 12.2773 25.2004 10.0441 27.6073 7.81037C29.1138 6.41225 30.6782 5.05323 32.083 3.54986C34.2748 1.20416 27.3002 7.84448 25.094 10.1767C19.8458 15.7249 14.9138 21.6261 10.1718 27.6123C9.26517 28.7568 8.37191 29.9174 7.56929 31.1382C7.28059 31.5773 6.97035 32.0678 7.65324 31.2956C12.7174 25.5699 17.5872 19.7218 23.1369 14.4425C25.5039 12.1909 27.9386 10.0074 30.3934 7.85235C31.4962 6.8843 32.5914 5.81042 33.783 4.94555C34.3435 4.53873 32.8194 5.94085 32.3243 6.42518C29.326 9.35852 26.3377 12.3039 23.52 15.4132C18.1377 21.3522 13.0021 27.519 8.30386 34.0136C7.94078 34.5155 6.77727 35.7009 6.6878 36.4167C6.66763 36.5781 6.97129 36.2479 7.08132 36.1281C8.18262 34.9289 9.16848 33.6121 10.2137 32.366C15.8014 25.7048 21.6682 19.2327 27.8854 13.1518C29.8642 11.2164 35.8327 5.44433 33.8092 7.3329C32.5623 8.49669 31.4089 9.78647 30.2308 11.0162C26.8872 14.5064 23.6188 18.0575 20.482 21.7357C15.7863 27.242 11.0665 32.937 7.48534 39.2605C7.41992 39.376 7.25936 39.7255 7.35941 39.6383C7.62682 39.4051 8.40253 38.3825 8.46127 38.3055C11.392 34.4653 14.1935 30.5348 17.3706 26.8882C20.6366 23.1395 24.0935 19.5423 27.5549 15.9746C29.8585 13.6001 32.1793 11.1852 34.6644 8.99618C34.7914 8.88434 35.2002 8.60433 35.1052 8.74433C34.8639 9.09977 33.7857 10.3095 33.657 10.4548C30.9838 13.475 28.2915 16.4756 25.6712 19.5425C20.4346 25.6716 15.1324 31.9609 11.0113 38.9194C10.8595 39.1758 10.299 40.0894 11.0637 39.229C13.8735 36.068 16.3264 32.5807 19.0496 29.3438C24.717 22.6073 30.923 16.3196 37.1672 10.119C37.4043 9.88362 37.8236 9.47367 38.1064 9.21655C38.2874 9.052 38.291 9.05804 38.1117 9.26902C36.6582 10.979 35.0941 12.6014 33.5993 14.2746C26.989 21.674 20.6612 29.3549 14.9989 37.508C14.2861 38.5344 13.3705 39.6016 12.8267 40.7401C12.7606 40.8785 13.0554 40.5339 13.152 40.4148C14.1864 39.1409 15.1393 37.8006 16.1113 36.4796C21.3793 29.3201 27.0227 22.4497 32.2509 15.261" stroke="#79EFEF" stroke-linecap="round"/>
<path d="M13.0781 33.8667C13.1079 33.8597 13.144 33.8655 13.1673 33.8457C13.5372 33.5328 14.5104 32.4606 14.6365 32.3241C16.1411 30.6946 17.618 29.0395 19.0911 27.3815C21.7405 24.3998 24.3891 21.4262 27.1714 18.5667C27.8096 17.9107 28.4449 17.2416 29.1128 16.6148C29.343 16.3987 29.623 16.1833 29.2492 16.6778C27.4419 19.0684 25.2867 21.234 23.3516 23.5198C20.6527 26.7079 17.8258 29.9177 15.5862 33.4575C15.1369 34.1675 14.7163 34.9213 14.4161 35.7084C14.2247 36.2103 14.2826 36.3557 14.7362 35.9235C16.0754 34.6475 17.273 33.173 18.5139 31.8099C21.5293 28.498 24.5835 25.2202 27.7276 22.0296C28.6243 21.1197 29.5324 20.2208 30.4507 19.3327C31.2142 18.5944 33.4514 16.4345 32.9692 17.3809C32.4605 18.3793 31.7498 19.2621 31.0961 20.1722C30.82 20.5567 24.8807 28.4874 24.2751 29.3963C22.8364 31.5557 28.0436 25.8248 29.8263 23.9395C31.8271 21.8237 33.8874 19.767 35.9443 17.7062C36.6432 17.0059 37.3434 16.307 38.043 15.6074C38.5118 15.1386 37.117 16.5563 36.6578 17.0346C33.262 20.5715 29.8904 24.1277 26.6887 27.8432C23.0145 32.1069 19.3164 36.4909 16.4047 41.3279C15.9765 42.0392 15.2404 43.0831 15.1297 43.9566C15.0704 44.4238 16.0262 43.5882 16.3522 43.2482C18.0452 41.4826 19.5312 39.5048 21.0482 37.592C23.0031 35.1271 24.9562 32.664 26.9825 30.2568C29.9126 26.7759 32.8816 23.2278 36.2171 20.1198C36.4259 19.9252 37.2663 19.1527 36.5949 20.0988C35.5292 21.6004 34.2684 22.9897 33.0689 24.3803C28.7465 29.3912 24.39 34.336 20.4343 39.6488C19.2149 41.2867 18.0141 42.9472 16.8926 44.6544C16.6354 45.0461 15.9363 46.2324 16.2892 45.9242C17.3387 45.0077 18.2394 43.751 19.1226 42.6973C21.1949 40.2248 23.2467 37.7354 25.3559 35.2939C28.992 31.085 32.7608 26.9958 36.7208 23.0895C37.2492 22.5683 38.7433 20.9346 38.3316 21.5522C37.8914 22.2125 37.0554 22.9231 36.5424 23.4778C32.4346 27.9201 28.3416 32.4112 24.6948 37.2457C23.0825 39.3833 21.5556 41.5899 20.0985 43.8359C19.6039 44.5983 18.6886 45.7428 18.4405 46.6902C18.3156 47.1672 19.3085 46.1932 19.6473 45.835C21.1462 44.2499 22.4674 42.4993 23.8343 40.8032C28.0053 35.6279 32.2924 30.5481 36.8677 25.7235C37.7802 24.7613 38.7055 23.8011 39.6801 22.9006C40.6203 22.032 39.5412 23.2167 39.5332 23.2259C36.323 26.9122 33.0688 30.5636 29.9628 34.3389C27.7729 37.0007 25.6597 39.7215 23.6245 42.5032C22.5729 43.9404 21.4559 45.4051 20.5603 46.9526C20.4311 47.1757 19.9212 48.1221 20.6862 47.556C21.9124 46.6486 22.9356 45.2834 23.9183 44.1507C28.4911 38.8802 32.9654 33.5411 37.8227 28.5253C39.8136 26.4694 45.8626 20.3766 43.8252 22.3864C39.5309 26.6227 35.3789 31.0102 31.4319 35.572C28.1654 39.3472 24.8691 43.2604 22.2917 47.556C22.1653 47.7668 22.0369 47.9777 21.9349 48.2013C21.8591 48.3677 21.824 48.5923 22.0819 48.3692C23.21 47.3936 24.16 45.9938 25.0779 44.8538C29.1348 39.8149 33.2475 34.8711 37.7335 30.2044C39.3985 28.4722 41.0851 26.7587 42.8177 25.0939C43.2479 24.6805 44.4558 23.4017 44.1767 23.929C43.7445 24.7453 42.7469 25.5963 42.1566 26.2482C40.2385 28.3668 38.3383 30.4985 36.4742 32.6652C32.0316 37.829 27.6023 43.061 23.8186 48.7365C23.2177 49.6378 22.2071 50.8967 21.8615 51.9896C21.6216 52.7482 22.9949 50.8687 23.4985 50.2529C27.402 45.4801 31.0835 40.5412 35.0838 35.8448C37.9696 32.4569 40.8766 29.0196 44.077 25.9176C45.7274 24.318 40.9372 29.2756 39.402 30.9862C34.8414 36.0677 30.4121 41.3438 26.6205 47.0313C25.8639 48.1661 24.8879 49.445 24.38 50.7409C24.3455 50.829 24.2905 50.9588 24.359 51.0242C24.6279 51.2808 25.0035 50.6411 25.272 50.3841C29.031 46.7855 32.2184 42.5625 35.6504 38.6624C38.7762 35.1104 42.0095 31.6621 45.289 28.2525C45.4477 28.0876 45.604 27.9204 45.7665 27.7593C45.7966 27.7295 45.8825 27.6415 45.8662 27.6806C45.8335 27.7591 45.7681 27.8196 45.7141 27.8852C44.7776 29.0234 43.7798 30.1164 42.8125 31.2275C38.7764 35.8639 34.7532 40.5391 31.0541 45.452C29.9948 46.8588 28.9762 48.2989 28.0319 49.7859C27.7493 50.231 26.901 51.5106 27.3288 51.2026C28.289 50.5112 29.144 49.2456 29.8998 48.3797C31.8535 46.1417 33.8064 43.9033 35.7764 41.6794C38.7387 38.3352 41.6513 34.8501 44.9165 31.7889C46.6561 30.1581 41.8588 35.4487 40.3097 37.2615C36.795 41.3745 33.26 45.4953 30.0362 49.8436C29.4642 50.6151 28.9078 51.4015 28.3887 52.21C28.2918 52.3608 27.8159 53.0436 28.4202 52.4461C29.65 51.2301 30.7762 49.8906 31.9356 48.6106C34.1752 46.138 36.4203 43.6702 38.6989 41.2334C40.5674 39.2352 42.4649 37.2672 44.3918 35.3254C45.0892 34.6226 45.8104 33.7716 46.5903 33.1426C47.0215 32.7949 45.9168 34.023 45.5566 34.4439C44.0975 36.1492 42.6136 37.8332 41.1545 39.5387C37.7804 43.4825 34.279 47.3991 31.2797 51.6433C31.1848 51.7776 29.9269 53.326 30.0257 53.7211C30.0436 53.7925 30.1636 53.6636 30.2199 53.6162C30.5484 53.3389 31.3614 52.452 31.5368 52.2625C35.2847 48.2123 38.898 44.0499 42.7338 40.0791C44.4364 38.3165 46.1561 36.5677 47.9073 34.8531C48.1442 34.6212 48.3832 34.3915 48.6261 34.1658C48.7141 34.084 49.1527 33.656 48.8412 34.0556C46.2792 37.3428 43.3313 40.3633 40.5983 43.5053C38.2163 46.2438 35.869 49.0145 33.6461 51.8847C33.1143 52.5714 32.5928 53.2663 32.0878 53.973C31.7047 54.509 30.5479 55.9737 31.1538 55.715C31.5168 55.56 31.7933 55.249 32.0825 54.9804C33.1893 53.9525 36.2747 50.7585 37.0776 49.9328C41.1907 45.7033 45.3116 41.4819 49.4394 37.2667" stroke="#79EFEF" stroke-linecap="round"/>
<path d="M46.4166 43.5003C45.588 44.4437 43.6113 46.6497 42.7542 47.7713C42.5785 48.0013 42.2033 48.2466 42.3082 48.5163C42.3925 48.733 42.7232 48.2986 42.9011 48.1491C43.4165 47.7159 43.8946 47.24 44.3808 46.7744C46.4076 44.8331 48.331 42.779 50.4252 40.9083C50.5834 40.7671 50.8487 40.3238 50.929 40.52C50.9598 40.5953 50.8587 40.6674 50.8135 40.7351C50.5472 41.1347 49.9283 41.9276 49.7012 42.22C47.4605 45.1049 45.1023 47.8965 42.7857 50.7201C41.0784 52.801 39.3102 54.8521 37.6804 56.9954C37.5729 57.1368 37.2599 57.5594 37.3971 57.4466C38.0715 56.8927 38.6558 56.0176 39.1968 55.3583C41.6767 52.3366 44.1972 49.3619 46.8521 46.491C48.084 45.1588 49.3348 43.8428 50.6141 42.5558C50.9988 42.1689 52.117 40.9838 51.7999 41.4277C51.5544 41.7716 51.2421 42.0625 50.9604 42.3774C49.6804 43.809 48.3997 45.2402 47.1407 46.6904C44.3933 49.8547 41.6809 53.062 39.1286 56.3867C38.5935 57.0837 37.9841 57.8909 37.4863 58.6377C37.3369 58.8618 37.019 59.5557 37.245 59.409C37.5516 59.2098 38.1826 58.5537 38.3678 58.3596C39.6644 57.0007 40.9042 55.5854 42.1823 54.2093C44.9478 51.2317 47.7731 48.3158 50.6666 45.4626C54.5155 41.6674 49.4598 46.6593 52.2302 43.92C52.2675 43.8831 53.0106 43.1091 52.3561 43.8571C50.6064 45.8567 48.857 47.8534 47.1512 49.891C45.0432 52.409 42.7975 54.9147 40.9913 57.667C40.9242 57.7691 40.7441 58.0726 40.8443 58.0028C41.4976 57.5478 42.1605 56.6181 42.6545 56.0614C45.0468 53.3659 47.3656 50.6052 49.8376 47.9812C50.4275 47.3549 51.5508 46.2013 52.1777 45.5571C52.3891 45.3399 52.5998 45.1222 52.8126 44.9064C52.8482 44.8703 52.9563 44.7635 52.9228 44.8015C52.7599 44.9864 52.5906 45.1654 52.4243 45.3472C50.4547 47.5 48.5291 49.686 46.6475 51.9164C45.2937 53.5211 43.9045 55.1154 42.644 56.796C42.5731 56.8906 42.3801 57.1813 42.4709 57.1056C43.1317 56.5549 43.7127 55.74 44.2549 55.096C46.5341 52.3883 48.8299 49.6967 51.1283 47.0052C52.2326 45.7121 53.3414 44.4183 54.3919 43.0805C54.5591 42.8676 55.5026 41.884 55.4518 41.4907C55.4229 41.2663 55.0004 41.5842 54.8064 41.7006C53.6681 42.3835 52.6146 43.2371 51.6006 44.0879C49.1915 46.1092 46.9506 48.3327 44.6694 50.4944C44.275 50.8681 43.5455 51.5661 43.09 51.9688C42.9967 52.0514 42.3332 52.6425 42.7857 52.0213C44.3728 49.8421 46.1756 47.7858 47.891 45.7092C50.0096 43.1446 52.2349 40.6492 54.224 37.9805C54.5731 37.5121 55.771 35.8743 54.308 36.8996C52.2106 38.3696 50.4015 40.392 48.6308 42.22C46.6348 44.2807 44.5153 46.3996 42.8067 48.7157C39.673 52.9636 49.3069 40.3968 52.545 36.228C53.1364 35.4666 54.0777 34.2495 54.6753 33.4471C55.1699 32.783 55.8419 32.0279 56.1706 31.2487C56.2835 30.9811 56.1794 30.9829 55.9555 31.0913C55.1835 31.4652 54.4927 32.2499 53.8987 32.828C51.4596 35.2018 49.1441 37.702 46.8626 40.2262C45.6592 41.5576 45.4956 41.7494 44.4018 42.9913C44.0199 43.4249 42.9788 44.7365 43.1425 44.1824C43.2521 43.8115 44.0096 42.6243 44.1079 42.4719C45.081 40.9644 46.1496 39.5154 47.2036 38.0644C49.5786 34.7951 52.0336 31.5902 54.5126 28.3996C54.7281 28.1223 54.9852 27.869 55.1422 27.5548C55.3539 27.1314 54.3756 28.1135 54.0246 28.4311C51.5478 30.6724 49.2005 33.0571 46.8731 35.4515C44.8427 37.5403 42.8924 39.6925 40.9283 41.8422C40.6647 42.1308 40.4455 42.4816 40.1098 42.6818C39.6153 42.9765 40.6891 41.6854 41.0175 41.2126C43.2454 38.005 45.6996 34.9576 48.2215 31.978C50.3088 29.5121 52.4308 27.0395 54.7277 24.7635C54.922 24.571 56.2247 23.3248 55.2314 24.2755C52.6878 26.7104 50.2334 29.2333 47.8228 31.7996C46.1744 33.5544 44.5653 35.3524 42.8697 37.0623C42.4044 37.5314 41.3776 38.4236 42.0406 37.078C43.4042 34.3111 45.5209 31.8516 47.445 29.47C49.241 27.2469 51.0673 24.9686 53.1956 23.0477C53.258 22.9914 53.8077 22.5112 53.9932 22.4391C54.32 22.312 53.7072 23.0877 53.4895 23.3625C51.3872 26.0154 49.0682 28.5148 46.7419 30.9706C45.0179 32.7905 43.2854 34.6253 41.4635 36.3487C41.3061 36.4976 41.1546 36.6548 40.9808 36.7842C40.7779 36.9352 40.6728 36.9056 40.7709 36.6268C41.185 35.4502 42.0523 34.3047 42.7437 33.3002C45.8618 28.7703 49.6492 24.8136 53.3163 20.7391C56.5032 17.1981 46.6355 27.5323 43.2737 30.9076C42.7532 31.4302 41.7221 32.4864 41.091 33.0012C39.7248 34.1154 41.2237 31.9468 41.2431 31.915C41.4919 31.508 41.7694 31.1184 42.0039 30.703C42.1374 30.4665 42.3704 30.2335 42.345 29.9632C42.3268 29.7696 40.3097 31.5339 40.2619 31.5792C40.2533 31.5875 38.5897 33.2269 39.2388 32.1774C40.331 30.4112 41.6374 28.7352 42.8697 27.0721C44.5742 24.7717 46.3006 22.4851 48.1376 20.2878C49.5039 18.6535 51.0726 17.1718 52.3981 15.5079C52.4864 15.397 52.655 15.1743 52.3981 15.382C51.673 15.9682 51.0253 16.7148 50.3833 17.381C47.6476 20.2196 44.9295 23.0771 42.2348 25.9545C41.753 26.469 40.8584 27.437 40.3354 27.9851C39.8997 28.4417 39.3379 29.1777 38.7561 29.491C38.6455 29.5505 38.7744 29.2308 38.84 29.1237C39.5794 27.916 40.4938 26.7835 41.3481 25.6607C43.3799 22.9903 45.489 20.3845 47.7283 17.8847C48.4818 17.0437 50.7362 14.5478 50.1419 15.5079C49.6348 16.327 48.7926 17.0923 48.1586 17.7903C46.7761 19.3123 45.3893 20.8309 43.9978 22.3446C42.1242 24.3827 40.2098 26.3791 38.2524 28.3366C37.9935 28.5955 37.7713 28.9016 37.4653 29.1027C36.9602 29.4347 38.2126 28.152 38.6039 27.6913C42.6027 22.9839 46.8708 18.5226 51.0234 13.9548C54.0657 10.6082 44.6369 20.3614 41.3795 23.499C39.733 25.0849 38.101 26.7883 36.2795 28.1792C35.8183 28.5314 35.9247 28.2474 36.1274 27.8854C36.7565 26.762 37.585 25.7306 38.3678 24.7163C41.9616 20.0595 45.8365 15.7283 49.8166 11.41C52.5392 8.45612 43.6602 16.577 40.7079 19.3014C39.8333 20.1086 38.6398 21.1964 37.7277 21.9878C37.0753 22.5539 36.383 23.2001 35.6079 23.6091C35.4668 23.6836 35.1754 23.8424 35.1357 23.6879C35.0039 23.1755 36.2108 21.784 36.374 21.5681C38.0111 19.4018 39.8503 17.3705 41.8098 15.4921C42.5293 14.8024 43.2637 14.1207 44.0345 13.4878C44.1588 13.3857 44.2852 13.2856 44.4175 13.194C44.7212 12.9837 44.5336 13.195 44.3913 13.3514C42.6314 15.2848 40.62 17.0229 38.7141 18.8082C36.9138 20.4946 35.1351 22.2387 33.1943 23.7666C33.0333 23.8933 32.6526 24.2908 32.6696 24.0866C32.7119 23.579 34.1346 22.1719 34.3277 21.9459C36.7733 19.0824 39.3696 16.3504 42.0879 13.7449C43.4706 12.4196 42.8758 13.0126 44.0817 11.8665C44.4225 11.5427 45.4782 10.6441 45.0524 10.8434C44.7189 10.9995 44.4689 11.2934 44.1919 11.536C43.0631 12.5242 41.9711 13.5551 40.8653 14.5687C38.3909 16.8369 35.9228 19.1179 33.4042 21.3372C32.6323 22.0174 31.8517 22.7065 31.0326 23.3311C30.8081 23.5023 30.4652 23.7189 30.7807 23.2471C32.0858 21.2956 33.8439 19.5495 35.419 17.8218C37.5531 15.4809 39.7768 13.2263 42.0092 10.9798C42.5811 10.4043 44.3818 8.85823 43.6305 9.16434C43.4268 9.24733 42.8125 9.77777 42.8119 9.77823C41.3594 10.979 39.9423 12.2248 38.5252 13.4668C36.015 15.6669 33.5528 17.9243 30.9276 19.9888C30.9271 19.9892 28.1266 22.268 28.7974 21.0854C30.2339 18.5528 32.5353 16.3527 34.59 14.3326C36.8844 12.0768 39.3586 10.0277 41.7206 7.84736C42.7059 6.93787 39.6365 9.53513 38.5882 10.3711C36.0878 12.3651 33.6267 14.4192 31.0588 16.3264C30.6319 16.6435 29.9799 17.1208 29.4952 17.423C29.0484 17.7017 28.9547 17.6385 29.3011 17.1921C30.7781 15.2889 32.6518 13.6417 34.3696 11.9662C35.3612 10.9991 36.3375 10.0519 37.3342 9.09088C37.9532 8.49399 39.8292 6.75298 39.1024 7.21248C38.3483 7.6892 35.8342 9.65074 35.524 9.87792C34.6755 10.4992 33.8472 11.154 32.9477 11.6986C31.7857 12.4022 31.3057 13.0162 30.9224 11.7983C30.6995 11.0898 31.199 10.4589 29.9622 11.0532C28.445 11.7823 27.3214 13.1288 25.9431 14.0545C25.9128 14.0748 25.832 14.0206 25.8539 13.9915C26.421 13.2353 29.2176 10.2306 29.2958 10.1455C31.0014 8.29083 32.8461 6.48394 34.4536 4.53655C34.5287 4.44555 34.6924 4.20879 34.4116 4.32667C33.5164 4.70252 32.6407 5.36049 31.8406 5.88501C29.4397 7.45907 27.1153 9.14694 24.7258 10.7384C24.3506 10.9883 22.8973 11.9498 22.4276 12.2285C21.6311 12.7013 21.2953 12.7733 22.2545 11.7668C23.4247 10.5389 25.4448 8.65039 26.5674 7.59026C27.3924 6.81125 28.2231 6.03833 29.0492 5.26062C29.5914 4.75025 31.315 3.3631 30.6548 3.70753C30.2179 3.93546 29.8902 4.32944 29.5005 4.63099C28.3395 5.52932 27.138 6.37315 25.9378 7.21773C25.2738 7.68497 24.1661 8.46591 23.4508 8.93872C23.0592 9.19753 22.1347 9.95153 22.7214 9.00693C22.952 8.63575 23.5156 7.94412 23.1202 7.75816C22.8493 7.63075 22.5194 7.75802 22.223 7.80014C21.8244 7.85677 20.8018 8.1881 21.0162 7.84736C21.2072 7.54378 21.5205 7.33658 21.7875 7.09705C22.5997 6.36836 23.4499 5.68285 24.264 4.9563C24.8704 4.4152 25.6201 3.83655 26.1267 3.18284C26.7029 2.43939 24.5242 4.17284 23.7708 4.73593C22.0844 5.99637 20.4226 7.2896 18.7285 8.53996C18.5183 8.69513 17.2938 9.49613 17.3066 9.47916C18.0549 8.486 19.0459 7.66708 19.8776 6.74551C19.8941 6.72717 21.3495 5.03594 20.8116 5.23964C19.2972 5.81303 17.9045 7.24752 16.698 8.26187C16.0257 8.82708 15.2801 9.47109 14.6202 10.0616C14.3166 10.3332 13.543 10.8827 13.3819 11.3366C13.1093 12.1047 14.747 10.4325 15.3443 9.87792" stroke="#79EFEF" stroke-linecap="round"/>
<path d="M6.75032 16.4887C5.80262 17.1015 5.87036 16.8346 6.59292 15.8696C7.5183 14.6337 8.57456 13.4839 9.70959 12.4381C9.74875 12.402 10.8321 11.3301 11.0738 11.3992C11.3025 11.4645 10.8104 11.797 10.654 11.9764C10.2834 12.4015 9.21723 13.5765 8.93305 13.8915C7.76578 15.1854 6.59445 16.4765 5.44908 17.79C4.7492 18.5925 3.94926 19.4179 3.41327 20.3505C2.73438 21.5317 5.54216 18.6444 6.52995 17.706C8.32877 15.9971 10.105 14.2373 11.9658 12.5955C12.3518 12.2549 11.2609 13.3459 10.9111 13.7236C8.91813 15.8756 6.90953 18.021 5.00309 20.2508C4.97281 20.2862 4.09286 21.1835 4.11636 21.5048C4.14843 21.9431 4.89066 21.0737 5.21822 20.7807C7.52905 18.7136 9.66367 16.4572 12.013 14.4319C12.1738 14.2933 12.3362 14.1565 12.501 14.0227C12.6237 13.9229 12.7943 13.6233 12.8892 13.7498C12.9193 13.7899 12.844 13.8396 12.8158 13.881C12.6568 14.1138 12.3278 14.5208 12.1809 14.6995C10.369 16.9037 8.36073 18.9345 6.58242 21.169C6.21251 21.6338 5.79789 22.1127 5.48581 22.6224C5.44285 22.6926 5.39563 22.8895 5.47532 22.869C5.73597 22.802 6.15741 22.4246 6.28859 22.3128C8.28101 20.6144 10.0435 18.6525 11.9973 16.9085C12.3232 16.6176 12.5983 16.3772 12.1442 16.9767C11.0647 18.4016 9.92912 19.788 8.77564 21.1532C7.8367 22.2646 6.86763 23.3502 5.9318 24.4641C5.56653 24.8988 4.81617 25.6005 4.67254 26.1955C4.5745 26.6017 5.38493 25.7508 5.69569 25.4715C7.28502 24.0431 8.78726 22.5219 10.3287 21.0431C11.2437 20.1653 12.1776 19.307 13.1411 18.4826C13.5458 18.1363 14.7212 17.1294 14.4738 17.6011C14.1232 18.2696 13.4215 18.9419 12.9522 19.5005C11.8959 20.7577 10.8051 21.9817 9.70959 23.2048C8.56835 24.4789 7.42951 25.754 6.32007 27.056C5.83079 27.6303 5.25116 28.2134 4.82995 28.8452C4.72554 29.0019 5.15886 28.6577 5.30217 28.5357C6.37513 27.6221 7.39631 26.6502 8.41885 25.6813C9.446 24.7081 10.4686 23.7308 11.5355 22.8008C11.9321 22.4551 13.0893 21.3962 12.7633 21.8091C11.3258 23.63 9.58385 25.2605 8.00959 26.9616C7.17967 27.8584 6.35739 28.7616 5.57501 29.7005C5.28868 30.0441 4.40123 30.9078 4.84044 30.8233C5.26931 30.7409 5.88667 30.0558 6.15217 29.8159C7.55388 28.5497 8.89937 27.2229 10.3182 25.9752C11.054 25.3282 11.8082 24.6981 12.6059 24.1283C13.61 23.411 12.7892 24.2956 12.5324 24.6005C10.9521 26.4771 9.30296 28.2906 7.66329 30.115C7.0972 30.7449 6.51381 31.3668 5.97378 32.0196C5.29633 32.8386 6.08265 32.2166 6.39353 31.9567C7.34128 31.1642 8.26574 30.3408 9.19539 29.5273C10.2407 28.6127 11.2538 27.534 12.4118 26.757C12.9076 26.4243 12.7446 26.8087 12.5744 27.098C11.9666 28.1312 11.1414 29.0541 10.3812 29.9733C9.59977 30.9183 8.80408 31.8518 8.04107 32.8119C7.57326 33.4006 6.83463 34.1389 6.55619 34.8582C6.43832 35.1627 7.13281 34.5417 7.37996 34.3283C8.95859 32.9655 10.4341 31.4817 11.9763 30.0783C12.8489 29.2842 13.7245 28.4673 14.6627 27.7486C15.4016 27.1827 15.0816 27.6854 14.7676 28.0739C12.85 30.4471 10.8959 32.7838 9.017 35.1888" stroke="#79EFEF" stroke-linecap="round"/>
<path d="M7.69474 41.2335C7.58463 41.4537 7.68716 41.2465 8.14598 40.7088C8.88975 39.837 9.58684 39.0177 10.3392 38.1483C10.918 37.4794 12.6898 35.5038 12.1022 36.1649C10.5265 37.9376 9.08342 39.8576 7.61079 41.7162C7.58438 41.7495 6.13871 43.44 6.76079 43.2588C7.75755 42.9685 7.01795 44.047 7.24351 44.5705C7.43323 45.0108 9.9416 42.2457 10.0873 42.094C11.2077 40.9272 12.345 39.776 13.5083 38.652C13.6509 38.5142 14.1692 38.0214 14.3688 37.844C14.4515 37.7705 14.5726 37.5687 14.6417 37.6551C14.7975 37.8499 13.4039 39.3397 13.3824 39.3656C11.437 41.7044 10.386 42.9978 8.56882 45.4384C8.38385 45.6869 7.97841 46.4092 8.27499 46.3199C9.29125 46.014 9.32223 46.0121 10.1083 45.3681C11.7214 44.0466 13.2392 42.61 14.7361 41.16C15.6095 40.314 16.4318 39.32 17.3963 38.5733C17.7631 38.2893 16.8655 39.3356 16.5673 39.6909C15.4172 41.0614 14.2366 42.4059 13.0886 43.7782C12.0337 45.0392 10.9749 46.2992 9.94043 47.577C9.66341 47.9192 9.42037 48.2209 9.17438 48.5792C9.09998 48.6875 8.87682 48.9576 9.00648 48.936C9.25388 48.8947 9.41656 48.6454 9.60463 48.4795C10.1718 47.979 10.6152 47.5463 11.1682 47.0051C12.7367 45.47 14.2807 43.9124 15.88 42.4088C16.9101 41.4403 17.9868 40.2128 19.2065 39.4653C20.4911 38.6779 17.7975 42.1397 16.9189 43.3637C15.7384 45.0082 14.072 47.2743 12.8787 48.936C12.4747 49.4986 11.156 51.0675 11.7139 50.657C12.1454 50.3395 12.4162 49.8477 12.7633 49.4397C13.3966 48.6952 13.8974 48.102 14.5472 47.3619C15.7578 45.9831 17.0108 44.6431 18.2726 43.3113C18.5116 43.0589 19.1307 42.4033 19.4269 42.1254C19.5373 42.0219 19.8126 41.7225 19.8047 41.8736C19.7908 42.1372 19.5392 42.331 19.3849 42.5452C19.063 42.9922 18.5387 43.674 18.2096 44.0878C17.0026 45.6053 15.7316 47.0705 14.5263 48.5897C13.6716 49.6668 12.8397 50.7638 12.0287 51.8743C11.3499 52.8038 12.2246 52.1267 12.6216 51.7746C15.4597 49.2569 17.9568 46.3557 20.7176 43.752C21.1435 43.3503 22.302 42.0796 22.0504 42.6082C21.6448 43.4598 20.6549 44.3293 20.067 45.027C17.6327 47.9161 15.9352 49.7622 13.9049 52.9625C13.5437 53.532 13.5244 53.8125 14.2145 53.3036C15.9338 52.0358 16.3649 51.31 17.8318 49.7755C19.3769 48.1592 20.9098 46.5295 22.4911 44.9483C22.6936 44.7458 23.1884 44.2571 23.4355 44.0458C23.5332 43.9624 23.7805 43.7288 23.7713 43.8569C23.7524 44.1227 23.5184 44.3266 23.3726 44.5495C23.0231 45.0841 22.5205 45.8096 22.1658 46.3125C21.0377 47.9119 19.8856 49.4915 18.7973 51.1187C17.9518 52.3827 17.0826 53.6506 16.3417 54.9804C16.191 55.251 15.8622 55.995 16.4886 55.4736C17.7235 54.446 18.7454 53.0581 19.8047 51.8638C21.4082 50.0559 22.9832 48.2049 24.7368 46.5381C24.9935 46.2941 25.6889 45.6228 25.1408 46.4699C24.3688 47.663 23.4763 48.7829 22.6433 49.9329C21.3352 51.7386 20.048 53.561 18.8182 55.4212C18.5374 55.846 17.7055 57.0409 18.1519 56.7959C19.3358 56.1459 20.3615 54.8665 21.2895 53.9258C22.8409 52.3534 24.3683 50.7571 25.9121 49.1773C26.547 48.5277 27.2197 47.8874 27.7852 47.173C28.4065 46.3883 26.5156 48.7205 25.8911 49.5026C24.0445 51.8154 22.1524 54.1384 20.5287 56.6175C20.4029 56.8096 20.0838 57.3625 20.6127 57.0058C21.6645 56.2964 22.5535 55.2679 23.4355 54.3718C24.6622 53.1255 25.8667 51.857 27.1084 50.6255C27.4477 50.289 28.3676 49.3093 28.2627 49.7755C28.0737 50.6156 27.2189 51.555 26.7516 52.231C25.5415 53.9815 24.328 55.7269 23.1417 57.4937C22.9721 57.7463 22.0512 58.7947 22.1605 59.1885C22.198 59.3232 22.417 59.0655 22.5173 58.9681C22.8436 58.6514 23.4206 58.0068 23.6769 57.7246C26.0316 55.1315 28.3267 52.4997 30.6081 49.8437C31.2257 49.1247 30.751 49.8132 30.5609 50.0798C29.7323 51.242 28.883 52.3905 28.0266 53.5323C26.9702 54.9409 25.8974 56.3365 24.8627 57.7613C24.5327 58.2158 23.7292 59.0241 23.6139 59.6292C23.5156 60.1457 24.3943 58.923 24.7578 58.5431C26.0831 57.158 27.377 55.7471 28.6562 54.3193C29.9132 52.9164 31.1771 51.5199 32.4393 50.1218C32.7237 49.8067 33.1058 49.3761 33.4152 49.0566C33.5291 48.9391 33.6489 48.6498 33.7877 48.7366C33.9141 48.8155 29.5159 54.8 29.2124 55.2165C28.415 56.3111 27.5529 57.3889 26.8408 58.5431C25.9987 59.9079 27.7432 58.3252 27.9689 58.1076C31.035 55.1506 33.7759 51.87 36.9516 49.0199C37.3068 48.7012 38.2889 47.8864 38.2214 48.3588C38.0903 49.2763 37.2793 50.279 36.8047 51.0242C35.765 52.6568 34.6508 54.2362 33.5097 55.799C32.8932 56.6432 32.1692 57.4843 31.6732 58.4119C31.3495 59.0175 32.7932 57.6067 33.2788 57.1212C34.3576 56.0424 35.8368 54.5073 36.8782 53.4168C37.3703 52.9015 37.8587 52.3825 38.3473 51.8638C38.701 51.4882 39.6219 50.3056 39.4702 50.7986C39.187 51.719 38.5433 52.4883 38.1322 53.3591C37.9255 53.797 37.6434 54.2261 37.5918 54.7076C37.5771 54.8446 37.8431 54.9303 37.9695 54.8755C38.4614 54.6621 39.8886 53.298 40.1995 53.0181C40.6894 52.577 41.2733 52.0489 41.7946 51.6224C41.8139 51.6065 42.9663 50.6228 42.6393 51.3968C42.1308 52.6003 41.0664 53.6895 40.2362 54.6656C39.1094 55.9905 37.9235 57.2661 36.7208 58.5221C36.5664 58.6834 35.7979 59.6817 35.4773 59.6817C35.3355 59.6817 35.6315 59.4429 35.7239 59.3354C36.0872 58.9123 36.6439 58.3057 36.9884 57.9292C38.732 56.0234 40.4927 54.1331 42.2406 52.231C42.7935 51.6293 43.3989 50.7044 44.0875 50.2372C44.2611 50.1194 43.8443 50.5799 43.7097 50.7409C43.2903 51.2427 42.6469 51.9729 42.2406 52.4409C39.6737 55.3977 38.2201 57.4349 35.8214 60.5286C35.7069 60.6763 35.5927 60.8242 35.4751 60.9694C35.4283 61.0271 35.3901 61.1785 35.3282 61.1373C35.2668 61.0963 35.4027 61.0098 35.4436 60.9484C35.5566 60.7788 35.6714 60.6104 35.7899 60.4447C37.0731 58.6495 37.477 57.9479 38.872 56.2397C40.5587 54.1744 42.2289 52.0976 43.8566 49.9854C44.4717 49.1871 45.4803 47.8635 46.0918 47.0261C46.5593 46.3859 47.1661 45.6587 47.4717 44.9063C47.534 44.7532 47.622 44.5367 47.3458 44.665C47.0028 44.8242 46.4614 45.3338 46.2492 45.5255C44.4127 47.1843 42.7002 48.9873 41.0338 50.8144C37.5491 54.6349 35.3254 57.7116 31.755 61.4521C29.1777 64.1521 35.604 56.7757 38.0692 53.973C40.3659 51.362 42.701 48.7818 44.9375 46.1184C45.5916 45.3394 46.0744 44.7504 46.669 43.9514C46.9626 43.5567 47.6979 42.7467 47.7393 42.1779C47.75 42.0314 47.4264 42.0949 47.2986 42.1674C46.8753 42.4076 46.0483 43.0821 45.7455 43.3427C43.5146 45.2635 41.5299 47.4515 39.5331 49.6076C37.3264 51.9904 35.1102 54.3664 32.943 56.7854C32.2455 57.5639 31.5385 58.6422 30.6973 59.2934C30.1206 59.7399 31.5958 58.1442 32.0615 57.5829C34.1465 55.0701 36.2739 52.5951 38.4418 50.1533C40.6202 47.6996 42.8254 45.2699 45.0634 42.8705C45.6719 42.2182 47.5608 40.3449 46.8369 40.8662C45.6155 41.7456 44.5092 43.109 43.4578 44.1508C40.7287 46.855 38.042 49.5994 35.3776 52.3675C33.6097 54.2041 31.8249 56.0294 30.1359 57.9397C29.7926 58.328 29.4647 58.7298 29.118 59.115C29.084 59.1527 28.9806 59.2628 29.0078 59.22C29.0921 59.0871 29.1937 58.9658 29.2911 58.8422C33.4412 53.5764 38.0157 48.6552 42.1881 43.4057C43.3384 41.9585 44.4094 40.5947 45.4517 39.077C45.9116 38.4073 46.7815 37.2515 46.8421 36.3171C46.906 35.3316 46.3903 34.9564 45.5881 34.5384C45.2006 34.3364 44.7748 34.2097 44.3498 34.1081C42.1083 33.5725 44.3319 34.2379 42.6393 34.0557" stroke="#79EFEF" stroke-linecap="round"/>
<path d="M46.2283 24.4223C46.3673 24.2636 48.1819 22.2125 48.5579 21.7254C49.2884 20.779 46.9108 23.4592 46.1181 24.3541C44.4375 26.2511 42.7335 28.1287 41.0653 30.0365C40.9746 30.1402 40.1136 31.2468 40.1995 31.2118C40.6474 31.0293 41.1468 30.5197 41.485 30.2254C42.7674 29.1094 43.9815 27.9209 45.1894 26.7257C47.4219 24.5165 49.6438 22.2987 51.9264 20.1408C52.3913 19.7013 52.8542 19.2543 53.3326 18.829C53.3698 18.796 53.4373 18.6861 53.4481 18.7346C53.4971 18.9554 53.1675 19.0897 53.0178 19.2593C49.0222 23.7863 44.5766 27.9243 40.4147 32.2979C40.3457 32.3704 39.8749 32.8677 39.7011 33.0168C39.4896 33.198 40.0072 32.5501 40.1838 32.3347C42.1047 29.9912 44.1669 27.741 46.2912 25.5818C48.5108 23.3259 50.8548 21.1383 53.3746 19.2173C53.6831 18.9821 54.5156 18.3183 54.4135 18.6926C54.2368 19.3403 53.3705 20.116 52.9548 20.5605C50.547 23.1354 47.8449 25.4582 45.1894 27.7698C43.8499 28.9358 42.4918 30.0787 41.1073 31.1908C40.5486 31.6396 39.915 32.2681 39.2498 32.576C38.9845 32.6989 39.0605 32.5247 39.1344 32.3504C39.4565 31.5913 39.9994 30.8724 40.4357 30.1834C42.1257 27.5139 43.7371 24.8151 45.2838 22.0612" stroke="#79EFEF" stroke-linecap="round"/>
<path d="M42.6385 14.8833C41.7656 15.6034 40.9288 16.5421 40.1567 17.3389C39.2367 18.2883 36.4576 21.0846 37.528 20.3087C38.2215 19.8058 38.806 19.0741 39.3906 18.4565C40.6187 17.1591 41.8605 15.8761 43.1107 14.6C43.9088 13.7853 44.7046 12.9687 45.4928 12.1444C45.7083 11.9191 45.9415 11.7085 46.1329 11.4623C46.1857 11.3944 45.9716 11.5271 45.9021 11.5778C43.5094 13.3228 41.4015 15.4103 39.144 17.3179C38.6176 17.7628 38.0916 18.2137 37.5542 18.6454C37.1825 18.9439 37.0588 18.9189 37.4283 18.4985C39.6074 16.0188 42.0959 13.8099 44.4277 11.4781C44.943 10.9627 45.4808 10.4428 45.944 9.87776C45.9796 9.83439 46.0035 9.6825 45.9545 9.70986C45.6822 9.86204 45.0092 10.3783 44.8422 10.5074C42.2593 12.5033 39.7682 14.6134 37.2236 16.6568C36.8554 16.9525 36.4411 17.361 36.0168 17.5907C35.3877 17.9316 36.959 16.5121 37.465 16.0062C39.4652 14.006 41.6096 12.1399 43.5567 10.0876C44.3648 9.23583 41.6329 11.4353 40.6971 12.1444C39.3441 13.1697 38.0487 14.2636 36.7409 15.3451C36.4829 15.5584 35.8802 16.0585 35.5656 16.2895C35.4407 16.3812 35.2068 16.6564 35.1563 16.5099C35.1334 16.4432 35.2037 16.376 35.2403 16.3157C35.4616 15.9509 35.9259 15.3664 36.148 15.088C37.4209 13.4923 38.788 11.9746 40.0832 10.3972C41.1412 9.10865 42.187 7.80244 43.1789 6.462C43.4812 6.05346 44.2815 4.92669 43.7928 5.06632C42.9553 5.30561 42.0784 6.0802 41.4212 6.58268C39.3124 8.19506 37.3178 9.96098 35.3452 11.7352C33.6297 13.2782 28.6137 18.047 30.2452 16.4154C32.2131 14.4475 34.3039 12.587 36.3684 10.7225C37.7903 9.43841 39.2356 8.18144 40.6761 6.91849C40.8506 6.76555 41.573 6.13359 41.8147 5.91108C41.8884 5.84322 41.9801 5.78818 42.0298 5.7012C42.0539 5.65909 41.9392 5.73758 41.8986 5.76416C39.3321 7.44568 36.9417 9.53999 34.6002 11.5148C33.1461 12.7411 31.7388 14.0163 30.3292 15.2926C30.2323 15.3803 29.1903 16.3356 29.9199 15.513C32.2088 12.9325 34.5841 10.4258 36.998 7.96263C37.7951 7.14923 38.7456 6.34028 39.4273 5.41786C39.6828 5.07231 38.5881 5.65381 38.2258 5.88484C35.3604 7.71204 32.7716 10.0938 30.2662 12.3753C29.1936 13.352 28.1359 14.353 27.118 15.387C27.0615 15.4444 26.9136 15.6295 26.9816 15.5864C27.1843 15.4583 27.6606 15.067 27.7896 14.9568C30.637 12.5267 33.3317 9.91473 36.169 7.46941C37.4863 6.33411 38.8334 5.22886 40.1252 4.06416C40.1941 4.00204 40.397 3.8141 40.3193 3.86477C40.0705 4.02704 39.8372 4.21195 39.5952 4.38422C35.9961 6.94632 32.5224 9.65567 29.0909 12.4383C27.5517 13.6864 26.0284 14.9559 24.4736 16.1846C24.3795 16.259 22.9369 17.4115 23.7915 16.3944C26.605 13.0458 29.9661 10.0667 33.2202 7.15985C33.6308 6.79306 34.645 5.888 35.1721 5.46509C35.3145 5.35081 36.0661 5.00106 34.8205 5.74842C34.0276 6.22419 32.8859 6.73409 32.8162 5.4441C32.7801 4.77678 31.9869 5.59461 31.7458 5.77466C29.7899 7.23568 27.9234 8.82694 26.0162 10.35C22.8828 12.8522 19.7558 15.3594 16.3828 17.5278" stroke="#79EFEF" stroke-linecap="round"/>
<path d="M23.0889 6.6665C23.1 6.65629 23.7648 6.02006 23.3827 6.57205C22.3913 8.00404 21.0375 9.23298 19.8095 10.4548C19.0535 11.207 18.2929 11.9583 17.5166 12.69C17.3452 12.8516 17.1911 13.0442 16.9814 13.1517C16.9074 13.1896 17.0283 12.989 17.0759 12.9208C18.708 10.5835 20.9836 8.61198 23.0469 6.67175C23.9114 5.85878 24.8701 4.75971 25.9379 4.1847C26.754 3.7453 24.7402 5.60115 24.0963 6.26773C20.5193 9.97049 16.8155 13.5467 13.3086 17.3178C11.9019 18.8304 7.79452 23.4527 9.3209 22.061C10.0348 21.4101 10.6623 20.5784 11.3042 19.8678C13.3494 17.6038 15.4251 15.3644 17.5586 13.1832C19.7222 10.9712 21.9457 8.81978 24.2747 6.78193C25.1936 5.97789 25.1025 6.08589 25.9012 5.39674C25.9903 5.31988 26.0857 5.24885 26.1636 5.16063C26.19 5.1307 26.0904 5.19415 26.0586 5.21835C21.9359 8.35944 18.0366 11.9023 14.2058 15.3869C12.483 16.954 10.7859 18.5481 9.04806 20.0986C8.32201 20.7465 6.86992 22.0222 6.08879 22.6906C5.66917 23.0497 5.31136 23.5257 4.79804 23.7295C4.74039 23.7524 4.83087 23.6073 4.86625 23.5564C5.16308 23.129 6.00735 22.1741 6.2357 21.9141C8.15857 19.7247 10.1747 17.6254 12.3221 15.6545C15.0021 13.195 17.792 10.7961 20.7435 8.66558C21.1282 8.3879 22.0259 7.71874 22.6166 7.53749C23.0827 7.39448 22.8491 7.75894 22.7268 7.97299C21.9858 9.26972 20.8753 10.4611 19.9197 11.5881C17.172 14.8286 14.2831 17.9494 11.4407 21.1061C9.88273 22.8362 8.3269 24.5677 6.80762 26.332C6.76333 26.3834 5.00459 28.1548 5.14434 28.4518C5.16376 28.493 5.24024 28.4832 5.28076 28.4623C5.67648 28.2578 6.46284 27.554 6.67644 27.3604C9.03736 25.2205 11.2304 22.8879 13.403 20.5604C17.5935 16.071 21.708 11.5113 25.9222 7.04428" stroke="#79EFEF" stroke-linecap="round"/>
<path d="M22.2385 16.8667C21.5931 19.9292 19.5495 22.7419 17.957 25.3457C15.8089 28.8579 13.4812 32.2654 11.3668 35.7976C11.129 36.1951 10.3097 37.4844 11.5033 36.7946C13.123 35.8585 14.4993 34.3847 15.8372 33.1112C19.6972 29.4371 23.4069 25.6109 27.2441 21.9142C28.3835 20.8166 29.5373 19.6983 30.833 18.7818C31.5315 18.2878 32.6611 17.7054 31.7459 19.1176C30.6902 20.7468 29.3647 22.2236 28.136 23.7192C26.3178 25.9325 24.4944 28.1403 22.7317 30.3985C19.8386 34.105 16.9533 37.9035 14.5465 41.9523C14.3093 42.3513 13.622 43.4906 14.0113 43.2378C14.8012 42.7247 15.5468 41.5322 16.0786 40.8399C20.3364 35.2971 24.4148 29.6164 29.2274 24.5272C30.3741 23.3146 31.5619 22.1217 32.7953 20.996C32.8861 20.9132 33.1291 20.6478 33.0787 20.7599C32.8152 21.3454 32.2363 21.7291 31.8089 22.2081C28.2503 26.196 24.6328 30.1318 21.1681 34.2026C19.6857 35.9443 18.2155 37.7008 16.7922 39.4915C16.1323 40.3216 15.412 41.1822 14.8928 42.1149C14.6658 42.5227 14.5799 42.9626 15.2286 42.6606C16 42.3015 16.6361 41.7048 17.2434 41.1285C18.5078 39.9288 19.7771 38.4967 20.9425 37.2248C24.6411 33.1884 28.357 29.1164 32.7061 25.7603C33.031 25.5096 33.356 25.258 33.6978 25.0309C33.9051 24.8932 34.4381 24.563 34.4114 24.8106C34.3339 25.5287 33.0834 26.767 32.7219 27.1979C29.3259 31.2446 25.5923 35.1914 21.5984 38.652C20.3257 39.7547 18.9573 40.8617 17.3903 41.5273C16.8073 41.7749 16.0039 41.9806 15.3545 41.989C14.0519 42.0059 15.2285 41.8574 14.1162 41.7057" stroke="#79EFEF" stroke-linecap="round"/>
<path d="M9.2052 31.1279C7.59676 33.0145 6.07824 34.9744 4.55642 36.931C3.18758 38.691 4.96772 36.3257 5.19655 36.0076C6.07523 34.786 6.97987 33.5853 7.90396 32.3977C8.4194 31.7352 8.5538 31.5709 9.0373 30.96C9.20512 30.748 9.77379 30.2264 9.51477 30.3041C9.07202 30.437 8.44804 31.3529 8.16631 31.6579C7.06103 32.8544 5.98186 34.0752 4.91321 35.3045C4.63533 35.6241 3.8604 36.6207 4.06321 36.2489C4.73985 35.0084 5.68888 33.8344 6.48729 32.6705C7.42969 31.2967 8.42721 29.9616 9.36261 28.5832C9.369 28.5737 10.1781 27.164 10.1549 27.1717C9.47546 27.3982 8.62388 28.5912 8.17156 29.0659C6.61471 30.6996 5.14525 32.4108 3.69592 34.1397C3.64092 34.2053 2.8464 35.2486 2.95086 35.1681C4.17485 34.2238 5.18678 32.8256 6.19346 31.6736C7.33805 30.3638 8.52972 29.061 9.55675 27.6544C9.6799 27.4858 9.96418 26.9605 9.78761 27.072C8.47762 27.8994 7.38187 29.3231 6.27742 30.3724" stroke="#79EFEF" stroke-linecap="round"/>
<path d="M5.05062 22.439C4.88285 22.597 3.27815 24.1748 4.42624 23.4464C4.53813 23.3754 6.4131 22.1349 6.43056 22.2921C6.45508 22.5127 6.14876 22.9306 6.05803 23.0791C5.63071 23.7784 5.14731 24.442 4.65185 25.0939C3.85622 26.1408 2.82767 27.1221 2.15956 28.2578C1.86508 28.7585 3.49578 27.4327 3.51327 27.4183C4.08893 26.946 4.64991 26.4589 5.19754 25.9544C5.47433 25.6994 5.77558 25.3296 6.121 25.1569C6.28138 25.0767 6.02952 25.5101 5.93211 25.6606C5.51488 26.3054 5.05488 26.9226 4.58364 27.5285C3.64004 28.7417 2.4367 28.9071 1.70308 30.2696C1.29128 31.0343 2.77162 31.0208 2.84691 30.9705C3.8655 30.2899 4.85066 29.3166 5.96359 28.7983C6.08355 28.7424 5.97617 29.0766 5.91112 29.1918C5.6582 29.6398 5.3782 30.0743 5.10309 30.5088C4.43032 31.5713 3.52671 32.6863 3.11975 33.8878C2.81504 34.7874 4.87578 33.0684 4.94568 33.0063C5.87832 32.1773 7.11453 31.2145 7.75804 30.1205C8.64588 28.6112 5.51136 32.933 5.05062 34.6224" stroke="#79EFEF" stroke-linecap="round"/>
<path d="M5.04929 39.4389C3.40222 40.9945 7.79938 35.836 9.25208 34.0976C10.1936 32.9708 11.1332 31.8399 12.1117 30.7448C12.6521 30.1399 13.0849 29.6544 13.4549 28.9556" stroke="#79EFEF" stroke-linecap="round"/>
<path d="M5.42817 38.2112C4.90005 38.5169 6.00076 37.1313 6.33589 36.6213C7.11683 35.4329 7.91659 34.2489 8.83868 33.1636C9.35191 32.5595 9.94835 32.0352 10.4337 31.4111" stroke="#79EFEF" stroke-linecap="round"/>
<path d="M5.61719 39.9112C6.23593 39.8319 7.20989 38.7344 7.52707 38.4316C8.68164 37.3292 9.75881 36.169 10.7592 34.9266C10.9069 34.7432 11.4957 34.1959 11.3783 33.9612" stroke="#79EFEF" stroke-linecap="round"/>
<path d="M5.61719 41.6113C7.68622 39.4892 9.45295 37.0652 11.4518 34.8742C12.0521 34.2161 12.6839 33.5954 13.2672 32.9224" stroke="#79EFEF" stroke-linecap="round"/>
<path d="M11.2827 48.4112C10.5368 48.5888 11.5119 47.7024 11.6185 47.5717C12.8741 46.033 14.1947 44.5575 15.4907 43.0541C16.9867 41.3188 18.5333 39.5668 19.7827 37.6445" stroke="#79EFEF" stroke-linecap="round"/>
<path d="M12.6055 49.4502C17.0711 45.0492 20.975 40.1003 24.9777 35.2834" stroke="#79EFEF" stroke-linecap="round"/>
<path d="M47.6446 9.68896C45.0026 11.6813 42.2861 13.5744 39.6273 15.5445C38.874 16.1027 38.0874 16.6252 37.4026 17.2655C37.3084 17.3537 37.6125 17.1134 37.7279 17.0557" stroke="#79EFEF" stroke-linecap="round"/>
<path d="M47.8341 9.40552C46.2614 11.0465 44.1251 12.217 42.8285 14.1278C42.4565 14.676 43.7084 13.8522 43.8674 13.75" stroke="#79EFEF" stroke-linecap="round"/>
<path d="M49.0613 10.0667C46.5885 12.3038 43.9855 14.4782 41.7366 16.9506C41.6528 17.0428 41.4177 17.3325 41.5058 17.2445" stroke="#79EFEF" stroke-linecap="round"/>
<path d="M44.5277 7.7998C42.3535 10.5452 40.237 13.3324 38.1055 16.1109" stroke="#79EFEF" stroke-linecap="round"/>
<path d="M44.3402 7.42236C41.6045 10.2341 38.6164 12.79 35.9189 15.6443C34.8755 16.7483 35.3074 16.3014 34.7593 17.0085C34.6863 17.1027 34.8424 16.7846 34.8958 16.678" stroke="#79EFEF" stroke-linecap="round"/>
<path d="M41.1273 6.28882C40.7532 7.34895 39.529 8.4378 38.8187 9.24809C37.7751 10.4386 36.6628 11.5508 35.5446 12.6691C35.2059 13.0078 35.0465 13.2098 35.4396 12.7111C36.1687 11.7863 36.8439 10.8281 37.5384 9.87772" stroke="#79EFEF" stroke-linecap="round"/>
<path d="M40.7509 6.28882C38.8005 8.30425 36.621 10.107 34.5176 11.9555" stroke="#79EFEF" stroke-linecap="round"/>
<path d="M39.9957 3.45557C37.9588 4.91831 36.064 6.59385 34.1244 8.17781C33.1083 9.00763 32.0989 9.84619 31.0655 10.6544C-8.32316 41.4561 39.5014 4.25246 28.7568 12.1445" stroke="#79EFEF" stroke-linecap="round"/>
<path d="M35.462 1.94434C32.9661 4.57728 30.2665 7.01961 27.623 9.49992" stroke="#79EFEF" stroke-linecap="round"/>
<path d="M32.8171 1.37769C29.4351 4.75971 26.213 8.32015 22.9004 11.7666" stroke="#79EFEF" stroke-linecap="round"/>
<path d="M30.5503 1C26.9907 3.8816 23.6836 7.12894 20.2559 10.1611" stroke="#79EFEF" stroke-linecap="round"/>
<path d="M29.3221 1.37769C25.394 6.71598 20.1548 11.1251 15.5332 15.8277" stroke="#79EFEF" stroke-linecap="round"/>
<path d="M12.7168 28.8149C14.0888 28.0935 13.0803 28.6493 15.335 27.1954C15.751 26.9271 20.3876 23.8703 21.1517 23.6729C22.5346 23.3157 20.5183 26.5074 19.7886 27.7352C17.8448 31.0063 15.7443 34.0049 14.0664 37.4252C13.9463 37.6701 12.2154 40.927 14.3228 39.3012C15.2966 38.5499 18.0574 35.504 18.8034 34.6586C21.4286 31.6837 23.7023 28.4513 26.1452 25.3329C27.0473 24.1815 29.6694 20.6871 28.9591 21.9657C28.704 22.4248 28.3051 22.7876 27.9806 23.2006C26.4459 25.1539 24.9466 27.1356 23.4595 29.1253C20.6845 32.8382 17.8313 36.5429 15.389 40.4888C15.1848 40.8187 14.3773 42.1955 14.2013 42.7426C14.1729 42.8311 14.1429 43.0078 14.2351 43.0193C14.8347 43.0942 15.1879 42.269 15.6049 41.8316C21.0081 36.1656 25.8897 30.0529 31.638 24.7121C31.8935 24.4747 33.5557 22.9269 32.4208 24.4422C30.2738 27.3087 27.8201 29.9555 25.5716 32.7422C23.8799 34.8389 22.1739 36.9564 20.7064 39.2202C20.6938 39.2396 19.9569 40.3168 19.9708 40.6103C19.9745 40.6866 20.1279 40.7034 20.1935 40.6642C20.7733 40.3185 22.1702 38.8834 22.4473 38.5994C26.7888 34.1499 30.833 29.4234 35.0727 24.8808C35.5296 24.3913 34.3222 25.9912 33.9121 26.5206C31.2009 30.0199 28.4601 33.4941 25.828 37.0541C24.0281 39.4886 22.0472 41.9671 20.6794 44.686C20.5197 45.0035 20.1725 45.8481 20.5107 45.7387C20.7843 45.6502 21.0117 45.4505 21.2327 45.2663C22.1931 44.466 23.8945 42.7194 24.6472 41.9329C28.1154 38.3084 31.4369 34.548 34.931 30.9472C35.904 29.9445 37.494 28.3424 38.5479 27.3303C38.9107 26.982 39.2797 26.64 39.6546 26.3046C39.9122 26.0741 40.5765 25.3727 40.5048 25.7108C40.3814 26.2924 39.8645 26.7143 39.5061 27.1886C38.5766 28.4189 37.8094 29.3518 36.8137 30.5828C33.2905 34.9387 29.6318 39.2594 26.5636 43.9572C26.085 44.6899 25.1061 46.2993 26.6985 44.902C30.0299 41.9788 33.1147 38.7036 36.1524 35.4818C37.6214 33.9238 41.8561 29.0914 40.4171 30.6773C37.9295 33.4187 31.1138 42.0924 33.9323 39.6925C34.8828 38.8833 38.4842 35.1311 39.3307 34.3212C40.9232 32.7974 40.3362 33.6237 39.4656 34.807C36.9915 38.1701 34.3232 41.3605 32.0361 44.8615C31.7848 45.2462 31.1668 46.1901 30.9025 46.7037C30.6775 47.1408 30.8871 46.917 31.0509 46.6902C32.3081 44.9495 33.0109 42.9121 33.8513 40.9612" stroke="#79EFEF" stroke-linecap="round"/>
<path d="M13.6806 30.2947C13.7064 30.6224 13.758 30.95 13.8353 31.2525C13.8611 31.3785 13.8869 31.5046 13.9127 31.6306C14.0933 32.4876 14.3512 33.3194 14.7124 34.1008C14.764 34.2268 14.8156 34.3528 14.8672 34.4536C14.9961 34.7309 15.1251 35.0082 15.2799 35.2854C15.3573 35.4115 15.4089 35.5375 15.4862 35.6635C15.641 35.9408 15.8216 36.218 16.0021 36.4953C16.0537 36.5709 16.1053 36.6717 16.1827 36.7474C16.2085 36.7726 16.2085 36.7978 16.2343 36.823C16.2601 36.8482 16.2859 36.8734 16.2859 36.8986C16.6986 37.4783 17.1629 38.0329 17.6788 38.5622C17.6788 38.5622 17.7046 38.5874 17.7046 38.6126C17.7304 38.663 17.782 38.6882 17.8336 38.7386C17.9368 38.8394 18.04 38.9403 18.1432 39.0411C18.1948 39.0663 18.2206 39.1167 18.2721 39.1671L18.2979 39.1923C18.8396 39.6964 19.4329 40.1753 20.052 40.6038C20.0778 40.629 20.1036 40.6543 20.1294 40.6543C20.5163 40.9063 20.9291 41.1332 21.316 41.36C21.3934 41.4104 21.4966 41.4608 21.5739 41.486C21.8835 41.6625 22.2188 41.8137 22.5542 41.9397C22.6574 41.9902 22.7347 42.0154 22.8379 42.0658C23.6634 42.3934 24.5404 42.6707 25.4175 42.8472C25.5206 42.8724 25.6496 42.8976 25.7528 42.9228C26.0881 42.9732 26.4235 43.0488 26.7846 43.074C26.9136 43.0992 27.0426 43.0992 27.1715 43.1244C27.6359 43.1748 28.0744 43.2 28.5387 43.2C31.6599 43.2 34.549 42.2674 36.9222 40.6795C36.9222 40.6795 36.948 40.6795 36.948 40.6543C37.3091 40.4274 37.6445 40.1753 37.9798 39.8981C38.0314 39.8477 38.083 39.8225 38.1346 39.772C38.3667 39.5704 38.5989 39.3688 38.831 39.1419L38.9342 39.0411C39.0374 38.9403 39.1406 38.8394 39.2438 38.7386L39.3727 38.6126C39.5017 38.4866 39.6049 38.3353 39.7339 38.2093C39.8629 38.0581 40.0176 37.932 40.1208 37.7556C40.3788 37.4531 40.6109 37.1507 40.8431 36.823C40.8431 36.823 40.8431 36.7978 40.8689 36.7978C42.5198 34.4536 43.5 31.6054 43.5 28.5303C43.5 28.0766 43.4742 27.6229 43.4226 27.1944C43.4226 27.0684 43.3968 26.9423 43.371 26.8163C43.3194 26.4886 43.2678 26.1357 43.2163 25.8081C43.1905 25.7072 43.1647 25.5812 43.1389 25.4804C42.9583 24.6234 42.6745 23.7664 42.3392 22.9598C42.2876 22.859 42.2618 22.7834 42.2102 22.6826C42.0555 22.3549 41.9007 22.0524 41.7459 21.7247C41.6943 21.6491 41.6685 21.5483 41.6169 21.4727C41.3848 21.0694 41.1526 20.6913 40.8947 20.3132C40.8689 20.288 40.8431 20.2628 40.8173 20.2376C40.6367 19.9855 40.4304 19.7335 40.2498 19.4814C40.2498 19.4562 40.2498 19.4562 40.224 19.431C40.1982 19.4058 40.1724 19.3806 40.1724 19.3554C39.5017 18.5236 38.7279 17.7926 37.8766 17.1121C37.8508 17.0869 37.825 17.0617 37.7992 17.0617C37.7992 17.0617 37.7734 17.0617 37.7476 17.0365C37.5155 16.86 37.2833 16.6836 37.0512 16.5323C37.0254 16.5071 36.9996 16.4819 36.9738 16.4819C36.948 16.4567 36.9222 16.4567 36.8964 16.4315C36.819 16.3811 36.7158 16.3307 36.6384 16.2803C36.3547 16.1038 36.0709 15.9274 35.7614 15.7762C35.6324 15.7006 35.5034 15.6501 35.3745 15.5745C35.0907 15.4233 34.807 15.2973 34.5232 15.1712C34.3942 15.1208 34.2911 15.0704 34.1621 15.02C33.3366 14.6923 32.4854 14.4403 31.6083 14.2386C31.4794 14.2134 31.3504 14.1882 31.2214 14.163C30.8861 14.1126 30.5507 14.0622 30.2154 14.0118C30.0864 13.9866 29.9574 13.9866 29.8027 13.9614C29.3383 13.9109 28.8998 13.8857 28.4355 13.8857C25.2885 13.8857 22.3736 14.8436 19.9746 16.4567C19.9746 16.4567 19.9488 16.4567 19.9488 16.4819C19.6651 16.6584 19.4071 16.86 19.1492 17.0617C19.1234 17.0869 19.0976 17.0869 19.0976 17.1121C18.2463 17.7674 17.4983 18.5236 16.8018 19.3554C16.776 19.3806 16.7502 19.4058 16.7502 19.4058C16.5181 19.6831 16.2859 19.9603 16.0795 20.2628V20.288C14.4544 22.6321 13.5 25.4552 13.5 28.5051C13.5 28.9588 13.5258 29.4125 13.5774 29.841C13.6548 30.0174 13.6548 30.1687 13.6806 30.2947ZM20.6195 38.4361C20.2842 38.1589 19.9488 37.8816 19.6135 37.6044L19.2782 37.2767C18.9944 36.9994 18.7107 36.6969 18.4527 36.3693L22.4768 32.4372C23.0443 33.269 23.7666 33.9747 24.6178 34.504L20.6195 38.4361ZM23.4054 28.5555C23.4054 27.9506 23.5344 27.3708 23.715 26.8415C23.7666 26.6651 23.8439 26.5138 23.9213 26.3626C23.9987 26.2114 24.0761 26.0601 24.1793 25.9089C24.7726 25.0015 25.6238 24.3209 26.6556 23.9176C27.2231 23.6908 27.8422 23.59 28.4871 23.59C28.6419 23.59 28.8224 23.59 28.9772 23.6152C29.0804 23.6152 29.1836 23.6404 29.2868 23.6656C29.3383 23.6656 29.3899 23.6908 29.4415 23.6908C29.5705 23.716 29.7253 23.7412 29.8543 23.7916C29.8543 23.7916 29.8801 23.7916 29.9058 23.7916C30.0606 23.842 30.1896 23.8672 30.3444 23.9428C31.7373 24.4722 32.8207 25.5308 33.3366 26.8919C33.3882 27.0179 33.4398 27.1692 33.4656 27.2952V27.3204C33.4914 27.4464 33.5172 27.5725 33.543 27.6985C33.543 27.7489 33.5688 27.7993 33.5688 27.8497C33.5946 27.9506 33.5946 28.0514 33.6204 28.127C33.6462 28.2782 33.6462 28.4295 33.6462 28.5807C33.6462 29.2108 33.5172 29.8158 33.3108 30.3703C32.9239 31.3785 32.2016 32.2355 31.273 32.7901C31.1182 32.8909 30.9635 32.9665 30.8087 33.0421C30.6539 33.1177 30.4733 33.1933 30.3186 33.2438C29.7769 33.4454 29.1836 33.5462 28.5645 33.5462C28.4097 33.5462 28.2549 33.5462 28.1002 33.521C27.997 33.521 27.9196 33.4958 27.8164 33.4706C27.7648 33.4706 27.7132 33.4454 27.6616 33.4454C27.5327 33.4202 27.4037 33.395 27.2747 33.3698H27.2489C27.1199 33.3194 26.9652 33.2942 26.8362 33.2438C25.4432 32.7396 24.334 31.681 23.8181 30.3199C23.7666 30.1687 23.715 30.0426 23.6634 29.8914V29.8662C23.6376 29.7402 23.586 29.6141 23.5602 29.4629C23.5602 29.4125 23.5344 29.3621 23.5344 29.3117C23.5086 29.2108 23.5086 29.11 23.4828 29.0092C23.4054 28.8832 23.4054 28.7067 23.4054 28.5555ZM28.5387 41.1332C28.1518 41.1332 27.739 41.108 27.3521 41.0827C27.2747 41.0827 27.1973 41.0575 27.1199 41.0575C26.733 41.0071 26.3719 40.9567 26.0107 40.8811C25.9592 40.8811 25.9076 40.8559 25.8302 40.8559C25.469 40.7803 25.1337 40.7047 24.7726 40.6038C24.7468 40.6038 24.721 40.5786 24.6694 40.5786C24.3083 40.4778 23.9471 40.3266 23.586 40.2005C23.5344 40.1753 23.4828 40.1501 23.4312 40.1249C23.0701 39.9737 22.7347 39.8225 22.3736 39.6208L26.6814 35.4115C26.7072 35.4115 26.733 35.4115 26.7588 35.4115C26.991 35.4619 27.2489 35.5123 27.4811 35.5627C27.5327 35.5627 27.6101 35.5879 27.6616 35.5879C27.9454 35.6131 28.2291 35.6383 28.5129 35.6383C29.1578 35.6383 29.7511 35.5627 30.3444 35.4115L34.6522 39.6208C32.8465 40.5786 30.7571 41.1332 28.5387 41.1332ZM38.5473 36.4449C38.3925 36.6213 38.2377 36.7978 38.083 36.949C37.9798 37.0498 37.8766 37.1759 37.7734 37.2767L37.4639 37.5791C37.2575 37.7808 37.0512 37.9824 36.819 38.1589C36.7674 38.2093 36.69 38.2597 36.6384 38.3101C36.5868 38.3605 36.5353 38.3857 36.4837 38.4361L32.4338 34.504C32.4338 34.504 32.4596 34.504 32.4596 34.4788C32.6402 34.3528 32.8207 34.2268 33.0013 34.1008C33.0271 34.0755 33.0529 34.0756 33.0529 34.0503C33.6462 33.5966 34.1363 33.0421 34.5748 32.4372L38.5989 36.3693C38.5731 36.3945 38.5731 36.4197 38.5473 36.4449ZM39.8371 22.5565C40.0176 22.8842 40.1982 23.2371 40.353 23.59C40.3788 23.6404 40.4046 23.6908 40.4304 23.7412C40.5851 24.0941 40.7141 24.447 40.8173 24.7998C40.8173 24.825 40.8431 24.8502 40.8431 24.9007C40.9463 25.2283 41.0494 25.5812 41.1268 25.9341C41.1268 25.9845 41.1526 26.0349 41.1526 26.1105C41.23 26.4634 41.2816 26.8415 41.3332 27.1944C41.3332 27.27 41.359 27.3456 41.359 27.4212C41.3848 27.7993 41.4106 28.1774 41.4106 28.5807C41.4106 30.7736 40.8173 32.8405 39.8113 34.6553L35.5034 30.4459C35.684 29.841 35.7614 29.2108 35.7614 28.5555C35.7614 28.2782 35.7356 27.9758 35.7098 27.6985C35.7098 27.6481 35.684 27.5977 35.684 27.5473C35.6582 27.2952 35.6066 27.0684 35.5292 26.8163C35.5292 26.7911 35.5292 26.7659 35.5292 26.7659L39.8371 22.5565ZM36.5353 18.7252L38.5989 20.7417C38.6247 20.7669 38.6247 20.7669 38.6505 20.7921L34.6264 24.7494C34.0847 23.9176 33.3624 23.2119 32.5112 22.6573L36.5353 18.7252ZM28.5387 15.9778C28.9256 15.9778 29.3383 16.003 29.7253 16.0282C29.8027 16.0282 29.8801 16.0534 29.9574 16.0534C30.3444 16.1038 30.7055 16.1543 31.0666 16.2299C31.1182 16.2299 31.1956 16.2551 31.2472 16.2803C31.5825 16.3559 31.8921 16.4315 32.2274 16.5323C32.279 16.5576 32.3564 16.5576 32.408 16.5828C32.7691 16.6836 33.1045 16.8096 33.4398 16.9608C33.5172 16.986 33.5946 17.0365 33.672 17.0617C33.9557 17.1877 34.2653 17.3137 34.549 17.465C34.6006 17.4902 34.6522 17.5154 34.7038 17.5406C34.7296 17.5406 34.7296 17.5658 34.7554 17.5658L30.4733 21.7499C30.4475 21.7499 30.4218 21.7499 30.396 21.7247C30.138 21.6491 29.8801 21.5987 29.6221 21.5735C29.5447 21.5735 29.4931 21.5483 29.4157 21.5483C29.132 21.5231 28.8224 21.4979 28.5129 21.4979C27.8422 21.4979 27.1973 21.5987 26.5782 21.7499L22.322 17.5658C24.1793 16.5576 26.2945 15.9778 28.5387 15.9778ZM18.4785 20.7669L20.5679 18.7252L24.592 22.6573C23.9729 23.0606 23.4054 23.5648 22.9411 24.1445C22.9153 24.1697 22.9153 24.1949 22.8895 24.1949C22.7605 24.3713 22.6316 24.5478 22.5026 24.7242C22.5026 24.7242 22.5026 24.7494 22.4768 24.7494L18.4269 20.8173C18.4527 20.7921 18.4527 20.7669 18.4785 20.7669ZM17.2403 22.5565L21.5482 26.7659C21.3934 27.3456 21.316 27.9253 21.316 28.5555C21.316 28.858 21.3418 29.1352 21.3676 29.4377C21.3676 29.5133 21.3934 29.5637 21.3934 29.6393C21.445 29.8914 21.4966 30.1435 21.5482 30.3955C21.5482 30.4207 21.5482 30.4459 21.5739 30.4711L17.2919 34.6301C17.2919 34.6049 17.2661 34.6049 17.2661 34.5797C17.2403 34.5293 17.2145 34.4788 17.1887 34.4032C17.034 34.126 16.905 33.8487 16.776 33.5714C16.7502 33.4958 16.6986 33.4202 16.6728 33.3446C16.5439 33.0169 16.4149 32.6892 16.2859 32.3364C16.2601 32.2607 16.2601 32.2103 16.2343 32.1347C16.1311 31.8322 16.0537 31.5046 15.9764 31.2021C15.9506 31.1517 15.9506 31.0761 15.9248 31.0257C15.8474 30.6728 15.7958 30.3199 15.7442 29.9418C15.7442 29.8662 15.7184 29.7906 15.7184 29.6897C15.6926 29.3117 15.6668 28.9336 15.6668 28.5303C15.6668 26.3878 16.2343 24.3461 17.2403 22.5565Z" fill="#0F4343"/>
</svg>
