<svg width="81" height="80" viewBox="0 0 81 80" fill="none" xmlns="http://www.w3.org/2000/svg">
<path d="M37.1753 18.1452C33.1528 15.0864 27.0299 16.45 22.6256 18.114C18.3858 19.7159 15.8597 22.479 14.7432 26.7753C12.4603 35.5601 13.935 44.9317 18.0457 52.9149C21.8948 60.3899 28.8671 67.5291 37.4868 68.9289C47.4782 70.5514 57.4763 64.8244 62.8008 56.5289C66.1362 51.3325 67.4209 45.4596 67.8169 39.3622C68.131 34.5241 67.8297 29.9898 65.6515 25.6069C61.9178 18.094 54.1733 12.5505 46.0702 10.6367C37.9101 8.70938 29.0497 11.6676 22.4387 16.5095C19.3488 18.7725 16.7332 21.6867 14.9301 25.0773C12.8817 28.9292 12.688 32.7013 12.5 36.932" stroke="#F4CDFF" stroke-width="3" stroke-linecap="round"/>
<path d="M15.8619 26.1888C15.5132 26.8208 17.1064 25.4474 17.6668 24.9925C19.8666 23.2073 21.9873 21.3274 24.173 19.5252C27.8021 16.5329 31.5112 13.6353 34.9607 10.4323C35.0946 10.3079 35.6414 9.79881 35.8474 9.59276C35.9325 9.50771 35.662 9.74626 35.5746 9.82887C34.5175 10.8279 34.4052 10.9692 33.1033 12.4471C30.2358 15.7021 27.3264 19.1606 24.5718 22.4845C23.1537 24.1956 21.7318 25.9043 20.3532 27.6475C19.8003 28.3466 19.1717 29.0089 18.7792 29.8092C18.2473 30.8936 20.6369 28.2633 21.5233 27.4428C24.5076 24.6808 27.5754 22.0233 30.7422 19.4727C33.8852 16.9414 37.1698 14.6064 40.3336 12.106C40.337 12.1034 40.8833 11.6686 40.9632 11.6023C41.0305 11.5465 40.8215 11.7049 40.7533 11.7597C38.7649 13.3588 36.8007 14.9934 34.8872 16.6814C29.733 21.2283 25.2317 26.3116 20.8674 31.6036C19.7864 32.9145 18.6761 34.2128 17.7088 35.6123C17.3488 36.1331 16.9896 36.8178 17.9029 35.9848C22.5906 31.7097 26.8335 26.9346 31.419 22.5474C33.7918 20.2773 36.2004 18.0441 38.6073 15.8104C40.1138 14.4123 41.6782 13.0532 43.083 11.5499C45.2748 9.20416 38.3002 15.8445 36.094 18.1767C30.8458 23.7249 25.9138 29.6261 21.1718 35.6123C20.2652 36.7568 19.3719 37.9174 18.5693 39.1382C18.2806 39.5773 17.9703 40.0678 18.6532 39.2956C23.7174 33.5699 28.5872 27.7218 34.1369 22.4425C36.5039 20.1909 38.9386 18.0074 41.3934 15.8523C42.4962 14.8843 43.5914 13.8104 44.783 12.9455C45.3435 12.5387 43.8194 13.9409 43.3243 14.4252C40.326 17.3585 37.3377 20.3039 34.52 23.4132C29.1377 29.3522 24.0021 35.519 19.3039 42.0136C18.9408 42.5155 17.7773 43.7009 17.6878 44.4167C17.6676 44.5781 17.9713 44.2479 18.0813 44.1281C19.1826 42.9289 20.1685 41.6121 21.2137 40.366C26.8014 33.7048 32.6682 27.2327 38.8854 21.1518C40.8642 19.2164 46.8327 13.4443 44.8092 15.3329C43.5623 16.4967 42.4089 17.7865 41.2308 19.0162C37.8872 22.5064 34.6188 26.0575 31.482 29.7357C26.7863 35.242 22.0665 40.937 18.4853 47.2605C18.4199 47.376 18.2594 47.7255 18.3594 47.6383C18.6268 47.4051 19.4025 46.3825 19.4613 46.3055C22.392 42.4653 25.1935 38.5348 28.3706 34.8882C31.6366 31.1395 35.0935 27.5423 38.5549 23.9746C40.8585 21.6001 43.1793 19.1852 45.6644 16.9962C45.7914 16.8843 46.2002 16.6043 46.1052 16.7443C45.8639 17.0998 44.7857 18.3095 44.657 18.4548C41.9838 21.475 39.2915 24.4756 36.6712 27.5425C31.4346 33.6716 26.1324 39.9609 22.0113 46.9194C21.8595 47.1758 21.299 48.0894 22.0637 47.229C24.8735 44.068 27.3264 40.5807 30.0496 37.3438C35.717 30.6073 41.923 24.3196 48.1672 18.119C48.4043 17.8836 48.8236 17.4737 49.1064 17.2166C49.2874 17.052 49.291 17.058 49.1117 17.269C47.6582 18.979 46.0941 20.6014 44.5993 22.2746C37.989 29.674 31.6612 37.3549 25.9989 45.508C25.2861 46.5344 24.3705 47.6016 23.8267 48.7401C23.7606 48.8785 24.0554 48.5339 24.152 48.4148C25.1864 47.1409 26.1393 45.8006 27.1113 44.4796C32.3793 37.3201 38.0227 30.4497 43.2509 23.261" stroke="#F4CDFF" stroke-linecap="round"/>
<path d="M24.0781 41.8667C24.1079 41.8597 24.144 41.8655 24.1673 41.8457C24.5372 41.5328 25.5104 40.4606 25.6365 40.3241C27.1411 38.6946 28.618 37.0395 30.0911 35.3815C32.7405 32.3998 35.3891 29.4262 38.1714 26.5667C38.8096 25.9107 39.4449 25.2416 40.1128 24.6148C40.343 24.3987 40.623 24.1833 40.2492 24.6778C38.4419 27.0684 36.2867 29.234 34.3516 31.5198C31.6527 34.7079 28.8258 37.9177 26.5862 41.4575C26.1369 42.1675 25.7163 42.9213 25.4161 43.7084C25.2247 44.2103 25.2826 44.3557 25.7362 43.9235C27.0754 42.6475 28.273 41.173 29.5139 39.8099C32.5293 36.498 35.5835 33.2202 38.7276 30.0296C39.6243 29.1197 40.5324 28.2208 41.4507 27.3327C42.2142 26.5944 44.4514 24.4345 43.9692 25.3809C43.4605 26.3793 42.7498 27.2621 42.0961 28.1722C41.82 28.5567 35.8807 36.4874 35.2751 37.3963C33.8364 39.5557 39.0436 33.8248 40.8263 31.9395C42.8271 29.8237 44.8874 27.767 46.9443 25.7062C47.6432 25.0059 48.3434 24.307 49.043 23.6074C49.5118 23.1386 48.117 24.5563 47.6578 25.0346C44.262 28.5715 40.8904 32.1277 37.6887 35.8432C34.0145 40.1069 30.3164 44.4909 27.4047 49.3279C26.9765 50.0392 26.2404 51.0831 26.1297 51.9566C26.0704 52.4238 27.0262 51.5882 27.3522 51.2482C29.0452 49.4826 30.5312 47.5048 32.0482 45.592C34.0031 43.1271 35.9562 40.664 37.9825 38.2568C40.9126 34.7759 43.8816 31.2278 47.2171 28.1198C47.4259 27.9252 48.2663 27.1527 47.5949 28.0988C46.5292 29.6004 45.2684 30.9897 44.0689 32.3803C39.7465 37.3912 35.39 42.336 31.4343 47.6488C30.2149 49.2867 29.0141 50.9472 27.8926 52.6544C27.6354 53.0461 26.9363 54.2324 27.2892 53.9242C28.3387 53.0077 29.2394 51.751 30.1226 50.6973C32.1949 48.2248 34.2467 45.7354 36.3559 43.2939C39.992 39.085 43.7608 34.9958 47.7208 31.0895C48.2492 30.5683 49.7433 28.9346 49.3316 29.5522C48.8914 30.2125 48.0554 30.9231 47.5424 31.4778C43.4346 35.9201 39.3416 40.4112 35.6948 45.2457C34.0825 47.3833 32.5556 49.5899 31.0985 51.8359C30.6039 52.5983 29.6886 53.7428 29.4405 54.6902C29.3156 55.1672 30.3085 54.1932 30.6473 53.835C32.1462 52.2499 33.4674 50.4993 34.8343 48.8032C39.0053 43.6279 43.2924 38.5481 47.8677 33.7235C48.7802 32.7613 49.7055 31.8011 50.6801 30.9006C51.6203 30.032 50.5412 31.2167 50.5332 31.2259C47.323 34.9122 44.0688 38.5636 40.9628 42.3389C38.7729 45.0007 36.6597 47.7215 34.6245 50.5032C33.5729 51.9404 32.4559 53.4051 31.5603 54.9526C31.4311 55.1757 30.9212 56.1221 31.6862 55.556C32.9124 54.6486 33.9356 53.2834 34.9183 52.1507C39.4911 46.8802 43.9654 41.5411 48.8227 36.5253C50.8136 34.4694 56.8626 28.3766 54.8252 30.3864C50.5309 34.6227 46.3789 39.0102 42.4319 43.572C39.1654 47.3472 35.8691 51.2604 33.2917 55.556C33.1653 55.7668 33.0369 55.9777 32.9349 56.2013C32.8591 56.3677 32.824 56.5923 33.0819 56.3692C34.21 55.3936 35.16 53.9938 36.0779 52.8538C40.1348 47.8149 44.2475 42.8711 48.7335 38.2044C50.3985 36.4722 52.0851 34.7587 53.8177 33.0939C54.2479 32.6805 55.4558 31.4017 55.1767 31.929C54.7445 32.7453 53.7469 33.5963 53.1566 34.2482C51.2385 36.3668 49.3383 38.4985 47.4742 40.6652C43.0316 45.829 38.6023 51.061 34.8186 56.7365C34.2177 57.6378 33.2071 58.8967 32.8615 59.9896C32.6216 60.7482 33.9949 58.8687 34.4985 58.2529C38.402 53.4801 42.0835 48.5412 46.0838 43.8448C48.9696 40.4569 51.8766 37.0196 55.077 33.9176C56.7274 32.318 51.9372 37.2756 50.402 38.9862C45.8414 44.0677 41.4121 49.3438 37.6205 55.0313C36.8639 56.1661 35.8879 57.445 35.38 58.7409C35.3455 58.829 35.2905 58.9588 35.359 59.0242C35.6279 59.2808 36.0035 58.6411 36.272 58.3841C40.031 54.7855 43.2184 50.5625 46.6504 46.6624C49.7762 43.1104 53.0095 39.6621 56.289 36.2525C56.4477 36.0876 56.604 35.9204 56.7665 35.7593C56.7966 35.7295 56.8825 35.6415 56.8662 35.6806C56.8335 35.7591 56.7681 35.8196 56.7141 35.8852C55.7776 37.0234 54.7798 38.1164 53.8125 39.2275C49.7764 43.8639 45.7532 48.5391 42.0541 53.452C40.9948 54.8588 39.9762 56.2989 39.0319 57.7859C38.7493 58.231 37.901 59.5106 38.3288 59.2026C39.289 58.5112 40.144 57.2456 40.8998 56.3797C42.8535 54.1417 44.8064 51.9033 46.7764 49.6794C49.7387 46.3352 52.6513 42.8501 55.9165 39.7889C57.6561 38.1581 52.8588 43.4487 51.3097 45.2615C47.795 49.3745 44.26 53.4953 41.0362 57.8436C40.4642 58.6151 39.9078 59.4015 39.3887 60.21C39.2918 60.3608 38.8159 61.0436 39.4202 60.4461C40.65 59.2301 41.7762 57.8906 42.9356 56.6106C45.1752 54.138 47.4203 51.6702 49.6989 49.2334C51.5674 47.2352 53.4649 45.2672 55.3918 43.3254C56.0892 42.6226 56.8104 41.7716 57.5903 41.1426C58.0215 40.7949 56.9168 42.023 56.5566 42.4439C55.0975 44.1492 53.6136 45.8332 52.1545 47.5387C48.7804 51.4825 45.279 55.3991 42.2797 59.6433C42.1848 59.7776 40.9269 61.326 41.0257 61.7211C41.0436 61.7925 41.1636 61.6636 41.2199 61.6162C41.5484 61.3389 42.3614 60.452 42.5368 60.2625C46.2847 56.2123 49.898 52.0499 53.7338 48.0791C55.4364 46.3165 57.1561 44.5677 58.9073 42.8531C59.1442 42.6212 59.3832 42.3915 59.6261 42.1658C59.7141 42.084 60.1527 41.656 59.8412 42.0556C57.2792 45.3428 54.3313 48.3633 51.5983 51.5053C49.2163 54.2438 46.869 57.0145 44.6461 59.8847C44.1143 60.5714 43.5928 61.2663 43.0878 61.973C42.7047 62.509 41.5479 63.9737 42.1538 63.715C42.5168 63.56 42.7933 63.249 43.0825 62.9804C44.1893 61.9525 47.2747 58.7585 48.0776 57.9328C52.1907 53.7033 56.3116 49.4819 60.4394 45.2667" stroke="#F4CDFF" stroke-linecap="round"/>
<path d="M57.4166 51.5003C56.588 52.4437 54.6113 54.6497 53.7542 55.7713C53.5785 56.0013 53.2033 56.2466 53.3082 56.5163C53.3925 56.733 53.7232 56.2986 53.9011 56.1491C54.4165 55.7159 54.8946 55.24 55.3808 54.7744C57.4076 52.8331 59.331 50.779 61.4252 48.9083C61.5834 48.7671 61.8487 48.3238 61.929 48.52C61.9598 48.5953 61.8587 48.6674 61.8135 48.7351C61.5472 49.1347 60.9283 49.9276 60.7012 50.22C58.4605 53.1049 56.1023 55.8965 53.7857 58.7201C52.0784 60.801 50.3102 62.8521 48.6804 64.9954C48.5729 65.1368 48.2599 65.5594 48.3971 65.4466C49.0715 64.8927 49.6558 64.0176 50.1968 63.3583C52.6767 60.3366 55.1972 57.3619 57.8521 54.491C59.084 53.1588 60.3348 51.8428 61.6141 50.5558C61.9988 50.1689 63.117 48.9838 62.7999 49.4277C62.5544 49.7716 62.2421 50.0625 61.9604 50.3774C60.6804 51.809 59.3997 53.2402 58.1407 54.6904C55.3933 57.8547 52.6809 61.062 50.1286 64.3867C49.5935 65.0837 48.9841 65.8909 48.4863 66.6377C48.3369 66.8618 48.019 67.5557 48.245 67.409C48.5516 67.2098 49.1826 66.5537 49.3678 66.3596C50.6644 65.0007 51.9042 63.5854 53.1823 62.2093C55.9478 59.2317 58.7731 56.3158 61.6666 53.4626C65.5155 49.6674 60.4598 54.6593 63.2302 51.92C63.2675 51.8831 64.0106 51.1091 63.3561 51.8571C61.6064 53.8567 59.857 55.8534 58.1512 57.891C56.0432 60.409 53.7975 62.9147 51.9913 65.667C51.9242 65.7691 51.7441 66.0726 51.8443 66.0028C52.4976 65.5478 53.1605 64.6181 53.6545 64.0614C56.0468 61.3659 58.3656 58.6052 60.8376 55.9812C61.4275 55.3549 62.5508 54.2013 63.1777 53.5571C63.3891 53.3399 63.5998 53.1222 63.8126 52.9064C63.8482 52.8703 63.9563 52.7635 63.9228 52.8015C63.7599 52.9864 63.5906 53.1654 63.4243 53.3472C61.4547 55.5 59.5291 57.686 57.6475 59.9164C56.2937 61.5211 54.9045 63.1154 53.644 64.796C53.5731 64.8906 53.3801 65.1813 53.4709 65.1056C54.1317 64.5549 54.7127 63.74 55.2549 63.096C57.5341 60.3883 59.8299 57.6967 62.1283 55.0052C63.2326 53.7121 64.3414 52.4183 65.3919 51.0805C65.5591 50.8676 66.5026 49.884 66.4518 49.4907C66.4229 49.2663 66.0004 49.5842 65.8064 49.7006C64.6681 50.3835 63.6146 51.2371 62.6006 52.0879C60.1915 54.1092 57.9506 56.3327 55.6694 58.4944C55.275 58.8681 54.5455 59.5661 54.09 59.9688C53.9967 60.0514 53.3332 60.6425 53.7857 60.0213C55.3728 57.8421 57.1756 55.7858 58.891 53.7092C61.0096 51.1446 63.2349 48.6492 65.224 45.9805C65.5731 45.5121 66.771 43.8743 65.308 44.8996C63.2106 46.3696 61.4015 48.392 59.6308 50.22C57.6348 52.2807 55.5153 54.3996 53.8067 56.7157C50.673 60.9636 60.3069 48.3968 63.545 44.228C64.1364 43.4666 65.0777 42.2495 65.6753 41.4471C66.1699 40.783 66.8419 40.0279 67.1706 39.2487C67.2835 38.9811 67.1794 38.9829 66.9555 39.0913C66.1835 39.4652 65.4927 40.2499 64.8987 40.828C62.4596 43.2018 60.1441 45.702 57.8626 48.2262C56.6592 49.5576 56.4956 49.7494 55.4018 50.9913C55.0199 51.4249 53.9788 52.7365 54.1425 52.1824C54.2521 51.8115 55.0096 50.6243 55.1079 50.4719C56.081 48.9644 57.1496 47.5154 58.2036 46.0644C60.5786 42.7951 63.0336 39.5902 65.5126 36.3996C65.7281 36.1223 65.9852 35.869 66.1422 35.5548C66.3539 35.1314 65.3756 36.1135 65.0246 36.4311C62.5478 38.6724 60.2005 41.0571 57.8731 43.4515C55.8427 45.5403 53.8924 47.6925 51.9283 49.8422C51.6647 50.1308 51.4455 50.4816 51.1098 50.6818C50.6153 50.9765 51.6891 49.6854 52.0175 49.2126C54.2454 46.005 56.6996 42.9576 59.2215 39.978C61.3088 37.5121 63.4308 35.0395 65.7277 32.7635C65.922 32.571 67.2247 31.3248 66.2314 32.2755C63.6878 34.7104 61.2334 37.2333 58.8228 39.7996C57.1744 41.5544 55.5653 43.3524 53.8697 45.0623C53.4044 45.5314 52.3776 46.4236 53.0406 45.078C54.4042 42.3111 56.5209 39.8516 58.445 37.47C60.241 35.2469 62.0673 32.9686 64.1956 31.0477C64.258 30.9914 64.8077 30.5112 64.9932 30.4391C65.32 30.312 64.7072 31.0877 64.4895 31.3625C62.3872 34.0154 60.0682 36.5148 57.7419 38.9706C56.0179 40.7905 54.2854 42.6253 52.4635 44.3487C52.3061 44.4976 52.1546 44.6548 51.9808 44.7842C51.7779 44.9352 51.6728 44.9056 51.7709 44.6268C52.185 43.4502 53.0523 42.3047 53.7437 41.3002C56.8618 36.7703 60.6492 32.8136 64.3163 28.7391C67.5032 25.1981 57.6355 35.5323 54.2737 38.9076C53.7532 39.4302 52.7221 40.4864 52.091 41.0012C50.7248 42.1154 52.2237 39.9468 52.2431 39.915C52.4919 39.508 52.7694 39.1184 53.0039 38.703C53.1374 38.4665 53.3704 38.2335 53.345 37.9632C53.3268 37.7696 51.3097 39.5339 51.2619 39.5792C51.2533 39.5875 49.5897 41.2269 50.2388 40.1774C51.331 38.4112 52.6374 36.7352 53.8697 35.0721C55.5742 32.7717 57.3006 30.4851 59.1376 28.2878C60.5039 26.6535 62.0726 25.1718 63.3981 23.5079C63.4864 23.397 63.655 23.1743 63.3981 23.382C62.673 23.9682 62.0253 24.7148 61.3833 25.381C58.6476 28.2196 55.9295 31.0771 53.2348 33.9545C52.753 34.469 51.8584 35.437 51.3354 35.9851C50.8997 36.4417 50.3379 37.1777 49.7561 37.491C49.6455 37.5505 49.7744 37.2308 49.84 37.1237C50.5794 35.916 51.4938 34.7835 52.3481 33.6607C54.3799 30.9903 56.489 28.3845 58.7283 25.8847C59.4818 25.0437 61.7362 22.5478 61.1419 23.5079C60.6348 24.327 59.7926 25.0923 59.1586 25.7903C57.7761 27.3123 56.3893 28.8309 54.9978 30.3446C53.1242 32.3827 51.2098 34.3791 49.2524 36.3366C48.9935 36.5955 48.7713 36.9016 48.4653 37.1027C47.9602 37.4347 49.2126 36.152 49.6039 35.6913C53.6027 30.9839 57.8708 26.5226 62.0234 21.9548C65.0657 18.6082 55.6369 28.3614 52.3795 31.499C50.733 33.0849 49.101 34.7883 47.2795 36.1792C46.8183 36.5314 46.9247 36.2474 47.1274 35.8854C47.7565 34.762 48.585 33.7306 49.3678 32.7163C52.9616 28.0595 56.8365 23.7283 60.8166 19.41C63.5392 16.4561 54.6602 24.577 51.7079 27.3014C50.8333 28.1086 49.6398 29.1964 48.7277 29.9878C48.0753 30.5539 47.383 31.2001 46.6079 31.6091C46.4668 31.6836 46.1754 31.8424 46.1357 31.6879C46.0039 31.1755 47.2108 29.784 47.374 29.5681C49.0111 27.4018 50.8503 25.3705 52.8098 23.4921C53.5293 22.8024 54.2637 22.1207 55.0345 21.4878C55.1588 21.3857 55.2852 21.2856 55.4175 21.194C55.7212 20.9837 55.5336 21.195 55.3913 21.3514C53.6314 23.2848 51.62 25.0229 49.7141 26.8082C47.9138 28.4946 46.1351 30.2387 44.1943 31.7666C44.0333 31.8933 43.6526 32.2908 43.6696 32.0866C43.7119 31.579 45.1346 30.1719 45.3277 29.9459C47.7733 27.0824 50.3696 24.3504 53.0879 21.7449C54.4706 20.4196 53.8758 21.0126 55.0817 19.8665C55.4225 19.5427 56.4782 18.6441 56.0524 18.8434C55.7189 18.9995 55.4689 19.2934 55.1919 19.536C54.0631 20.5242 52.9711 21.5551 51.8653 22.5687C49.3909 24.8369 46.9228 27.1179 44.4042 29.3372C43.6323 30.0174 42.8517 30.7065 42.0326 31.3311C41.8081 31.5023 41.4652 31.7189 41.7807 31.2471C43.0858 29.2956 44.8439 27.5495 46.419 25.8218C48.5531 23.4809 50.7768 21.2263 53.0092 18.9798C53.5811 18.4043 55.3818 16.8582 54.6305 17.1643C54.4268 17.2473 53.8125 17.7778 53.8119 17.7782C52.3594 18.979 50.9423 20.2248 49.5252 21.4668C47.015 23.6669 44.5528 25.9243 41.9276 27.9888C41.9271 27.9892 39.1266 30.268 39.7974 29.0854C41.2339 26.5528 43.5353 24.3527 45.59 22.3326C47.8844 20.0768 50.3586 18.0277 52.7206 15.8474C53.7059 14.9379 50.6365 17.5351 49.5882 18.3711C47.0878 20.3651 44.6267 22.4192 42.0588 24.3264C41.6319 24.6435 40.9799 25.1208 40.4952 25.423C40.0484 25.7017 39.9547 25.6385 40.3011 25.1921C41.7781 23.2889 43.6518 21.6417 45.3696 19.9662C46.3612 18.9991 47.3375 18.0519 48.3342 17.0909C48.9532 16.494 50.8292 14.753 50.1024 15.2125C49.3483 15.6892 46.8342 17.6507 46.524 17.8779C45.6755 18.4992 44.8472 19.154 43.9477 19.6986C42.7857 20.4022 42.3057 21.0162 41.9224 19.7983C41.6995 19.0898 42.199 18.4589 40.9622 19.0532C39.445 19.7823 38.3214 21.1288 36.9431 22.0545C36.9128 22.0748 36.832 22.0206 36.8539 21.9915C37.421 21.2353 40.2176 18.2306 40.2958 18.1455C42.0014 16.2908 43.8461 14.4839 45.4536 12.5365C45.5287 12.4456 45.6924 12.2088 45.4116 12.3267C44.5164 12.7025 43.6407 13.3605 42.8406 13.885C40.4397 15.4591 38.1153 17.1469 35.7258 18.7384C35.3506 18.9883 33.8973 19.9498 33.4276 20.2285C32.6311 20.7013 32.2953 20.7733 33.2545 19.7668C34.4247 18.5389 36.4448 16.6504 37.5674 15.5903C38.3924 14.8112 39.2231 14.0383 40.0492 13.2606C40.5914 12.7503 42.315 11.3631 41.6548 11.7075C41.2179 11.9355 40.8902 12.3294 40.5005 12.631C39.3395 13.5293 38.138 14.3731 36.9378 15.2177C36.2738 15.685 35.1661 16.4659 34.4508 16.9387C34.0592 17.1975 33.1347 17.9515 33.7214 17.0069C33.952 16.6357 34.5156 15.9441 34.1202 15.7582C33.8493 15.6307 33.5194 15.758 33.223 15.8001C32.8244 15.8568 31.8018 16.1881 32.0162 15.8474C32.2072 15.5438 32.5205 15.3366 32.7875 15.097C33.5997 14.3684 34.4499 13.6828 35.264 12.9563C35.8704 12.4152 36.6201 11.8366 37.1267 11.1828C37.7029 10.4394 35.5242 12.1728 34.7708 12.7359C33.0844 13.9964 31.4226 15.2896 29.7285 16.54C29.5183 16.6951 28.2938 17.4961 28.3066 17.4792C29.0549 16.486 30.0459 15.6671 30.8776 14.7455C30.8941 14.7272 32.3495 13.0359 31.8116 13.2396C30.2972 13.813 28.9045 15.2475 27.698 16.2619C27.0257 16.8271 26.2801 17.4711 25.6202 18.0616C25.3166 18.3332 24.543 18.8827 24.3819 19.3366C24.1093 20.1047 25.747 18.4325 26.3443 17.8779" stroke="#F4CDFF" stroke-linecap="round"/>
<path d="M17.7503 24.4887C16.8026 25.1015 16.8704 24.8346 17.5929 23.8696C18.5183 22.6337 19.5746 21.4839 20.7096 20.4381C20.7488 20.402 21.8321 19.3301 22.0738 19.3992C22.3025 19.4645 21.8104 19.797 21.654 19.9764C21.2834 20.4015 20.2172 21.5765 19.933 21.8915C18.7658 23.1854 17.5944 24.4765 16.4491 25.79C15.7492 26.5925 14.9493 27.4179 14.4133 28.3505C13.7344 29.5317 16.5422 26.6444 17.53 25.706C19.3288 23.9971 21.105 22.2373 22.9658 20.5955C23.3518 20.2549 22.2609 21.3459 21.9111 21.7236C19.9181 23.8756 17.9095 26.021 16.0031 28.2508C15.9728 28.2862 15.0929 29.1835 15.1164 29.5048C15.1484 29.9431 15.8907 29.0737 16.2182 28.7807C18.529 26.7136 20.6637 24.4572 23.013 22.4319C23.1738 22.2933 23.3362 22.1565 23.501 22.0227C23.6237 21.9229 23.7943 21.6233 23.8892 21.7498C23.9193 21.7899 23.844 21.8396 23.8158 21.881C23.6568 22.1138 23.3278 22.5208 23.1809 22.6995C21.369 24.9037 19.3607 26.9345 17.5824 29.169C17.2125 29.6338 16.7979 30.1127 16.4858 30.6224C16.4429 30.6926 16.3956 30.8895 16.4753 30.869C16.736 30.802 17.1574 30.4246 17.2886 30.3128C19.281 28.6144 21.0435 26.6525 22.9973 24.9085C23.3232 24.6176 23.5983 24.3772 23.1442 24.9767C22.0647 26.4016 20.9291 27.788 19.7756 29.1532C18.8367 30.2646 17.8676 31.3502 16.9318 32.4641C16.5665 32.8988 15.8162 33.6005 15.6725 34.1955C15.5745 34.6017 16.3849 33.7508 16.6957 33.4715C18.285 32.0431 19.7873 30.5219 21.3287 29.0431C22.2437 28.1653 23.1776 27.307 24.1411 26.4826C24.5458 26.1363 25.7212 25.1294 25.4738 25.6011C25.1232 26.2696 24.4215 26.9419 23.9522 27.5005C22.8959 28.7577 21.8051 29.9817 20.7096 31.2048C19.5683 32.4789 18.4295 33.754 17.3201 35.056C16.8308 35.6303 16.2512 36.2134 15.8299 36.8452C15.7255 37.0019 16.1589 36.6577 16.3022 36.5357C17.3751 35.6221 18.3963 34.6502 19.4188 33.6813C20.446 32.7081 21.4686 31.7308 22.5355 30.8008C22.9321 30.4551 24.0893 29.3962 23.7633 29.8091C22.3258 31.63 20.5838 33.2605 19.0096 34.9616C18.1797 35.8584 17.3574 36.7616 16.575 37.7005C16.2887 38.0441 15.4012 38.9078 15.8404 38.8233C16.2693 38.7409 16.8867 38.0558 17.1522 37.8159C18.5539 36.5497 19.8994 35.2229 21.3182 33.9752C22.054 33.3282 22.8082 32.6981 23.6059 32.1283C24.61 31.411 23.7892 32.2956 23.5324 32.6005C21.9521 34.4771 20.303 36.2906 18.6633 38.115C18.0972 38.7449 17.5138 39.3668 16.9738 40.0196C16.2963 40.8386 17.0826 40.2166 17.3935 39.9567C18.3413 39.1642 19.2657 38.3408 20.1954 37.5273C21.2407 36.6127 22.2538 35.534 23.4118 34.757C23.9076 34.4243 23.7446 34.8087 23.5744 35.098C22.9666 36.1312 22.1414 37.0541 21.3812 37.9733C20.5998 38.9183 19.8041 39.8518 19.0411 40.8119C18.5733 41.4006 17.8346 42.1389 17.5562 42.8582C17.4383 43.1627 18.1328 42.5417 18.38 42.3283C19.9586 40.9655 21.4341 39.4817 22.9763 38.0783C23.8489 37.2842 24.7245 36.4673 25.6627 35.7486C26.4016 35.1827 26.0816 35.6854 25.7676 36.0739C23.85 38.4471 21.8959 40.7838 20.017 43.1888" stroke="#F4CDFF" stroke-linecap="round"/>
<path d="M18.6947 49.2335C18.5846 49.4537 18.6872 49.2465 19.146 48.7088C19.8898 47.837 20.5868 47.0177 21.3392 46.1483C21.918 45.4794 23.6898 43.5038 23.1022 44.1649C21.5265 45.9376 20.0834 47.8576 18.6108 49.7162C18.5844 49.7495 17.1387 51.44 17.7608 51.2588C18.7576 50.9685 18.0179 52.047 18.2435 52.5705C18.4332 53.0108 20.9416 50.2457 21.0873 50.094C22.2077 48.9272 23.345 47.776 24.5083 46.652C24.6509 46.5142 25.1692 46.0214 25.3688 45.844C25.4515 45.7705 25.5726 45.5687 25.6417 45.6551C25.7975 45.8499 24.4039 47.3397 24.3824 47.3656C22.437 49.7044 21.386 50.9978 19.5688 53.4384C19.3838 53.6869 18.9784 54.4092 19.275 54.3199C20.2912 54.014 20.3222 54.0121 21.1083 53.3681C22.7214 52.0466 24.2392 50.61 25.7361 49.16C26.6095 48.314 27.4318 47.32 28.3963 46.5733C28.7631 46.2893 27.8655 47.3356 27.5673 47.6909C26.4172 49.0614 25.2366 50.4059 24.0886 51.7782C23.0337 53.0392 21.9749 54.2992 20.9404 55.577C20.6634 55.9192 20.4204 56.2209 20.1744 56.5792C20.1 56.6875 19.8768 56.9576 20.0065 56.936C20.2539 56.8947 20.4166 56.6454 20.6046 56.4795C21.1718 55.979 21.6152 55.5463 22.1682 55.0051C23.7367 53.47 25.2807 51.9124 26.88 50.4088C27.9101 49.4403 28.9868 48.2128 30.2065 47.4653C31.4911 46.6779 28.7975 50.1397 27.9189 51.3637C26.7384 53.0082 25.072 55.2743 23.8787 56.936C23.4747 57.4986 22.156 59.0675 22.7139 58.657C23.1454 58.3395 23.4162 57.8477 23.7633 57.4397C24.3966 56.6952 24.8974 56.102 25.5472 55.3619C26.7578 53.9831 28.0108 52.6431 29.2726 51.3113C29.5116 51.0589 30.1307 50.4033 30.4269 50.1254C30.5373 50.0219 30.8126 49.7225 30.8047 49.8736C30.7908 50.1372 30.5392 50.331 30.3849 50.5452C30.063 50.9922 29.5387 51.674 29.2096 52.0878C28.0026 53.6053 26.7316 55.0705 25.5263 56.5897C24.6716 57.6668 23.8397 58.7638 23.0287 59.8743C22.3499 60.8038 23.2246 60.1267 23.6216 59.7746C26.4597 57.2569 28.9568 54.3557 31.7176 51.752C32.1435 51.3503 33.302 50.0796 33.0504 50.6082C32.6448 51.4598 31.6549 52.3293 31.067 53.027C28.6327 55.9161 26.9352 57.7622 24.9049 60.9625C24.5437 61.532 24.5244 61.8125 25.2145 61.3036C26.9338 60.0358 27.3649 59.31 28.8318 57.7755C30.3769 56.1592 31.9098 54.5295 33.4911 52.9483C33.6936 52.7458 34.1884 52.2571 34.4355 52.0458C34.5332 51.9624 34.7805 51.7288 34.7713 51.8569C34.7524 52.1227 34.5184 52.3266 34.3726 52.5495C34.0231 53.0841 33.5205 53.8096 33.1658 54.3125C32.0377 55.9119 30.8856 57.4915 29.7973 59.1187C28.9518 60.3827 28.0826 61.6506 27.3417 62.9804C27.191 63.251 26.8622 63.995 27.4886 63.4736C28.7235 62.446 29.7454 61.0581 30.8047 59.8638C32.4082 58.0559 33.9832 56.2049 35.7368 54.5381C35.9935 54.2941 36.6889 53.6228 36.1408 54.4699C35.3688 55.663 34.4763 56.7829 33.6433 57.9329C32.3352 59.7386 31.048 61.561 29.8182 63.4212C29.5374 63.846 28.7055 65.0409 29.1519 64.7959C30.3358 64.1459 31.3615 62.8665 32.2895 61.9258C33.8409 60.3534 35.3683 58.7571 36.9121 57.1773C37.547 56.5277 38.2197 55.8874 38.7852 55.173C39.4065 54.3883 37.5156 56.7205 36.8911 57.5026C35.0445 59.8154 33.1524 62.1384 31.5287 64.6175C31.4029 64.8096 31.0838 65.3625 31.6127 65.0058C32.6645 64.2964 33.5535 63.2679 34.4355 62.3718C35.6622 61.1255 36.8667 59.857 38.1084 58.6255C38.4477 58.289 39.3676 57.3093 39.2627 57.7755C39.0737 58.6156 38.2189 59.555 37.7516 60.231C36.5415 61.9815 35.328 63.7269 34.1417 65.4937C33.9721 65.7463 33.0512 66.7947 33.1605 67.1885C33.198 67.3232 33.417 67.0655 33.5173 66.9681C33.8436 66.6514 34.4206 66.0068 34.6769 65.7246C37.0316 63.1315 39.3267 60.4997 41.6081 57.8437C42.2257 57.1247 41.751 57.8132 41.5609 58.0798C40.7323 59.242 39.883 60.3905 39.0266 61.5323C37.9702 62.9409 36.8974 64.3365 35.8627 65.7613C35.5327 66.2158 34.7292 67.0241 34.6139 67.6292C34.5156 68.1457 35.3943 66.923 35.7578 66.5431C37.0831 65.158 38.377 63.7471 39.6562 62.3193C40.9132 60.9164 42.1771 59.5199 43.4393 58.1218C43.7237 57.8067 44.1058 57.3761 44.4152 57.0566C44.5291 56.9391 44.6489 56.6498 44.7877 56.7366C44.9141 56.8155 40.5159 62.8 40.2124 63.2165C39.415 64.3111 38.5529 65.3889 37.8408 66.5431C36.9987 67.9079 38.7432 66.3252 38.9689 66.1076C42.035 63.1506 44.7759 59.87 47.9516 57.0199C48.3068 56.7012 49.2889 55.8864 49.2214 56.3588C49.0903 57.2763 48.2793 58.279 47.8047 59.0242C46.765 60.6568 45.6508 62.2362 44.5097 63.799C43.8932 64.6432 43.1692 65.4843 42.6732 66.4119C42.3495 67.0175 43.7932 65.6067 44.2788 65.1212C45.3576 64.0424 46.8368 62.5073 47.8782 61.4168C48.3703 60.9015 48.8587 60.3825 49.3473 59.8638C49.701 59.4882 50.6219 58.3056 50.4702 58.7986C50.187 59.719 49.5433 60.4883 49.1322 61.3591C48.9255 61.797 48.6434 62.2261 48.5918 62.7076C48.5771 62.8446 48.8431 62.9303 48.9695 62.8755C49.4614 62.6621 50.8886 61.298 51.1995 61.0181C51.6894 60.577 52.2733 60.0489 52.7946 59.6224C52.8139 59.6065 53.9663 58.6228 53.6393 59.3968C53.1308 60.6003 52.0664 61.6895 51.2362 62.6656C50.1094 63.9905 48.9235 65.2661 47.7208 66.5221C47.5664 66.6834 46.7979 67.6817 46.4773 67.6817C46.3355 67.6817 46.6315 67.4429 46.7239 67.3354C47.0872 66.9123 47.6439 66.3057 47.9884 65.9292C49.732 64.0234 51.4927 62.1331 53.2406 60.231C53.7935 59.6293 54.3989 58.7044 55.0875 58.2372C55.2611 58.1194 54.8443 58.5799 54.7097 58.7409C54.2903 59.2427 53.6469 59.9729 53.2406 60.4409C50.6737 63.3977 49.2201 65.4349 46.8214 68.5286C46.7069 68.6763 46.5927 68.8242 46.4751 68.9694C46.4283 69.0271 46.3901 69.1785 46.3282 69.1373C46.2668 69.0963 46.4027 69.0098 46.4436 68.9484C46.5566 68.7788 46.6714 68.6104 46.7899 68.4447C48.0731 66.6495 48.477 65.9479 49.872 64.2397C51.5587 62.1744 53.2289 60.0976 54.8566 57.9854C55.4717 57.1871 56.4803 55.8635 57.0918 55.0261C57.5593 54.3859 58.1661 53.6587 58.4717 52.9063C58.534 52.7532 58.622 52.5367 58.3458 52.665C58.0028 52.8242 57.4614 53.3338 57.2492 53.5255C55.4127 55.1843 53.7002 56.9873 52.0338 58.8144C48.5491 62.6349 46.3254 65.7116 42.755 69.4521C40.1777 72.1521 46.604 64.7757 49.0692 61.973C51.3659 59.362 53.701 56.7818 55.9375 54.1184C56.5916 53.3394 57.0744 52.7504 57.669 51.9514C57.9626 51.5567 58.6979 50.7467 58.7393 50.1779C58.75 50.0314 58.4264 50.0949 58.2986 50.1674C57.8753 50.4076 57.0483 51.0821 56.7455 51.3427C54.5146 53.2635 52.5299 55.4515 50.5331 57.6076C48.3264 59.9904 46.1102 62.3664 43.943 64.7854C43.2455 65.5639 42.5385 66.6422 41.6973 67.2934C41.1206 67.7399 42.5958 66.1442 43.0615 65.5829C45.1465 63.0701 47.2739 60.5951 49.4418 58.1533C51.6202 55.6996 53.8254 53.2699 56.0634 50.8705C56.6719 50.2182 58.5608 48.3449 57.8369 48.8662C56.6155 49.7456 55.5092 51.109 54.4578 52.1508C51.7287 54.855 49.042 57.5994 46.3776 60.3675C44.6097 62.2041 42.8249 64.0294 41.1359 65.9397C40.7926 66.328 40.4647 66.7298 40.118 67.115C40.084 67.1527 39.9806 67.2628 40.0078 67.22C40.0921 67.0871 40.1937 66.9658 40.2911 66.8422C44.4412 61.5764 49.0157 56.6552 53.1881 51.4057C54.3384 49.9585 55.4094 48.5947 56.4517 47.077C56.9116 46.4073 57.7815 45.2515 57.8421 44.3171C57.906 43.3316 57.3903 42.9564 56.5881 42.5384C56.2006 42.3364 55.7748 42.2097 55.3498 42.1081C53.1083 41.5725 55.3319 42.2379 53.6393 42.0557" stroke="#F4CDFF" stroke-linecap="round"/>
<path d="M57.2283 32.4223C57.3673 32.2636 59.1819 30.2125 59.5579 29.7254C60.2884 28.779 57.9108 31.4592 57.1181 32.3541C55.4375 34.2511 53.7335 36.1287 52.0653 38.0365C51.9746 38.1402 51.1136 39.2468 51.1995 39.2118C51.6474 39.0293 52.1468 38.5197 52.485 38.2254C53.7674 37.1094 54.9815 35.9209 56.1894 34.7257C58.4219 32.5165 60.6438 30.2987 62.9264 28.1408C63.3913 27.7013 63.8542 27.2543 64.3326 26.829C64.3698 26.796 64.4373 26.6861 64.4481 26.7346C64.4971 26.9554 64.1675 27.0897 64.0178 27.2593C60.0222 31.7863 55.5766 35.9243 51.4147 40.2979C51.3457 40.3704 50.8749 40.8677 50.7011 41.0168C50.4896 41.198 51.0072 40.5501 51.1838 40.3347C53.1047 37.9912 55.1669 35.741 57.2912 33.5818C59.5108 31.3259 61.8548 29.1383 64.3746 27.2173C64.6831 26.9821 65.5156 26.3183 65.4135 26.6926C65.2368 27.3403 64.3705 28.116 63.9548 28.5605C61.547 31.1354 58.8449 33.4582 56.1894 35.7698C54.8499 36.9358 53.4918 38.0787 52.1073 39.1908C51.5486 39.6396 50.915 40.2681 50.2498 40.576C49.9845 40.6989 50.0605 40.5247 50.1344 40.3504C50.4565 39.5913 50.9994 38.8724 51.4357 38.1834C53.1257 35.5139 54.7371 32.8151 56.2838 30.0612" stroke="#F4CDFF" stroke-linecap="round"/>
<path d="M53.6385 22.8833C52.7656 23.6034 51.9288 24.5421 51.1567 25.3389C50.2367 26.2883 47.4576 29.0846 48.528 28.3087C49.2215 27.8058 49.806 27.0741 50.3906 26.4565C51.6187 25.1591 52.8605 23.8761 54.1107 22.6C54.9088 21.7853 55.7046 20.9687 56.4928 20.1444C56.7083 19.9191 56.9415 19.7085 57.1329 19.4623C57.1857 19.3944 56.9716 19.5271 56.9021 19.5778C54.5094 21.3228 52.4015 23.4103 50.144 25.3179C49.6176 25.7628 49.0916 26.2137 48.5542 26.6454C48.1825 26.9439 48.0588 26.9189 48.4283 26.4985C50.6074 24.0188 53.0959 21.8099 55.4277 19.4781C55.943 18.9627 56.4808 18.4428 56.944 17.8778C56.9796 17.8344 57.0035 17.6825 56.9545 17.7099C56.6822 17.862 56.0092 18.3783 55.8422 18.5074C53.2593 20.5033 50.7682 22.6134 48.2236 24.6568C47.8554 24.9525 47.4411 25.361 47.0168 25.5907C46.3877 25.9316 47.959 24.5121 48.465 24.0062C50.4652 22.006 52.6096 20.1399 54.5567 18.0876C55.3648 17.2358 52.6329 19.4353 51.6971 20.1444C50.3441 21.1697 49.0487 22.2636 47.7409 23.3451C47.4829 23.5584 46.8802 24.0585 46.5656 24.2895C46.4407 24.3812 46.2068 24.6564 46.1563 24.5099C46.1334 24.4432 46.2037 24.376 46.2403 24.3157C46.4616 23.9509 46.9259 23.3664 47.148 23.088C48.4209 21.4923 49.788 19.9746 51.0832 18.3972C52.1412 17.1086 53.187 15.8024 54.1789 14.462C54.4812 14.0535 55.2815 12.9267 54.7928 13.0663C53.9553 13.3056 53.0784 14.0802 52.4212 14.5827C50.3124 16.1951 48.3178 17.961 46.3452 19.7352C44.6297 21.2782 39.6137 26.047 41.2452 24.4154C43.2131 22.4475 45.3039 20.587 47.3684 18.7225C48.7903 17.4384 50.2356 16.1814 51.6761 14.9185C51.8506 14.7656 52.573 14.1336 52.8147 13.9111C52.8884 13.8432 52.9801 13.7882 53.0298 13.7012C53.0539 13.6591 52.9392 13.7376 52.8986 13.7642C50.3321 15.4457 47.9417 17.54 45.6002 19.5148C44.1461 20.7411 42.7388 22.0163 41.3292 23.2926C41.2323 23.3803 40.1903 24.3356 40.9199 23.513C43.2088 20.9325 45.5841 18.4258 47.998 15.9626C48.7951 15.1492 49.7456 14.3403 50.4273 13.4179C50.6828 13.0723 49.5881 13.6538 49.2258 13.8848C46.3604 15.712 43.7716 18.0938 41.2662 20.3753C40.1936 21.352 39.1359 22.353 38.118 23.387C38.0615 23.4444 37.9136 23.6295 37.9816 23.5864C38.1843 23.4583 38.6606 23.067 38.7896 22.9568C41.637 20.5267 44.3317 17.9147 47.169 15.4694C48.4863 14.3341 49.8334 13.2289 51.1252 12.0642C51.1941 12.002 51.397 11.8141 51.3193 11.8648C51.0705 12.027 50.8372 12.212 50.5952 12.3842C46.9961 14.9463 43.5224 17.6557 40.0909 20.4383C38.5517 21.6864 37.0284 22.9559 35.4736 24.1846C35.3795 24.259 33.9369 25.4115 34.7915 24.3944C37.605 21.0458 40.9661 18.0667 44.2202 15.1598C44.6308 14.7931 45.645 13.888 46.1721 13.4651C46.3145 13.3508 47.0661 13.0011 45.8205 13.7484C45.0276 14.2242 43.8859 14.7341 43.8162 13.4441C43.7801 12.7768 42.9869 13.5946 42.7458 13.7747C40.7899 15.2357 38.9234 16.8269 37.0162 18.35C33.8828 20.8522 30.7558 23.3594 27.3828 25.5278" stroke="#F4CDFF" stroke-linecap="round"/>
<path d="M34.0889 14.6665C34.1 14.6563 34.7648 14.0201 34.3827 14.5721C33.3913 16.004 32.0375 17.233 30.8095 18.4548C30.0535 19.207 29.2929 19.9583 28.5166 20.69C28.3452 20.8516 28.1911 21.0442 27.9814 21.1517C27.9074 21.1896 28.0283 20.989 28.0759 20.9208C29.708 18.5835 31.9836 16.612 34.0469 14.6717C34.9114 13.8588 35.8701 12.7597 36.9379 12.1847C37.754 11.7453 35.7402 13.6012 35.0963 14.2677C31.5193 17.9705 27.8155 21.5467 24.3086 25.3178C22.9019 26.8304 18.7945 31.4527 20.3209 30.061C21.0348 29.4101 21.6623 28.5784 22.3042 27.8678C24.3494 25.6038 26.4251 23.3644 28.5586 21.1832C30.7222 18.9712 32.9457 16.8198 35.2747 14.7819C36.1936 13.9779 36.1025 14.0859 36.9012 13.3967C36.9903 13.3199 37.0857 13.2488 37.1636 13.1606C37.19 13.1307 37.0904 13.1942 37.0586 13.2183C32.9359 16.3594 29.0366 19.9023 25.2058 23.3869C23.483 24.954 21.7859 26.5481 20.0481 28.0986C19.322 28.7465 17.8699 30.0222 17.0888 30.6906C16.6692 31.0497 16.3114 31.5257 15.798 31.7295C15.7404 31.7524 15.8309 31.6073 15.8663 31.5564C16.1631 31.129 17.0073 30.1741 17.2357 29.9141C19.1586 27.7247 21.1747 25.6254 23.3221 23.6545C26.0021 21.195 28.792 18.7961 31.7435 16.6656C32.1282 16.3879 33.0259 15.7187 33.6166 15.5375C34.0827 15.3945 33.8491 15.7589 33.7268 15.973C32.9858 17.2697 31.8753 18.4611 30.9197 19.5881C28.172 22.8286 25.2831 25.9494 22.4407 29.1061C20.8827 30.8362 19.3269 32.5677 17.8076 34.332C17.7633 34.3834 16.0046 36.1548 16.1443 36.4518C16.1638 36.493 16.2402 36.4832 16.2808 36.4623C16.6765 36.2578 17.4628 35.554 17.6764 35.3604C20.0374 33.2205 22.2304 30.8879 24.403 28.5604C28.5935 24.071 32.708 19.5113 36.9222 15.0443" stroke="#F4CDFF" stroke-linecap="round"/>
<path d="M33.2385 24.8667C32.5931 27.9292 30.5495 30.7419 28.957 33.3457C26.8089 36.8579 24.4812 40.2654 22.3668 43.7976C22.129 44.1951 21.3097 45.4844 22.5033 44.7946C24.123 43.8585 25.4993 42.3847 26.8372 41.1112C30.6972 37.4371 34.4069 33.6109 38.2441 29.9142C39.3835 28.8166 40.5373 27.6983 41.833 26.7818C42.5315 26.2878 43.6611 25.7054 42.7459 27.1176C41.6902 28.7468 40.3647 30.2236 39.136 31.7192C37.3178 33.9325 35.4944 36.1403 33.7317 38.3985C30.8386 42.105 27.9533 45.9035 25.5465 49.9523C25.3093 50.3513 24.622 51.4906 25.0113 51.2378C25.8012 50.7247 26.5468 49.5322 27.0786 48.8399C31.3364 43.2971 35.4148 37.6164 40.2274 32.5272C41.3741 31.3146 42.5619 30.1217 43.7953 28.996C43.8861 28.9132 44.1291 28.6478 44.0787 28.7599C43.8152 29.3454 43.2363 29.7291 42.8089 30.2081C39.2503 34.196 35.6328 38.1318 32.1681 42.2026C30.6857 43.9443 29.2155 45.7008 27.7922 47.4915C27.1323 48.3216 26.412 49.1822 25.8928 50.1149C25.6658 50.5227 25.5799 50.9626 26.2286 50.6606C27 50.3015 27.6361 49.7048 28.2434 49.1285C29.5078 47.9288 30.7771 46.4967 31.9425 45.2248C35.6411 41.1884 39.357 37.1164 43.7061 33.7603C44.031 33.5096 44.356 33.258 44.6978 33.0309C44.9051 32.8932 45.4381 32.563 45.4114 32.8106C45.3339 33.5287 44.0834 34.767 43.7219 35.1979C40.3259 39.2446 36.5923 43.1914 32.5984 46.652C31.3257 47.7547 29.9573 48.8617 28.3903 49.5273C27.8073 49.7749 27.0039 49.9806 26.3545 49.989C25.0519 50.0059 26.2285 49.8574 25.1162 49.7057" stroke="#F4CDFF" stroke-linecap="round"/>
<path d="M20.2052 39.1279C18.5968 41.0145 17.0782 42.9744 15.5564 44.931C14.1876 46.691 15.9677 44.3257 16.1965 44.0076C17.0752 42.786 17.9799 41.5853 18.904 40.3977C19.4194 39.7352 19.5538 39.5709 20.0373 38.96C20.2051 38.748 20.7738 38.2264 20.5148 38.3041C20.072 38.437 19.448 39.3529 19.1663 39.6579C18.061 40.8544 16.9819 42.0752 15.9132 43.3045C15.6353 43.6241 14.8604 44.6207 15.0632 44.2489C15.7399 43.0084 16.6889 41.8344 17.4873 40.6705C18.4297 39.2967 19.4272 37.9616 20.3626 36.5832C20.369 36.5737 21.1781 35.164 21.1549 35.1717C20.4755 35.3982 19.6239 36.5912 19.1716 37.0659C17.6147 38.6996 16.1452 40.4108 14.6959 42.1397C14.6409 42.2053 13.8464 43.2486 13.9509 43.1681C15.1748 42.2238 16.1868 40.8256 17.1935 39.6736C18.3381 38.3638 19.5297 37.061 20.5567 35.6544C20.6799 35.4858 20.9642 34.9605 20.7876 35.072C19.4776 35.8994 18.3819 37.3231 17.2774 38.3724" stroke="#F4CDFF" stroke-linecap="round"/>
<path d="M16.0506 30.439C15.8829 30.597 14.2782 32.1748 15.4262 31.4464C15.5381 31.3754 17.4131 30.1349 17.4306 30.2921C17.4551 30.5127 17.1488 30.9306 17.058 31.0791C16.6307 31.7784 16.1473 32.442 15.6519 33.0939C14.8562 34.1408 13.8277 35.1221 13.1596 36.2578C12.8651 36.7585 14.4958 35.4327 14.5133 35.4183C15.0889 34.946 15.6499 34.4589 16.1975 33.9544C16.4743 33.6994 16.7756 33.3296 17.121 33.1569C17.2814 33.0767 17.0295 33.5101 16.9321 33.6606C16.5149 34.3054 16.0549 34.9226 15.5836 35.5285C14.64 36.7417 13.4367 36.9071 12.7031 38.2696C12.2913 39.0343 13.7716 39.0208 13.8469 38.9705C14.8655 38.2899 15.8507 37.3166 16.9636 36.7983C17.0835 36.7424 16.9762 37.0766 16.9111 37.1918C16.6582 37.6398 16.3782 38.0743 16.1031 38.5088C15.4303 39.5713 14.5267 40.6863 14.1197 41.8878C13.815 42.7874 15.8758 41.0684 15.9457 41.0063C16.8783 40.1773 18.1145 39.2145 18.758 38.1205C19.6459 36.6112 16.5114 40.933 16.0506 42.6224" stroke="#F4CDFF" stroke-linecap="round"/>
<path d="M16.0493 47.4389C14.4022 48.9945 18.7994 43.836 20.2521 42.0976C21.1936 40.9708 22.1332 39.8399 23.1117 38.7448C23.6521 38.1399 24.0849 37.6544 24.4549 36.9556" stroke="#F4CDFF" stroke-linecap="round"/>
<path d="M16.4282 46.2112C15.9001 46.5169 17.0008 45.1313 17.3359 44.6213C18.1168 43.4329 18.9166 42.2489 19.8387 41.1636C20.3519 40.5595 20.9484 40.0352 21.4337 39.4111" stroke="#F4CDFF" stroke-linecap="round"/>
<path d="M16.6172 47.9112C17.2359 47.8319 18.2099 46.7344 18.5271 46.4316C19.6816 45.3292 20.7588 44.169 21.7592 42.9266C21.9069 42.7432 22.4957 42.1959 22.3783 41.9612" stroke="#F4CDFF" stroke-linecap="round"/>
<path d="M16.6172 49.6113C18.6862 47.4892 20.4529 45.0652 22.4518 42.8742C23.0521 42.2161 23.6839 41.5954 24.2672 40.9224" stroke="#F4CDFF" stroke-linecap="round"/>
<path d="M22.2827 56.4112C21.5368 56.5888 22.5119 55.7024 22.6185 55.5717C23.8741 54.033 25.1947 52.5575 26.4907 51.0541C27.9867 49.3188 29.5333 47.5668 30.7827 45.6445" stroke="#F4CDFF" stroke-linecap="round"/>
<path d="M23.6055 57.4502C28.0711 53.0492 31.975 48.1003 35.9777 43.2834" stroke="#F4CDFF" stroke-linecap="round"/>
<path d="M58.6446 17.689C56.0026 19.6813 53.2861 21.5744 50.6273 23.5445C49.874 24.1027 49.0874 24.6252 48.4026 25.2655C48.3084 25.3537 48.6125 25.1134 48.7279 25.0557" stroke="#F4CDFF" stroke-linecap="round"/>
<path d="M58.8341 17.4055C57.2614 19.0465 55.1251 20.217 53.8285 22.1278C53.4565 22.676 54.7084 21.8522 54.8674 21.75" stroke="#F4CDFF" stroke-linecap="round"/>
<path d="M60.0613 18.0667C57.5885 20.3038 54.9855 22.4782 52.7366 24.9506C52.6528 25.0428 52.4177 25.3325 52.5058 25.2445" stroke="#F4CDFF" stroke-linecap="round"/>
<path d="M55.5277 15.7998C53.3535 18.5452 51.237 21.3324 49.1055 24.1109" stroke="#F4CDFF" stroke-linecap="round"/>
<path d="M55.3402 15.4224C52.6045 18.2341 49.6164 20.79 46.9189 23.6443C45.8755 24.7483 46.3074 24.3014 45.7593 25.0085C45.6863 25.1027 45.8424 24.7846 45.8958 24.678" stroke="#F4CDFF" stroke-linecap="round"/>
<path d="M52.1273 14.2888C51.7532 15.3489 50.529 16.4378 49.8187 17.2481C48.7751 18.4386 47.6628 19.5508 46.5446 20.6691C46.2059 21.0078 46.0465 21.2098 46.4396 20.7111C47.1687 19.7863 47.8439 18.8281 48.5384 17.8777" stroke="#F4CDFF" stroke-linecap="round"/>
<path d="M51.7509 14.2888C49.8005 16.3042 47.621 18.107 45.5176 19.9555" stroke="#F4CDFF" stroke-linecap="round"/>
<path d="M50.9957 11.4556C48.9588 12.9183 47.064 14.5939 45.1244 16.1778C44.1083 17.0076 43.0989 17.8462 42.0655 18.6544C2.67684 49.4561 50.5014 12.2525 39.7568 20.1445" stroke="#F4CDFF" stroke-linecap="round"/>
<path d="M46.462 9.94434C43.9661 12.5773 41.2665 15.0196 38.623 17.4999" stroke="#F4CDFF" stroke-linecap="round"/>
<path d="M43.8171 9.37769C40.4351 12.7597 37.213 16.3202 33.9004 19.7666" stroke="#F4CDFF" stroke-linecap="round"/>
<path d="M41.5503 9C37.9907 11.8816 34.6836 15.1289 31.2559 18.1611" stroke="#F4CDFF" stroke-linecap="round"/>
<path d="M40.3221 9.37769C36.394 14.716 31.1548 19.1251 26.5332 23.8277" stroke="#F4CDFF" stroke-linecap="round"/>
<path d="M23.7168 36.8149C25.0888 36.0935 24.0803 36.6493 26.335 35.1954C26.751 34.9271 31.3876 31.8703 32.1517 31.6729C33.5346 31.3157 31.5183 34.5074 30.7886 35.7352C28.8448 39.0063 26.7443 42.0049 25.0664 45.4252C24.9463 45.6701 23.2154 48.927 25.3228 47.3012C26.2966 46.5499 29.0574 43.504 29.8034 42.6586C32.4286 39.6837 34.7023 36.4513 37.1452 33.3329C38.0473 32.1815 40.6694 28.6871 39.9591 29.9657C39.704 30.4248 39.3051 30.7876 38.9806 31.2006C37.4459 33.1539 35.9466 35.1356 34.4595 37.1253C31.6845 40.8382 28.8313 44.5429 26.389 48.4888C26.1848 48.8187 25.3773 50.1955 25.2013 50.7426C25.1729 50.8311 25.1429 51.0078 25.2351 51.0193C25.8347 51.0942 26.1879 50.269 26.6049 49.8316C32.0081 44.1656 36.8897 38.0529 42.638 32.7121C42.8935 32.4747 44.5557 30.9269 43.4208 32.4422C41.2738 35.3087 38.8201 37.9555 36.5716 40.7422C34.8799 42.8389 33.1739 44.9564 31.7064 47.2202C31.6938 47.2396 30.9569 48.3168 30.9708 48.6103C30.9745 48.6866 31.1279 48.7034 31.1935 48.6642C31.7733 48.3185 33.1702 46.8834 33.4473 46.5994C37.7888 42.1499 41.833 37.4234 46.0727 32.8808C46.5296 32.3913 45.3222 33.9912 44.9121 34.5206C42.2009 38.0199 39.4601 41.4941 36.828 45.0541C35.0281 47.4886 33.0472 49.9671 31.6794 52.686C31.5197 53.0035 31.1725 53.8481 31.5107 53.7387C31.7843 53.6502 32.0117 53.4505 32.2327 53.2663C33.1931 52.466 34.8945 50.7194 35.6472 49.9329C39.1154 46.3084 42.4369 42.548 45.931 38.9472C46.904 37.9445 48.494 36.3424 49.5479 35.3303C49.9107 34.982 50.2797 34.64 50.6546 34.3046C50.9122 34.0741 51.5765 33.3727 51.5048 33.7108C51.3814 34.2924 50.8645 34.7143 50.5061 35.1886C49.5766 36.4189 48.8094 37.3518 47.8137 38.5828C44.2905 42.9387 40.6318 47.2594 37.5636 51.9572C37.085 52.6899 36.1061 54.2993 37.6985 52.902C41.0299 49.9788 44.1147 46.7036 47.1524 43.4818C48.6214 41.9238 52.8561 37.0914 51.4171 38.6773C48.9295 41.4187 42.1138 50.0924 44.9323 47.6925C45.8828 46.8833 49.4842 43.1311 50.3307 42.3212C51.9232 40.7974 51.3362 41.6237 50.4656 42.807C47.9915 46.1701 45.3232 49.3605 43.0361 52.8615C42.7848 53.2462 42.1668 54.1901 41.9025 54.7037C41.6775 55.1408 41.8871 54.917 42.0509 54.6902C43.3081 52.9495 44.0109 50.9121 44.8513 48.9612" stroke="#F4CDFF" stroke-linecap="round"/>
<path fill-rule="evenodd" clip-rule="evenodd" d="M47.4692 33.5795C47.4692 35.0654 46.9143 36.4296 45.9922 37.4936L54.3357 51.2539C54.675 51.8125 54.4714 52.5231 53.8846 52.8461C53.2977 53.1653 52.5512 52.9715 52.2119 52.4167L47.9683 45.4169C46.2716 46.7013 44.2755 47.4499 42.2316 47.6628V48.7686C42.2316 49.4146 41.6807 49.939 41.002 49.939C40.3193 49.939 39.7684 49.4146 39.7684 48.7686V47.6628C37.7245 47.4499 35.7284 46.7013 34.0317 45.4169L29.7881 52.4167C29.4488 52.9715 28.7023 53.1653 28.1154 52.8461C27.5286 52.5231 27.325 51.8125 27.6643 51.2539L36.0078 37.4974C35.0857 36.4334 34.5308 35.0654 34.5308 33.5795C34.5308 31.8809 35.2573 30.338 36.427 29.2246C37.3213 28.3734 38.479 27.7691 39.7684 27.5335V24.1704C39.7684 23.5244 40.3193 23 41.002 23C41.6807 23 42.2316 23.5244 42.2316 24.1704V27.5335C43.525 27.7691 44.6787 28.3734 45.573 29.2246C46.7467 30.338 47.4692 31.8809 47.4692 33.5795ZM43.8364 36.2776C44.559 35.5898 45.0101 34.6322 45.0101 33.5795C45.0101 32.5269 44.559 31.5731 43.8364 30.8814C43.1098 30.1898 42.1078 29.7642 41.002 29.7642C39.8922 29.7642 38.8902 30.1898 38.1676 30.8814C37.441 31.5731 36.9899 32.5269 36.9899 33.5795C36.9899 34.6322 37.441 35.5898 38.1676 36.2776C38.8902 36.9692 39.8922 37.3948 41.002 37.3948C42.1078 37.3948 43.1098 36.9692 43.8364 36.2776ZM44.0759 38.9985C43.1617 39.4697 42.1118 39.7395 41.002 39.7395C39.8882 39.7395 38.8383 39.4697 37.9241 38.9985L35.2813 43.3572C36.5867 44.4365 38.1516 45.0863 39.7684 45.3029V44.3452C39.7684 43.6992 40.3193 43.1748 41.002 43.1748C41.6807 43.1748 42.2316 43.6992 42.2316 44.3452V45.3029C43.8484 45.0863 45.4133 44.4365 46.7227 43.3572L44.0759 38.9985Z" fill="#69237B"/>
</svg>
